<svg width="1320" height="600" viewBox="0 0 1320 600" fill="none" xmlns="http://www.w3.org/2000/svg">
<g id="banner" clip-path="url(#clip0_103_2)">
<path id="Vector" d="M1320 0H0V600H1320V0Z" fill="#F7B733"/>
<g id="background" filter="url(#filter0_f_103_2)">
<g id="Vector_2" filter="url(#filter1_d_103_2)">
<path d="M819 1050C1082.99 1050 1297 835.992 1297 572C1297 308.008 1082.99 94 819 94C555.008 94 341 308.008 341 572C341 835.992 555.008 1050 819 1050Z" fill="#F83670"/>
</g>
<path id="Vector_3" d="M236 986C499.992 986 714 771.992 714 508C714 244.008 499.992 30 236 30C-27.9921 30 -242 244.008 -242 508C-242 771.992 -27.9921 986 236 986Z" fill="#F7B733"/>
<path id="Vector_4" d="M1269 1050C1532.99 1050 1747 835.992 1747 572C1747 308.008 1532.99 94 1269 94C1005.01 94 791 308.008 791 572C791 835.992 1005.01 1050 1269 1050Z" fill="#F83670"/>
<path id="Vector_5" d="M1076 661C1339.99 661 1554 446.992 1554 183C1554 -80.9921 1339.99 -295 1076 -295C812.008 -295 598 -80.9921 598 183C598 446.992 812.008 661 1076 661Z" fill="#F83670"/>
<path id="Vector_6" d="M611 823C874.992 823 1089 608.992 1089 345C1089 81.0079 874.992 -133 611 -133C347.008 -133 133 81.0079 133 345C133 608.992 347.008 823 611 823Z" fill="#F7B733"/>
<path id="Vector_7" d="M315 758C578.992 758 793 543.992 793 280C793 16.0079 578.992 -198 315 -198C51.0079 -198 -163 16.0079 -163 280C-163 543.992 51.0079 758 315 758Z" fill="#F83670"/>
</g>
<g id="bottom-right">
<path id="bottom-right-border" d="M1111.81 530.726H894V292H1111.81V530.726ZM895.742 528.983H1110.07V293.743H895.742V528.983Z" fill="#3F3D56"/>
<path id="bar-3" d="M964.572 437.936H925.365V500.667H964.572V437.936Z" fill="#575A89"/>
<path id="bar-2" d="M1021.2 395.244H981.997V500.667H1021.2V395.244Z" fill="#E6E6E6"/>
<path id="bar-1" d="M1077.84 345.583H1038.63V500.667H1077.84V345.583Z" fill="#3364AD"/>
<path id="Vector_8" d="M1090.9 502.41H914.91V320.316H916.652V500.667H1090.9V502.41Z" fill="#3F3D56"/>
</g>
<g id="bottom-left">
<path id="bottom-left-border" d="M864.815 530.725H647V292H864.815V530.725ZM648.743 528.983H863.072V293.742H648.743V528.983Z" fill="#3F3D56"/>
<path id="Vector_9" d="M835.192 508.178H789.887V510.015H835.192V508.178Z" fill="#3F3D56"/>
<path id="Vector_10" d="M835.192 513.688H789.887V515.525H835.192V513.688Z" fill="#3F3D56"/>
<path id="Vector_11" d="M835.192 519.198H789.887V521.035H835.192V519.198Z" fill="#3F3D56"/>
<path id="pie-3" d="M755.907 334.692V353.859C767.281 353.859 778.398 357.232 787.854 363.55C797.311 369.869 804.681 378.85 809.033 389.357C813.386 399.864 814.524 411.426 812.306 422.581C810.087 433.735 804.61 443.981 796.568 452.023L810.122 465.577C820.845 454.854 828.147 441.193 831.105 426.32C834.063 411.447 832.545 396.031 826.742 382.022C820.939 368.012 811.112 356.038 798.504 347.613C785.895 339.188 771.072 334.692 755.907 334.692Z" fill="#E6E6E6"/>
<path id="pie-2" d="M810.122 465.577L796.568 452.023C786.737 461.856 773.675 467.793 759.802 468.734C745.929 469.674 732.186 465.555 721.117 457.139L709.516 472.404C724.276 483.623 742.602 489.113 761.099 487.857C779.597 486.602 797.012 478.687 810.122 465.577Z" fill="#575A89"/>
<path id="pie-1" d="M698.404 411.362C698.404 403.811 699.892 396.333 702.781 389.357C705.671 382.38 709.907 376.041 715.247 370.701C720.586 365.362 726.925 361.126 733.902 358.236C740.879 355.347 748.356 353.859 755.907 353.859V334.692C739.857 334.691 724.212 339.728 711.176 349.092C698.141 358.456 688.373 371.675 683.249 386.885C678.125 402.095 677.903 418.53 682.616 433.873C687.328 449.216 696.737 462.693 709.516 472.404L721.117 457.139C714.053 451.781 708.327 444.86 704.386 436.917C700.445 428.975 698.398 420.228 698.404 411.362Z" fill="#3364AD"/>
</g>
<g id="top-right">
<path id="pie-6" d="M1241 54.5526C1218.31 31.7211 1187.07 18.2376 1154 17V137L1241 54.5526Z" fill="#3F3D56"/>
<path id="pie-5" d="M1240.58 69L1154 152H1275C1275.04 121.128 1262.72 91.418 1240.58 69Z" fill="#E4E4E4"/>
<path id="pie-4" d="M1275 160C1275 167.479 1274.28 174.943 1272.83 182.294C1272.72 182.876 1272.6 183.452 1272.48 184.029C1269.75 196.851 1264.82 209.158 1257.89 220.454C1257.53 221.06 1257.15 221.666 1256.77 222.26V222.266C1249.94 232.973 1241.41 242.599 1231.47 250.797C1230.98 251.207 1230.48 251.611 1229.98 252.009C1208.63 269.138 1181.89 278.988 1154 280V160H1275Z" fill="#F0F0F0"/>
<path id="pie-3_2" d="M1142.04 280C1143.7 280 1145.35 279.959 1147 279.898V160L1056 247.194C1079.23 268.296 1110.03 280.041 1142.04 280Z" fill="#CACACA"/>
<path id="pie-2_2" d="M1142.88 32C1073.36 32 1017 85.7258 1017 152H1148V32.107C1146.3 32.0422 1144.6 32 1142.88 32Z" fill="#3364AD"/>
<g id="pie-1_2">
<path id="Vector_12" d="M1112 160L1085.71 185.174L1084.85 185.998L1084.83 186.015L1061.91 207.962L1061.04 208.797L1036.27 232.515L1035.4 233.35V233.356L1021.14 247C1008.76 235.823 998.905 222.338 992.174 207.376C985.443 192.414 981.98 176.291 982 160H1112Z" fill="#3364AD"/>
<path id="Vector_13" d="M1035.27 233C1014.9 213.648 1003.01 187.569 1002 160.085L1004.45 160C1005.44 186.886 1017.08 212.398 1037 231.329L1035.27 233Z" fill="#3F3D56"/>
<path id="Vector_14" d="M1062 208.365L1060.19 210C1046.42 196.071 1036.7 178.929 1032 160.281L1033.21 160H1034.49C1039.12 178.126 1048.59 194.786 1061.98 208.341L1062 208.365Z" fill="#3F3D56"/>
<path id="Vector_15" d="M1086 185.471L1085.07 186.218L1085.05 186.236L1084.09 187C1077.11 178.985 1071.35 170.054 1067 160.478L1068.14 160H1069.5C1073.72 169.157 1079.25 177.702 1085.93 185.388C1085.95 185.417 1085.98 185.445 1086 185.471Z" fill="#3F3D56"/>
</g>
</g>
<g id="top-left">
<path id="top-left-border" d="M946.612 268.725H565V30H946.612V268.725ZM566.743 266.983H944.869V31.7425H566.743V266.983Z" fill="#3F3D56"/>
<path id="Vector_16" d="M893.615 218.799H617.997C617.768 218.799 617.549 218.708 617.387 218.546C617.225 218.384 617.134 218.165 617.134 217.936V85.8322C617.134 85.6035 617.225 85.3841 617.387 85.2223C617.549 85.0605 617.768 84.9697 617.997 84.9697C618.226 84.9697 618.445 85.0605 618.607 85.2223C618.768 85.3841 618.859 85.6035 618.859 85.8322V217.073H893.615C893.729 217.073 893.841 217.095 893.946 217.138C894.051 217.181 894.146 217.245 894.227 217.325C894.307 217.405 894.371 217.5 894.415 217.605C894.458 217.71 894.48 217.823 894.48 217.936C894.48 218.05 894.458 218.162 894.415 218.267C894.371 218.372 894.307 218.467 894.227 218.547C894.146 218.627 894.051 218.691 893.946 218.734C893.841 218.777 893.729 218.799 893.615 218.799V218.799Z" fill="#3F3D56"/>
<path id="Vector_17" d="M676.884 209.31H651.816C651.137 209.31 650.486 209.04 650.006 208.56C649.526 208.08 649.256 207.429 649.255 206.75V172.193C649.256 171.514 649.526 170.863 650.006 170.383C650.486 169.903 651.137 169.633 651.816 169.633H676.884C677.563 169.633 678.214 169.903 678.694 170.383C679.174 170.863 679.444 171.514 679.445 172.193V206.75C679.444 207.429 679.174 208.08 678.694 208.56C678.214 209.04 677.563 209.31 676.884 209.31V209.31Z" fill="#3364AD"/>
<path id="Vector_18" d="M722.6 209.31H697.531C696.853 209.31 696.202 209.04 695.722 208.56C695.242 208.08 694.972 207.429 694.971 206.75V139.416C694.972 138.737 695.242 138.086 695.722 137.606C696.202 137.126 696.853 136.856 697.531 136.855H722.6C723.279 136.856 723.93 137.126 724.41 137.606C724.89 138.086 725.16 138.737 725.161 139.416V206.75C725.16 207.429 724.89 208.08 724.41 208.56C723.93 209.04 723.279 209.31 722.6 209.31V209.31Z" fill="#3364AD"/>
<path id="Vector_19" d="M768.316 209.31H743.247C742.568 209.31 741.917 209.04 741.437 208.56C740.957 208.08 740.687 207.429 740.687 206.75V172.193C740.687 171.514 740.957 170.863 741.437 170.383C741.917 169.903 742.568 169.633 743.247 169.633H768.316C768.994 169.633 769.645 169.903 770.125 170.383C770.605 170.863 770.875 171.514 770.876 172.193V206.75C770.875 207.429 770.605 208.08 770.125 208.56C769.645 209.04 768.994 209.31 768.316 209.31V209.31Z" fill="#3364AD"/>
<path id="Vector_20" d="M814.031 209.31H788.963C788.299 209.325 787.657 209.075 787.177 208.617C786.698 208.159 786.419 207.529 786.402 206.866V126.361C786.419 125.698 786.698 125.068 787.177 124.61C787.657 124.152 788.299 123.903 788.963 123.917H814.031C814.695 123.903 815.337 124.152 815.817 124.61C816.296 125.068 816.575 125.698 816.592 126.361V206.866C816.575 207.529 816.296 208.159 815.817 208.617C815.337 209.075 814.695 209.325 814.031 209.31V209.31Z" fill="#3364AD"/>
<path id="Vector_21" d="M859.747 209.31H834.678C834 209.31 833.349 209.04 832.869 208.56C832.389 208.08 832.119 207.429 832.118 206.75V103.188C832.119 102.509 832.389 101.859 832.869 101.379C833.349 100.899 834 100.629 834.678 100.628H859.747C860.426 100.629 861.077 100.899 861.557 101.379C862.037 101.859 862.307 102.509 862.307 103.188V206.75C862.307 207.429 862.037 208.08 861.557 208.56C861.077 209.04 860.426 209.31 859.747 209.31V209.31Z" fill="#3364AD"/>
<path id="Vector_22" d="M664.35 159.282C667.208 159.282 669.525 156.965 669.525 154.107C669.525 151.248 667.208 148.931 664.35 148.931C661.492 148.931 659.175 151.248 659.175 154.107C659.175 156.965 661.492 159.282 664.35 159.282Z" fill="#3F3D56"/>
<path id="Vector_23" d="M710.066 125.642C712.924 125.642 715.241 123.325 715.241 120.467C715.241 117.609 712.924 115.292 710.066 115.292C707.207 115.292 704.89 117.609 704.89 120.467C704.89 123.325 707.207 125.642 710.066 125.642Z" fill="#3F3D56"/>
<path id="Vector_24" d="M755.781 159.282C758.64 159.282 760.957 156.965 760.957 154.107C760.957 151.248 758.64 148.931 755.781 148.931C752.923 148.931 750.606 151.248 750.606 154.107C750.606 156.965 752.923 159.282 755.781 159.282Z" fill="#3F3D56"/>
<path id="Vector_25" d="M801.497 109.254C804.355 109.254 806.672 106.936 806.672 104.078C806.672 101.22 804.355 98.9028 801.497 98.9028C798.639 98.9028 796.322 101.22 796.322 104.078C796.322 106.936 798.639 109.254 801.497 109.254Z" fill="#3F3D56"/>
<path id="Vector_26" d="M847.213 90.2773C850.071 90.2773 852.388 87.9602 852.388 85.1019C852.388 82.2437 850.071 79.9266 847.213 79.9266C844.354 79.9266 842.037 82.2437 842.037 85.1019C842.037 87.9602 844.354 90.2773 847.213 90.2773Z" fill="#3F3D56"/>
<path id="line" d="M755.89 155.266L710.066 120.943L664.867 154.797L663.833 153.416L710.066 118.787L755.672 152.947L800.993 103.352L801.175 103.278L846.89 84.858L847.535 86.459L802.001 104.805L755.89 155.266Z" fill="#3F3D56"/>
</g>
<path id="Get on-board the next generation of analytics." d="M35.018 219.618H51.51C51.634 219.618 51.7373 219.659 51.82 219.742C51.944 219.783 52.0267 219.866 52.068 219.99C52.1507 220.073 52.192 220.176 52.192 220.3V224.702H35.7C35.576 224.702 35.4727 224.681 35.39 224.64C35.3073 224.599 35.2247 224.557 35.142 224.516C35.1007 224.433 35.0593 224.351 35.018 224.268C35.018 224.185 35.018 224.103 35.018 224.02C35.018 223.235 35.018 222.511 35.018 221.85C35.018 221.147 35.018 220.403 35.018 219.618ZM35.638 197.36C37.4153 197.36 39.0273 197.463 40.474 197.67C41.9207 197.877 43.202 198.166 44.318 198.538C45.434 198.91 46.4053 199.344 47.232 199.84C48.0587 200.336 48.7407 200.832 49.278 201.328C49.3607 201.452 49.4227 201.597 49.464 201.762C49.5053 201.886 49.526 202.031 49.526 202.196C49.526 203.064 49.526 204.015 49.526 205.048C49.526 206.081 49.526 207.115 49.526 208.148C49.526 209.14 49.526 210.132 49.526 211.124C48.7407 211.124 47.9553 211.124 47.17 211.124C46.3847 211.124 45.5993 211.124 44.814 211.124C44.6073 211.124 44.442 211.062 44.318 210.938C44.194 210.814 44.132 210.649 44.132 210.442C44.132 209.615 44.132 208.789 44.132 207.962C44.132 207.135 44.132 206.288 44.132 205.42C44.132 204.511 44.132 203.56 44.132 202.568L45.682 205.482C44.4833 204.449 43.0367 203.746 41.342 203.374C39.6473 202.961 37.6013 202.754 35.204 202.754C33.4267 202.754 31.8147 203.002 30.368 203.498C28.9627 203.953 27.764 204.697 26.772 205.73C25.8213 206.722 25.0773 207.983 24.54 209.512C24.044 211.041 23.796 212.86 23.796 214.968V226.996C23.796 228.773 24.044 230.365 24.54 231.77C25.0773 233.134 25.8213 234.291 26.772 235.242C27.5987 236.069 28.6733 236.73 29.996 237.226C31.36 237.681 33.034 237.908 35.018 237.908C36.8367 237.908 38.3867 237.701 39.668 237.288C40.9907 236.875 42.024 236.42 42.768 235.924C43.5533 235.387 44.0287 234.973 44.194 234.684C44.194 233.196 44.194 231.811 44.194 230.53C44.194 229.249 44.194 227.967 44.194 226.686C44.194 225.405 44.194 224.041 44.194 222.594H49.898L49.588 223.71C49.588 226.025 49.588 228.195 49.588 230.22C49.588 232.204 49.588 234.374 49.588 236.73C49.588 236.937 49.5673 237.102 49.526 237.226C49.4847 237.35 49.402 237.515 49.278 237.722C48.4513 238.755 47.3147 239.706 45.868 240.574C44.4627 241.401 42.8507 242.041 41.032 242.496C39.2133 242.992 37.3533 243.24 35.452 243.24C32.5587 243.24 30.0167 242.847 27.826 242.062C25.6353 241.318 23.8167 240.243 22.37 238.838C20.9233 237.433 19.828 235.738 19.084 233.754C18.3813 231.729 18.03 229.476 18.03 226.996V214.658C18.03 211.93 18.402 209.491 19.146 207.342C19.9313 205.193 21.0473 203.395 22.494 201.948C23.982 200.46 25.8213 199.323 28.012 198.538C30.244 197.753 32.786 197.36 35.638 197.36ZM73.1102 208.334C75.5489 208.334 77.7809 208.851 79.8062 209.884C81.8316 210.876 83.4436 212.405 84.6422 214.472C85.8822 216.497 86.5022 219.101 86.5022 222.284V226.81C86.5022 226.934 86.4609 227.058 86.3782 227.182C86.3369 227.265 86.2749 227.347 86.1922 227.43C86.1096 227.471 85.9856 227.492 85.8202 227.492H69.7622C69.0596 227.492 68.3569 227.492 67.6542 227.492C66.9516 227.492 66.2696 227.492 65.6082 227.492H63.7482L62.9422 223.462H80.9222C80.9222 223.255 80.9222 223.049 80.9222 222.842C80.9222 222.635 80.9222 222.429 80.9222 222.222C80.9222 220.61 80.7362 219.225 80.3642 218.068C80.0336 216.869 79.4962 215.898 78.7522 215.154C78.0909 214.534 77.2849 214.079 76.3342 213.79C75.3836 213.459 74.3089 213.294 73.1102 213.294C70.4236 213.294 68.3569 214.017 66.9102 215.464C65.4636 216.869 64.7402 219.184 64.7402 222.408V228.918C64.7402 230.241 64.9262 231.439 65.2982 232.514C65.6702 233.589 66.1869 234.477 66.8482 235.18C67.6749 236.007 68.7496 236.627 70.0722 237.04C71.4362 237.412 73.0069 237.598 74.7842 237.598C76.3549 237.598 77.6982 237.515 78.8142 237.35C79.9716 237.185 81.0462 236.937 82.0382 236.606C83.0302 236.275 84.0429 235.862 85.0762 235.366H86.0062C86.0062 236.027 86.0062 236.709 86.0062 237.412C86.0062 238.115 86.0062 238.817 86.0062 239.52C86.0062 239.603 85.9856 239.685 85.9442 239.768C85.9029 239.851 85.8409 239.933 85.7582 240.016C85.3449 240.429 84.5802 240.843 83.4642 241.256C82.3896 241.669 81.0669 242 79.4962 242.248C77.9669 242.537 76.3136 242.682 74.5362 242.682C72.1802 242.682 70.0309 242.393 68.0882 241.814C66.1869 241.235 64.5542 240.367 63.1902 239.21C61.8676 238.053 60.8549 236.627 60.1522 234.932C59.4496 233.196 59.0982 231.191 59.0982 228.918V222.47C59.0982 220.073 59.4496 217.985 60.1522 216.208C60.8962 214.431 61.9089 212.963 63.1902 211.806C64.4716 210.649 65.9596 209.781 67.6542 209.202C69.3489 208.623 71.1676 208.334 73.1102 208.334ZM93.7465 209.016H117.121C117.327 209.016 117.493 209.078 117.617 209.202C117.741 209.326 117.803 209.491 117.803 209.698C117.803 210.235 117.803 210.752 117.803 211.248C117.803 211.744 117.803 212.24 117.803 212.736C117.803 213.232 117.803 213.769 117.803 214.348H94.4285C94.3459 214.348 94.2632 214.327 94.1805 214.286C94.0979 214.245 94.0152 214.203 93.9325 214.162C93.8912 214.079 93.8499 213.997 93.8085 213.914C93.7672 213.831 93.7465 213.749 93.7465 213.666C93.7465 213.087 93.7465 212.55 93.7465 212.054C93.7465 211.558 93.7465 211.062 93.7465 210.566C93.7465 210.07 93.7465 209.553 93.7465 209.016ZM117.803 236.606C117.803 237.391 117.803 238.177 117.803 238.962C117.803 239.747 117.803 240.533 117.803 241.318C117.803 241.525 117.741 241.69 117.617 241.814C117.534 241.938 117.369 242 117.121 242C116.749 242 116.356 242 115.943 242C115.571 242 115.178 242 114.765 242C114.393 242 114 242 113.587 242C113.215 242 112.843 242 112.471 242C110.445 242 108.668 241.773 107.139 241.318C105.609 240.822 104.307 240.078 103.233 239.086C102.158 238.053 101.352 236.751 100.815 235.18C100.277 233.609 100.009 231.708 100.009 229.476C100.009 227.451 100.009 225.425 100.009 223.4C100.009 221.375 100.009 219.349 100.009 217.324C100.009 215.299 100.009 213.273 100.009 211.248C100.009 209.181 100.009 207.135 100.009 205.11C100.009 203.994 100.009 202.899 100.009 201.824C100.009 200.749 100.009 199.675 100.009 198.6C100.877 198.6 101.724 198.6 102.551 198.6C103.377 198.6 104.204 198.6 105.031 198.6C105.155 198.6 105.258 198.641 105.341 198.724C105.465 198.765 105.547 198.848 105.589 198.972C105.671 199.055 105.713 199.158 105.713 199.282C105.713 201.762 105.713 204.242 105.713 206.722C105.713 209.161 105.713 211.62 105.713 214.1C105.713 216.58 105.713 219.06 105.713 221.54C105.713 224.02 105.713 226.5 105.713 228.98C105.713 230.468 105.857 231.708 106.147 232.7C106.436 233.692 106.891 234.498 107.511 235.118C108.089 235.655 108.792 236.048 109.619 236.296C110.487 236.503 111.52 236.606 112.719 236.606C113.215 236.606 113.69 236.606 114.145 236.606C114.641 236.606 115.116 236.606 115.571 236.606C116.025 236.606 116.501 236.606 116.997 236.606H117.803ZM159.082 208.334C161.19 208.334 163.112 208.685 164.848 209.388C166.584 210.049 168.072 210.979 169.312 212.178C170.594 213.377 171.565 214.803 172.226 216.456C172.888 218.109 173.218 219.928 173.218 221.912V228.794C173.218 231.522 172.598 233.94 171.358 236.048C170.16 238.115 168.486 239.747 166.336 240.946C164.187 242.103 161.769 242.682 159.082 242.682C156.974 242.682 155.052 242.351 153.316 241.69C151.58 241.029 150.072 240.099 148.79 238.9C147.55 237.66 146.6 236.213 145.938 234.56C145.277 232.907 144.946 231.088 144.946 229.104V222.222C144.946 219.453 145.546 217.035 146.744 214.968C147.984 212.901 149.679 211.289 151.828 210.132C153.978 208.933 156.396 208.334 159.082 208.334ZM159.392 213.542C157.491 213.542 155.879 213.935 154.556 214.72C153.275 215.505 152.283 216.559 151.58 217.882C150.919 219.205 150.588 220.713 150.588 222.408V228.67C150.588 230.034 150.795 231.274 151.208 232.39C151.663 233.465 152.262 234.395 153.006 235.18C153.709 235.883 154.536 236.441 155.486 236.854C156.478 237.267 157.574 237.474 158.772 237.474C160.674 237.474 162.265 237.081 163.546 236.296C164.869 235.469 165.861 234.395 166.522 233.072C167.225 231.749 167.576 230.261 167.576 228.608V222.346C167.576 220.899 167.37 219.618 166.956 218.502C166.584 217.386 166.006 216.456 165.22 215.712C164.559 215.009 163.732 214.472 162.74 214.1C161.748 213.728 160.632 213.542 159.392 213.542ZM209.526 242C208.617 242 207.77 242 206.984 242C206.24 242 205.414 242 204.504 242C204.38 242 204.256 241.979 204.132 241.938C204.05 241.855 203.967 241.773 203.884 241.69C203.843 241.607 203.822 241.483 203.822 241.318C203.822 238.797 203.822 236.296 203.822 233.816C203.822 231.295 203.822 228.794 203.822 226.314C203.822 223.793 203.822 221.271 203.822 218.75C203.822 217.055 203.409 215.815 202.582 215.03C201.797 214.203 200.66 213.79 199.172 213.79C198.304 213.79 197.416 213.935 196.506 214.224C195.597 214.472 194.688 214.865 193.778 215.402C192.869 215.939 191.939 216.621 190.988 217.448C190.079 218.275 189.149 219.267 188.198 220.424V214.534H190.058C191.009 213.294 192.022 212.219 193.096 211.31C194.212 210.359 195.411 209.636 196.692 209.14C197.974 208.603 199.338 208.334 200.784 208.334C202.19 208.334 203.43 208.561 204.504 209.016C205.62 209.471 206.53 210.111 207.232 210.938C207.976 211.765 208.534 212.757 208.906 213.914C209.32 215.03 209.526 216.27 209.526 217.634C209.526 219.618 209.526 221.602 209.526 223.586C209.526 225.57 209.526 227.575 209.526 229.6C209.526 231.584 209.526 233.589 209.526 235.614C209.526 236.689 209.526 237.763 209.526 238.838C209.526 239.871 209.526 240.925 209.526 242ZM189.128 242C188.55 242 187.992 242 187.454 242C186.917 242 186.38 242 185.842 242C185.305 242 184.726 242 184.106 242C183.982 242 183.879 242 183.796 242C183.714 241.959 183.631 241.917 183.548 241.876C183.507 241.793 183.466 241.711 183.424 241.628C183.424 241.545 183.424 241.442 183.424 241.318C183.424 239.127 183.424 236.937 183.424 234.746C183.424 232.555 183.424 230.385 183.424 228.236C183.424 226.087 183.424 223.917 183.424 221.726C183.424 219.535 183.424 217.345 183.424 215.154C183.424 213.831 183.424 212.653 183.424 211.62C183.424 210.545 183.424 209.677 183.424 209.016C184.086 209.016 184.685 209.016 185.222 209.016C185.801 209.016 186.338 209.016 186.834 209.016C187.372 209.016 187.909 209.016 188.446 209.016C188.612 209.016 188.736 209.057 188.818 209.14C188.901 209.181 188.963 209.243 189.004 209.326C189.087 209.409 189.128 209.533 189.128 209.698C189.128 213.253 189.128 216.828 189.128 220.424C189.128 224.02 189.128 227.616 189.128 231.212C189.128 234.808 189.128 238.404 189.128 242ZM219.546 220.672H237.34C237.505 220.672 237.629 220.713 237.712 220.796C237.795 220.837 237.857 220.899 237.898 220.982C237.981 221.065 238.022 221.189 238.022 221.354C238.022 222.181 238.022 222.987 238.022 223.772C238.022 224.516 238.022 225.322 238.022 226.19H220.228C220.104 226.19 220.001 226.19 219.918 226.19C219.835 226.149 219.753 226.107 219.67 226.066C219.629 225.983 219.587 225.901 219.546 225.818C219.546 225.735 219.546 225.632 219.546 225.508C219.546 224.64 219.546 223.834 219.546 223.09C219.546 222.305 219.546 221.499 219.546 220.672ZM252.666 242C252.335 242 251.963 242 251.55 242C251.137 242 250.723 242 250.31 242C249.897 242 249.525 242 249.194 242C249.07 242 248.946 241.979 248.822 241.938C248.739 241.855 248.657 241.773 248.574 241.69C248.533 241.607 248.512 241.483 248.512 241.318C248.512 238.094 248.512 234.891 248.512 231.708C248.512 228.525 248.512 225.343 248.512 222.16C248.512 218.936 248.512 215.733 248.512 212.55C248.512 209.367 248.512 206.164 248.512 202.94C248.512 201.7 248.512 200.46 248.512 199.22C248.512 197.939 248.512 196.699 248.512 195.5C248.967 195.5 249.401 195.5 249.814 195.5C250.227 195.5 250.641 195.5 251.054 195.5C251.467 195.5 251.881 195.5 252.294 195.5C252.707 195.5 253.121 195.5 253.534 195.5C253.699 195.5 253.823 195.541 253.906 195.624C253.989 195.665 254.051 195.727 254.092 195.81C254.175 195.893 254.216 196.017 254.216 196.182C254.216 199.53 254.216 202.878 254.216 206.226C254.216 209.533 254.216 212.86 254.216 216.208C254.216 219.515 254.216 222.842 254.216 226.19C254.216 229.497 254.216 232.824 254.216 236.172C254.216 236.172 254.154 236.379 254.03 236.792C253.947 237.205 253.823 237.701 253.658 238.28C253.534 238.817 253.389 239.396 253.224 240.016C253.1 240.595 252.976 241.07 252.852 241.442C252.728 241.814 252.666 242 252.666 242ZM252.79 236.916L253.286 230.592C254.774 233.031 256.386 234.746 258.122 235.738C259.858 236.689 261.615 237.164 263.392 237.164C264.797 237.164 265.996 236.875 266.988 236.296C267.98 235.676 268.745 234.767 269.282 233.568C269.861 232.369 270.15 230.943 270.15 229.29V221.354C270.15 220.031 269.985 218.895 269.654 217.944C269.323 216.952 268.848 216.146 268.228 215.526C267.649 214.947 266.947 214.513 266.12 214.224C265.335 213.935 264.425 213.79 263.392 213.79C262.193 213.79 261.015 214.038 259.858 214.534C258.701 215.03 257.585 215.795 256.51 216.828C255.435 217.861 254.402 219.184 253.41 220.796V214.1H255.084C255.869 212.901 256.758 211.868 257.75 211C258.742 210.132 259.837 209.471 261.036 209.016C262.276 208.561 263.599 208.334 265.004 208.334C266.616 208.334 268.083 208.623 269.406 209.202C270.729 209.739 271.865 210.545 272.816 211.62C273.767 212.653 274.49 213.914 274.986 215.402C275.523 216.89 275.792 218.585 275.792 220.486V230.158C275.792 232.101 275.523 233.837 274.986 235.366C274.49 236.895 273.746 238.218 272.754 239.334C271.803 240.409 270.667 241.235 269.344 241.814C268.021 242.351 266.533 242.62 264.88 242.62C263.475 242.62 262.173 242.413 260.974 242C259.775 241.587 258.659 240.967 257.626 240.14C256.634 239.272 255.704 238.197 254.836 236.916H252.79ZM298.522 208.334C300.63 208.334 302.552 208.685 304.288 209.388C306.024 210.049 307.512 210.979 308.752 212.178C310.033 213.377 311.005 214.803 311.666 216.456C312.327 218.109 312.658 219.928 312.658 221.912V228.794C312.658 231.522 312.038 233.94 310.798 236.048C309.599 238.115 307.925 239.747 305.776 240.946C303.627 242.103 301.209 242.682 298.522 242.682C296.414 242.682 294.492 242.351 292.756 241.69C291.02 241.029 289.511 240.099 288.23 238.9C286.99 237.66 286.039 236.213 285.378 234.56C284.717 232.907 284.386 231.088 284.386 229.104V222.222C284.386 219.453 284.985 217.035 286.184 214.968C287.424 212.901 289.119 211.289 291.268 210.132C293.417 208.933 295.835 208.334 298.522 208.334ZM298.832 213.542C296.931 213.542 295.319 213.935 293.996 214.72C292.715 215.505 291.723 216.559 291.02 217.882C290.359 219.205 290.028 220.713 290.028 222.408V228.67C290.028 230.034 290.235 231.274 290.648 232.39C291.103 233.465 291.702 234.395 292.446 235.18C293.149 235.883 293.975 236.441 294.926 236.854C295.918 237.267 297.013 237.474 298.212 237.474C300.113 237.474 301.705 237.081 302.986 236.296C304.309 235.469 305.301 234.395 305.962 233.072C306.665 231.749 307.016 230.261 307.016 228.608V222.346C307.016 220.899 306.809 219.618 306.396 218.502C306.024 217.386 305.445 216.456 304.66 215.712C303.999 215.009 303.172 214.472 302.18 214.1C301.188 213.728 300.072 213.542 298.832 213.542ZM347.306 220.238C347.306 221.395 347.306 222.553 347.306 223.71C347.306 224.867 347.306 226.045 347.306 227.244C347.306 228.401 347.306 229.559 347.306 230.716C347.306 231.873 347.306 233.031 347.306 234.188C347.306 234.725 347.348 235.18 347.43 235.552C347.554 235.924 347.72 236.213 347.926 236.42C348.133 236.627 348.381 236.771 348.67 236.854C348.96 236.937 349.311 236.978 349.724 236.978C349.807 236.978 349.89 236.978 349.972 236.978C350.096 236.978 350.22 236.978 350.344 236.978H351.274C351.274 237.722 351.274 238.445 351.274 239.148C351.274 239.851 351.274 240.574 351.274 241.318C351.274 241.566 351.212 241.752 351.088 241.876C350.964 241.959 350.799 242 350.592 242C350.386 242 350.055 242 349.6 242C349.187 242 348.794 242 348.422 242C347.472 242 346.583 241.855 345.756 241.566C344.93 241.277 344.206 240.843 343.586 240.264C342.966 239.685 342.491 238.983 342.16 238.156C341.83 237.288 341.664 236.275 341.664 235.118C341.664 233.671 341.664 232.183 341.664 230.654C341.664 229.083 341.664 227.575 341.664 226.128C341.664 225.467 341.664 224.805 341.664 224.144C341.664 223.483 341.664 222.821 341.664 222.16C341.664 221.499 341.664 220.837 341.664 220.176C341.664 218.523 341.416 217.241 340.92 216.332C340.466 215.381 339.68 214.72 338.564 214.348C337.448 213.935 335.94 213.728 334.038 213.728C332.84 213.728 331.682 213.79 330.566 213.914C329.45 214.038 328.355 214.245 327.28 214.534C326.247 214.782 325.193 215.113 324.118 215.526H323.188C323.188 214.782 323.188 214.038 323.188 213.294C323.188 212.55 323.188 211.806 323.188 211.062C323.188 210.938 323.209 210.835 323.25 210.752C323.292 210.669 323.333 210.607 323.374 210.566C323.581 210.318 324.201 210.029 325.234 209.698C326.309 209.367 327.611 209.078 329.14 208.83C330.711 208.541 332.344 208.396 334.038 208.396C336.353 208.396 338.337 208.623 339.99 209.078C341.685 209.491 343.07 210.173 344.144 211.124C345.219 212.075 346.004 213.294 346.5 214.782C347.038 216.27 347.306 218.089 347.306 220.238ZM326.536 233.196C326.536 234.601 326.929 235.676 327.714 236.42C328.541 237.123 329.76 237.474 331.372 237.474C332.778 237.474 334.1 237.288 335.34 236.916C336.622 236.544 337.862 235.924 339.06 235.056C340.259 234.147 341.499 232.907 342.78 231.336V236.73H340.982C340.28 238.011 339.412 239.086 338.378 239.954C337.386 240.822 336.208 241.483 334.844 241.938C333.48 242.393 331.972 242.62 330.318 242.62C328.376 242.62 326.702 242.269 325.296 241.566C323.891 240.822 322.796 239.809 322.01 238.528C321.225 237.205 320.832 235.635 320.832 233.816V231.832C320.832 230.468 321.06 229.249 321.514 228.174C321.969 227.058 322.61 226.128 323.436 225.384C324.304 224.64 325.338 224.061 326.536 223.648C327.735 223.235 329.078 223.028 330.566 223.028C332.013 223.028 333.398 223.028 334.72 223.028C336.084 223.028 337.428 223.028 338.75 223.028C340.073 223.028 341.416 223.028 342.78 223.028C343.152 223.028 343.4 223.255 343.524 223.71C343.69 224.123 343.793 224.64 343.834 225.26C343.876 225.88 343.896 226.479 343.896 227.058C342.367 227.058 340.941 227.058 339.618 227.058C338.337 227.058 337.035 227.058 335.712 227.058C334.39 227.058 332.943 227.058 331.372 227.058C330.504 227.058 329.76 227.161 329.14 227.368C328.562 227.533 328.066 227.843 327.652 228.298C327.28 228.629 326.991 229.063 326.784 229.6C326.619 230.096 326.536 230.675 326.536 231.336V233.196ZM364.394 214.844H366.44C367.267 213.315 368.114 212.075 368.982 211.124C369.85 210.173 370.801 209.491 371.834 209.078C372.867 208.623 374.004 208.396 375.244 208.396C375.988 208.396 376.608 208.458 377.104 208.582C377.6 208.665 377.993 208.789 378.282 208.954C378.489 209.037 378.613 209.161 378.654 209.326C378.737 209.45 378.778 209.636 378.778 209.884C378.778 210.256 378.778 210.649 378.778 211.062C378.778 211.475 378.778 211.889 378.778 212.302C378.778 212.674 378.778 213.067 378.778 213.48C378.778 213.893 378.778 214.307 378.778 214.72H377.848C377.393 214.596 376.918 214.493 376.422 214.41C375.926 214.327 375.327 214.286 374.624 214.286C373.301 214.286 372.082 214.534 370.966 215.03C369.85 215.485 368.755 216.249 367.68 217.324C366.647 218.357 365.551 219.742 364.394 221.478V214.844ZM365.386 242C364.807 242 364.229 242 363.65 242C363.071 242 362.493 242 361.914 242C361.335 242 360.736 242 360.116 242C359.992 242 359.889 242 359.806 242C359.723 241.959 359.641 241.917 359.558 241.876C359.517 241.793 359.475 241.711 359.434 241.628C359.434 241.545 359.434 241.442 359.434 241.318C359.434 240.45 359.434 239.272 359.434 237.784C359.434 236.296 359.434 234.622 359.434 232.762C359.434 230.861 359.434 228.897 359.434 226.872C359.434 224.805 359.434 222.78 359.434 220.796C359.434 218.771 359.434 216.89 359.434 215.154C359.434 213.831 359.434 212.653 359.434 211.62C359.434 210.545 359.434 209.677 359.434 209.016C360.095 209.016 360.715 209.016 361.294 209.016C361.914 209.016 362.493 209.016 363.03 209.016C363.609 209.016 364.167 209.016 364.704 209.016C364.869 209.016 364.993 209.057 365.076 209.14C365.159 209.181 365.221 209.243 365.262 209.326C365.345 209.409 365.386 209.533 365.386 209.698C365.386 210.773 365.386 212.219 365.386 214.038C365.386 215.857 365.386 217.923 365.386 220.238C365.386 222.553 365.386 224.991 365.386 227.554C365.386 230.075 365.386 232.576 365.386 235.056C365.386 237.536 365.386 239.851 365.386 242ZM396.041 208.334C397.529 208.334 398.851 208.561 400.009 209.016C401.166 209.429 402.22 210.049 403.171 210.876C404.163 211.703 405.031 212.715 405.775 213.914H407.635V220.672C406.147 218.275 404.555 216.539 402.861 215.464C401.166 214.348 399.389 213.79 397.529 213.79C396.165 213.79 394.966 214.1 393.933 214.72C392.941 215.299 392.155 216.187 391.577 217.386C391.039 218.543 390.771 219.99 390.771 221.726V229.6C390.771 230.923 390.936 232.08 391.267 233.072C391.639 234.023 392.114 234.808 392.693 235.428C393.271 236.007 393.974 236.441 394.801 236.73C395.627 237.019 396.537 237.164 397.529 237.164C398.727 237.164 399.905 236.957 401.063 236.544C402.22 236.089 403.357 235.366 404.473 234.374C405.589 233.382 406.643 232.08 407.635 230.468V236.978H405.775C405.031 238.177 404.163 239.189 403.171 240.016C402.179 240.843 401.063 241.483 399.823 241.938C398.624 242.393 397.322 242.62 395.917 242.62C394.346 242.62 392.879 242.351 391.515 241.814C390.192 241.235 389.055 240.429 388.105 239.396C387.154 238.363 386.41 237.102 385.873 235.614C385.377 234.126 385.129 232.431 385.129 230.53V220.796C385.129 218.853 385.377 217.117 385.873 215.588C386.41 214.059 387.154 212.757 388.105 211.682C389.097 210.607 390.254 209.781 391.577 209.202C392.941 208.623 394.429 208.334 396.041 208.334ZM411.727 195.5C411.892 195.5 412.016 195.541 412.099 195.624C412.181 195.665 412.243 195.727 412.285 195.81C412.367 195.893 412.409 196.017 412.409 196.182C412.409 199.365 412.409 202.609 412.409 205.916C412.409 209.223 412.409 212.509 412.409 215.774C412.409 219.039 412.409 222.263 412.409 225.446C412.409 228.587 412.409 231.625 412.409 234.56C412.409 235.965 412.409 237.309 412.409 238.59C412.409 239.83 412.409 240.967 412.409 242C411.995 242 411.561 242 411.107 242C410.693 242 410.28 242 409.867 242C409.453 242 409.04 242 408.627 242C408.213 242 407.8 242 407.387 242C407.263 242 407.139 241.979 407.015 241.938C406.932 241.855 406.849 241.773 406.767 241.69C406.725 241.607 406.705 241.483 406.705 241.318C406.705 238.011 406.705 234.705 406.705 231.398C406.705 228.091 406.705 224.805 406.705 221.54C406.705 218.233 406.705 214.927 406.705 211.62C406.705 208.313 406.705 205.007 406.705 201.7C406.705 200.708 406.705 199.695 406.705 198.662C406.705 197.629 406.705 196.575 406.705 195.5C407.118 195.5 407.531 195.5 407.945 195.5C408.358 195.5 408.771 195.5 409.185 195.5C409.598 195.5 410.011 195.5 410.425 195.5C410.879 195.5 411.313 195.5 411.727 195.5ZM16.852 283.016H40.226C40.4327 283.016 40.598 283.078 40.722 283.202C40.846 283.326 40.908 283.491 40.908 283.698C40.908 284.235 40.908 284.752 40.908 285.248C40.908 285.744 40.908 286.24 40.908 286.736C40.908 287.232 40.908 287.769 40.908 288.348H17.534C17.4513 288.348 17.3687 288.327 17.286 288.286C17.2033 288.245 17.1207 288.203 17.038 288.162C16.9967 288.079 16.9553 287.997 16.914 287.914C16.8727 287.831 16.852 287.749 16.852 287.666C16.852 287.087 16.852 286.55 16.852 286.054C16.852 285.558 16.852 285.062 16.852 284.566C16.852 284.07 16.852 283.553 16.852 283.016ZM40.908 310.606C40.908 311.391 40.908 312.177 40.908 312.962C40.908 313.747 40.908 314.533 40.908 315.318C40.908 315.525 40.846 315.69 40.722 315.814C40.6393 315.938 40.474 316 40.226 316C39.854 316 39.4613 316 39.048 316C38.676 316 38.2833 316 37.87 316C37.498 316 37.1053 316 36.692 316C36.32 316 35.948 316 35.576 316C33.5507 316 31.7733 315.773 30.244 315.318C28.7147 314.822 27.4127 314.078 26.338 313.086C25.2633 312.053 24.4573 310.751 23.92 309.18C23.3827 307.609 23.114 305.708 23.114 303.476C23.114 301.451 23.114 299.425 23.114 297.4C23.114 295.375 23.114 293.349 23.114 291.324C23.114 289.299 23.114 287.273 23.114 285.248C23.114 283.181 23.114 281.135 23.114 279.11C23.114 277.994 23.114 276.899 23.114 275.824C23.114 274.749 23.114 273.675 23.114 272.6C23.982 272.6 24.8293 272.6 25.656 272.6C26.4827 272.6 27.3093 272.6 28.136 272.6C28.26 272.6 28.3633 272.641 28.446 272.724C28.57 272.765 28.6527 272.848 28.694 272.972C28.7767 273.055 28.818 273.158 28.818 273.282C28.818 275.762 28.818 278.242 28.818 280.722C28.818 283.161 28.818 285.62 28.818 288.1C28.818 290.58 28.818 293.06 28.818 295.54C28.818 298.02 28.818 300.5 28.818 302.98C28.818 304.468 28.9627 305.708 29.252 306.7C29.5413 307.692 29.996 308.498 30.616 309.118C31.1947 309.655 31.8973 310.048 32.724 310.296C33.592 310.503 34.6253 310.606 35.824 310.606C36.32 310.606 36.7953 310.606 37.25 310.606C37.746 310.606 38.2213 310.606 38.676 310.606C39.1307 310.606 39.606 310.606 40.102 310.606H40.908ZM51.448 316C51.324 316 51.2 315.979 51.076 315.938C50.9933 315.855 50.9107 315.773 50.828 315.69C50.7867 315.607 50.766 315.483 50.766 315.318C50.766 312.011 50.766 308.725 50.766 305.46C50.766 302.153 50.766 298.847 50.766 295.54C50.766 292.192 50.766 288.865 50.766 285.558C50.766 282.251 50.766 278.945 50.766 275.638C50.766 274.315 50.766 273.137 50.766 272.104C50.766 271.029 50.766 270.161 50.766 269.5C51.4273 269.5 52.0267 269.5 52.564 269.5C53.1427 269.5 53.68 269.5 54.176 269.5C54.7133 269.5 55.2507 269.5 55.788 269.5C55.9533 269.5 56.0773 269.541 56.16 269.624C56.2427 269.665 56.3047 269.727 56.346 269.81C56.4287 269.893 56.47 270.017 56.47 270.182C56.47 273.985 56.47 277.808 56.47 281.652C56.47 285.455 56.47 289.278 56.47 293.122C56.47 296.925 56.47 300.748 56.47 304.592C56.47 308.395 56.47 312.197 56.47 316C55.8913 316 55.3333 316 54.796 316C54.2587 316 53.7213 316 53.184 316C52.6467 316 52.068 316 51.448 316ZM55.54 294.424V288.534H57.4C58.144 287.625 58.9087 286.798 59.694 286.054C60.4793 285.269 61.306 284.607 62.174 284.07C63.0833 283.491 64.034 283.057 65.026 282.768C66.018 282.479 67.0513 282.334 68.126 282.334C69.5313 282.334 70.7713 282.561 71.846 283.016C72.962 283.471 73.8713 284.111 74.574 284.938C75.318 285.765 75.876 286.757 76.248 287.914C76.6613 289.03 76.868 290.27 76.868 291.634C76.868 293.618 76.868 295.602 76.868 297.586C76.868 299.57 76.868 301.575 76.868 303.6C76.868 305.584 76.868 307.589 76.868 309.614C76.868 310.689 76.868 311.763 76.868 312.838C76.868 313.871 76.868 314.925 76.868 316C75.9587 316 75.1113 316 74.326 316C73.582 316 72.7553 316 71.846 316C71.722 316 71.598 315.979 71.474 315.938C71.3913 315.855 71.3087 315.773 71.226 315.69C71.1847 315.607 71.164 315.483 71.164 315.318C71.164 312.797 71.164 310.296 71.164 307.816C71.164 305.295 71.164 302.794 71.164 300.314C71.164 297.793 71.164 295.271 71.164 292.75C71.164 291.055 70.7507 289.815 69.924 289.03C69.1387 288.203 68.002 287.79 66.514 287.79C65.646 287.79 64.7573 287.935 63.848 288.224C62.9387 288.472 62.0293 288.865 61.12 289.402C60.2107 289.939 59.2807 290.621 58.33 291.448C57.4207 292.275 56.4907 293.267 55.54 294.424ZM100.962 282.334C103.4 282.334 105.632 282.851 107.658 283.884C109.683 284.876 111.295 286.405 112.494 288.472C113.734 290.497 114.354 293.101 114.354 296.284V300.81C114.354 300.934 114.312 301.058 114.23 301.182C114.188 301.265 114.126 301.347 114.044 301.43C113.961 301.471 113.837 301.492 113.672 301.492H97.6138C96.9111 301.492 96.2084 301.492 95.5058 301.492C94.8031 301.492 94.1211 301.492 93.4598 301.492H91.5998L90.7938 297.462H108.774C108.774 297.255 108.774 297.049 108.774 296.842C108.774 296.635 108.774 296.429 108.774 296.222C108.774 294.61 108.588 293.225 108.216 292.068C107.885 290.869 107.348 289.898 106.604 289.154C105.942 288.534 105.136 288.079 104.186 287.79C103.235 287.459 102.16 287.294 100.962 287.294C98.2751 287.294 96.2084 288.017 94.7618 289.464C93.3151 290.869 92.5918 293.184 92.5918 296.408V302.918C92.5918 304.241 92.7778 305.439 93.1498 306.514C93.5218 307.589 94.0384 308.477 94.6998 309.18C95.5264 310.007 96.6011 310.627 97.9238 311.04C99.2878 311.412 100.858 311.598 102.636 311.598C104.206 311.598 105.55 311.515 106.666 311.35C107.823 311.185 108.898 310.937 109.89 310.606C110.882 310.275 111.894 309.862 112.928 309.366H113.858C113.858 310.027 113.858 310.709 113.858 311.412C113.858 312.115 113.858 312.817 113.858 313.52C113.858 313.603 113.837 313.685 113.796 313.768C113.754 313.851 113.692 313.933 113.61 314.016C113.196 314.429 112.432 314.843 111.316 315.256C110.241 315.669 108.918 316 107.348 316.248C105.818 316.537 104.165 316.682 102.388 316.682C100.032 316.682 97.8824 316.393 95.9398 315.814C94.0384 315.235 92.4058 314.367 91.0418 313.21C89.7191 312.053 88.7064 310.627 88.0038 308.932C87.3011 307.196 86.9498 305.191 86.9498 302.918V296.47C86.9498 294.073 87.3011 291.985 88.0038 290.208C88.7478 288.431 89.7604 286.963 91.0418 285.806C92.3231 284.649 93.8111 283.781 95.5058 283.202C97.2004 282.623 99.0191 282.334 100.962 282.334ZM169.807 316C168.898 316 168.051 316 167.265 316C166.521 316 165.695 316 164.785 316C164.661 316 164.537 315.979 164.413 315.938C164.331 315.855 164.248 315.773 164.165 315.69C164.124 315.607 164.103 315.483 164.103 315.318C164.103 312.797 164.103 310.296 164.103 307.816C164.103 305.295 164.103 302.794 164.103 300.314C164.103 297.793 164.103 295.271 164.103 292.75C164.103 291.055 163.69 289.815 162.863 289.03C162.078 288.203 160.941 287.79 159.453 287.79C158.585 287.79 157.697 287.935 156.787 288.224C155.878 288.472 154.969 288.865 154.059 289.402C153.15 289.939 152.22 290.621 151.269 291.448C150.36 292.275 149.43 293.267 148.479 294.424V288.534H150.339C151.29 287.294 152.303 286.219 153.377 285.31C154.493 284.359 155.692 283.636 156.973 283.14C158.255 282.603 159.619 282.334 161.065 282.334C162.471 282.334 163.711 282.561 164.785 283.016C165.901 283.471 166.811 284.111 167.513 284.938C168.257 285.765 168.815 286.757 169.187 287.914C169.601 289.03 169.807 290.27 169.807 291.634C169.807 293.618 169.807 295.602 169.807 297.586C169.807 299.57 169.807 301.575 169.807 303.6C169.807 305.584 169.807 307.589 169.807 309.614C169.807 310.689 169.807 311.763 169.807 312.838C169.807 313.871 169.807 314.925 169.807 316ZM149.409 316C148.831 316 148.273 316 147.735 316C147.198 316 146.661 316 146.123 316C145.586 316 145.007 316 144.387 316C144.263 316 144.16 316 144.077 316C143.995 315.959 143.912 315.917 143.829 315.876C143.788 315.793 143.747 315.711 143.705 315.628C143.705 315.545 143.705 315.442 143.705 315.318C143.705 313.127 143.705 310.937 143.705 308.746C143.705 306.555 143.705 304.385 143.705 302.236C143.705 300.087 143.705 297.917 143.705 295.726C143.705 293.535 143.705 291.345 143.705 289.154C143.705 287.831 143.705 286.653 143.705 285.62C143.705 284.545 143.705 283.677 143.705 283.016C144.367 283.016 144.966 283.016 145.503 283.016C146.082 283.016 146.619 283.016 147.115 283.016C147.653 283.016 148.19 283.016 148.727 283.016C148.893 283.016 149.017 283.057 149.099 283.14C149.182 283.181 149.244 283.243 149.285 283.326C149.368 283.409 149.409 283.533 149.409 283.698C149.409 287.253 149.409 290.828 149.409 294.424C149.409 298.02 149.409 301.616 149.409 305.212C149.409 308.808 149.409 312.404 149.409 316ZM193.901 282.334C196.34 282.334 198.572 282.851 200.597 283.884C202.623 284.876 204.235 286.405 205.433 288.472C206.673 290.497 207.293 293.101 207.293 296.284V300.81C207.293 300.934 207.252 301.058 207.169 301.182C207.128 301.265 207.066 301.347 206.983 301.43C206.901 301.471 206.777 301.492 206.611 301.492H190.553C189.851 301.492 189.148 301.492 188.445 301.492C187.743 301.492 187.061 301.492 186.399 301.492H184.539L183.733 297.462H201.713C201.713 297.255 201.713 297.049 201.713 296.842C201.713 296.635 201.713 296.429 201.713 296.222C201.713 294.61 201.527 293.225 201.155 292.068C200.825 290.869 200.287 289.898 199.543 289.154C198.882 288.534 198.076 288.079 197.125 287.79C196.175 287.459 195.1 287.294 193.901 287.294C191.215 287.294 189.148 288.017 187.701 289.464C186.255 290.869 185.531 293.184 185.531 296.408V302.918C185.531 304.241 185.717 305.439 186.089 306.514C186.461 307.589 186.978 308.477 187.639 309.18C188.466 310.007 189.541 310.627 190.863 311.04C192.227 311.412 193.798 311.598 195.575 311.598C197.146 311.598 198.489 311.515 199.605 311.35C200.763 311.185 201.837 310.937 202.829 310.606C203.821 310.275 204.834 309.862 205.867 309.366H206.797C206.797 310.027 206.797 310.709 206.797 311.412C206.797 312.115 206.797 312.817 206.797 313.52C206.797 313.603 206.777 313.685 206.735 313.768C206.694 313.851 206.632 313.933 206.549 314.016C206.136 314.429 205.371 314.843 204.255 315.256C203.181 315.669 201.858 316 200.287 316.248C198.758 316.537 197.105 316.682 195.327 316.682C192.971 316.682 190.822 316.393 188.879 315.814C186.978 315.235 185.345 314.367 183.981 313.21C182.659 312.053 181.646 310.627 180.943 308.932C180.241 307.196 179.889 305.191 179.889 302.918V296.47C179.889 294.073 180.241 291.985 180.943 290.208C181.687 288.431 182.7 286.963 183.981 285.806C185.263 284.649 186.751 283.781 188.445 283.202C190.14 282.623 191.959 282.334 193.901 282.334ZM215.172 283.016C216.164 283.016 217.156 283.016 218.148 283.016C219.181 283.016 220.194 283.016 221.186 283.016C221.475 283.016 221.703 283.099 221.868 283.264C222.075 283.388 222.261 283.553 222.426 283.76C223.749 285.951 225.071 288.162 226.394 290.394C227.758 292.585 229.081 294.775 230.362 296.966L232.47 298.144C234.454 301.12 236.438 304.096 238.422 307.072C240.406 310.048 242.39 313.024 244.374 316C243.878 316 243.382 316 242.886 316C242.431 316 241.956 316 241.46 316C241.005 316 240.551 316 240.096 316C239.683 316 239.29 316 238.918 316C238.422 316 238.05 315.938 237.802 315.814C237.595 315.69 237.347 315.401 237.058 314.946C236.438 314.037 235.653 312.817 234.702 311.288C233.793 309.759 232.821 308.147 231.788 306.452C230.796 304.716 229.825 303.083 228.874 301.554L226.828 300.376C224.885 297.483 222.943 294.61 221 291.758C219.099 288.865 217.156 285.951 215.172 283.016ZM226.952 297.71L231.168 302.98H228.688C227.944 304.427 227.159 305.873 226.332 307.32C225.547 308.767 224.741 310.213 223.914 311.66C223.087 313.107 222.24 314.553 221.372 316L215.978 316.062C215.771 316.062 215.606 316 215.482 315.876C215.358 315.752 215.296 315.587 215.296 315.38C215.296 315.256 215.337 315.111 215.42 314.946C215.503 314.781 215.627 314.574 215.792 314.326C217.652 311.557 219.512 308.787 221.372 306.018C223.232 303.249 225.092 300.479 226.952 297.71ZM242.948 283.016C243.155 283.016 243.32 283.078 243.444 283.202C243.609 283.285 243.692 283.429 243.692 283.636C243.692 283.719 243.671 283.822 243.63 283.946C243.589 284.029 243.527 284.153 243.444 284.318C241.625 287.046 239.786 289.795 237.926 292.564C236.066 295.333 234.206 298.103 232.346 300.872L228.378 295.85H230.672C231.375 294.403 232.077 292.977 232.78 291.572C233.524 290.125 234.289 288.699 235.074 287.294C235.901 285.847 236.707 284.421 237.492 283.016H242.948ZM251.108 283.016H274.482C274.689 283.016 274.854 283.078 274.978 283.202C275.102 283.326 275.164 283.491 275.164 283.698C275.164 284.235 275.164 284.752 275.164 285.248C275.164 285.744 275.164 286.24 275.164 286.736C275.164 287.232 275.164 287.769 275.164 288.348H251.79C251.707 288.348 251.625 288.327 251.542 288.286C251.459 288.245 251.377 288.203 251.294 288.162C251.253 288.079 251.211 287.997 251.17 287.914C251.129 287.831 251.108 287.749 251.108 287.666C251.108 287.087 251.108 286.55 251.108 286.054C251.108 285.558 251.108 285.062 251.108 284.566C251.108 284.07 251.108 283.553 251.108 283.016ZM275.164 310.606C275.164 311.391 275.164 312.177 275.164 312.962C275.164 313.747 275.164 314.533 275.164 315.318C275.164 315.525 275.102 315.69 274.978 315.814C274.895 315.938 274.73 316 274.482 316C274.11 316 273.717 316 273.304 316C272.932 316 272.539 316 272.126 316C271.754 316 271.361 316 270.948 316C270.576 316 270.204 316 269.832 316C267.807 316 266.029 315.773 264.5 315.318C262.971 314.822 261.669 314.078 260.594 313.086C259.519 312.053 258.713 310.751 258.176 309.18C257.639 307.609 257.37 305.708 257.37 303.476C257.37 301.451 257.37 299.425 257.37 297.4C257.37 295.375 257.37 293.349 257.37 291.324C257.37 289.299 257.37 287.273 257.37 285.248C257.37 283.181 257.37 281.135 257.37 279.11C257.37 277.994 257.37 276.899 257.37 275.824C257.37 274.749 257.37 273.675 257.37 272.6C258.238 272.6 259.085 272.6 259.912 272.6C260.739 272.6 261.565 272.6 262.392 272.6C262.516 272.6 262.619 272.641 262.702 272.724C262.826 272.765 262.909 272.848 262.95 272.972C263.033 273.055 263.074 273.158 263.074 273.282C263.074 275.762 263.074 278.242 263.074 280.722C263.074 283.161 263.074 285.62 263.074 288.1C263.074 290.58 263.074 293.06 263.074 295.54C263.074 298.02 263.074 300.5 263.074 302.98C263.074 304.468 263.219 305.708 263.508 306.7C263.797 307.692 264.252 308.498 264.872 309.118C265.451 309.655 266.153 310.048 266.98 310.296C267.848 310.503 268.881 310.606 270.08 310.606C270.576 310.606 271.051 310.606 271.506 310.606C272.002 310.606 272.477 310.606 272.932 310.606C273.387 310.606 273.862 310.606 274.358 310.606H275.164ZM304.85 310.73C304.85 309.862 304.994 309.077 305.284 308.374C305.573 307.63 306.007 306.989 306.586 306.452C307.206 305.873 307.95 305.398 308.818 305.026V303.476L312.104 304.716C311.608 305.336 311.215 306.039 310.926 306.824C310.678 307.609 310.554 308.436 310.554 309.304C310.554 310.089 310.74 310.647 311.112 310.978C311.484 311.309 312.021 311.474 312.724 311.474H321.9C324.173 311.474 326.054 311.867 327.542 312.652C329.071 313.437 330.208 314.512 330.952 315.876C331.696 317.24 332.068 318.831 332.068 320.65V322.448C332.068 323.729 331.84 324.928 331.386 326.044C330.931 327.16 330.228 328.111 329.278 328.896C328.368 329.723 327.252 330.363 325.93 330.818C324.607 331.273 323.098 331.5 321.404 331.5H309.686C307.536 331.5 305.738 331.169 304.292 330.508C302.886 329.888 301.812 328.999 301.068 327.842C300.365 326.685 300.014 325.341 300.014 323.812V322.758C300.014 321.477 300.262 320.34 300.758 319.348C301.254 318.356 301.977 317.509 302.928 316.806C303.878 316.103 304.994 315.649 306.276 315.442V313.458L310.306 316.124C309.148 316.289 308.218 316.641 307.516 317.178C306.854 317.715 306.379 318.356 306.09 319.1C305.8 319.844 305.656 320.629 305.656 321.456V322.944C305.656 323.729 305.821 324.432 306.152 325.052C306.482 325.672 307.02 326.147 307.764 326.478C308.508 326.85 309.479 327.036 310.678 327.036H321.404C322.313 327.036 323.078 326.891 323.698 326.602C324.359 326.354 324.896 326.023 325.31 325.61C325.723 325.197 326.012 324.721 326.178 324.184C326.343 323.647 326.426 323.047 326.426 322.386V320.96C326.426 319.596 326.054 318.501 325.31 317.674C324.566 316.889 323.264 316.496 321.404 316.496H310.74C309.665 316.496 308.673 316.269 307.764 315.814C306.896 315.318 306.193 314.636 305.656 313.768C305.118 312.9 304.85 311.887 304.85 310.73ZM319.048 287.17L324.256 286.922V288.286C325.661 288.865 326.674 289.712 327.294 290.828C327.914 291.903 328.224 293.122 328.224 294.486V295.788C328.224 297.689 327.707 299.363 326.674 300.81C325.64 302.215 324.132 303.311 322.148 304.096C320.164 304.84 317.766 305.212 314.956 305.212C312.145 305.212 309.727 304.799 307.702 303.972C305.718 303.145 304.188 301.947 303.114 300.376C302.08 298.805 301.564 296.966 301.564 294.858V293.37C301.564 291.138 302.08 289.237 303.114 287.666C304.188 286.054 305.718 284.814 307.702 283.946C309.727 283.037 312.145 282.582 314.956 282.582C317.766 282.582 320.577 282.582 323.388 282.582C326.24 282.582 329.05 282.582 331.82 282.582C331.82 283.285 331.82 283.987 331.82 284.69C331.82 285.393 331.82 286.095 331.82 286.798C331.82 286.963 331.758 287.129 331.634 287.294C331.51 287.418 331.344 287.48 331.138 287.48C329.36 287.48 327.583 287.48 325.806 287.48C324.07 287.48 322.313 287.48 320.536 287.48C318.758 287.48 316.898 287.48 314.956 287.48C312.517 287.48 310.595 287.997 309.19 289.03C307.784 290.063 307.082 291.551 307.082 293.494V294.858C307.082 295.643 307.206 296.346 307.454 296.966C307.702 297.586 308.074 298.144 308.57 298.64C309.231 299.26 310.099 299.756 311.174 300.128C312.248 300.5 313.509 300.686 314.956 300.686C317.436 300.686 319.337 300.169 320.66 299.136C322.024 298.103 322.706 296.635 322.706 294.734V293.246C322.706 292.419 322.582 291.675 322.334 291.014C322.127 290.311 321.755 289.65 321.218 289.03C320.722 288.369 319.998 287.749 319.048 287.17ZM351.929 282.334C354.367 282.334 356.599 282.851 358.625 283.884C360.65 284.876 362.262 286.405 363.461 288.472C364.701 290.497 365.321 293.101 365.321 296.284V300.81C365.321 300.934 365.279 301.058 365.197 301.182C365.155 301.265 365.093 301.347 365.011 301.43C364.928 301.471 364.804 301.492 364.639 301.492H348.581C347.878 301.492 347.175 301.492 346.473 301.492C345.77 301.492 345.088 301.492 344.427 301.492H342.567L341.761 297.462H359.741C359.741 297.255 359.741 297.049 359.741 296.842C359.741 296.635 359.741 296.429 359.741 296.222C359.741 294.61 359.555 293.225 359.183 292.068C358.852 290.869 358.315 289.898 357.571 289.154C356.909 288.534 356.103 288.079 355.153 287.79C354.202 287.459 353.127 287.294 351.929 287.294C349.242 287.294 347.175 288.017 345.729 289.464C344.282 290.869 343.559 293.184 343.559 296.408V302.918C343.559 304.241 343.745 305.439 344.117 306.514C344.489 307.589 345.005 308.477 345.667 309.18C346.493 310.007 347.568 310.627 348.891 311.04C350.255 311.412 351.825 311.598 353.603 311.598C355.173 311.598 356.517 311.515 357.633 311.35C358.79 311.185 359.865 310.937 360.857 310.606C361.849 310.275 362.861 309.862 363.895 309.366H364.825C364.825 310.027 364.825 310.709 364.825 311.412C364.825 312.115 364.825 312.817 364.825 313.52C364.825 313.603 364.804 313.685 364.763 313.768C364.721 313.851 364.659 313.933 364.577 314.016C364.163 314.429 363.399 314.843 362.283 315.256C361.208 315.669 359.885 316 358.315 316.248C356.785 316.537 355.132 316.682 353.355 316.682C350.999 316.682 348.849 316.393 346.907 315.814C345.005 315.235 343.373 314.367 342.009 313.21C340.686 312.053 339.673 310.627 338.971 308.932C338.268 307.196 337.917 305.191 337.917 302.918V296.47C337.917 294.073 338.268 291.985 338.971 290.208C339.715 288.431 340.727 286.963 342.009 285.806C343.29 284.649 344.778 283.781 346.473 283.202C348.167 282.623 349.986 282.334 351.929 282.334ZM402.186 316C401.277 316 400.43 316 399.644 316C398.9 316 398.074 316 397.164 316C397.04 316 396.916 315.979 396.792 315.938C396.71 315.855 396.627 315.773 396.544 315.69C396.503 315.607 396.482 315.483 396.482 315.318C396.482 312.797 396.482 310.296 396.482 307.816C396.482 305.295 396.482 302.794 396.482 300.314C396.482 297.793 396.482 295.271 396.482 292.75C396.482 291.055 396.069 289.815 395.242 289.03C394.457 288.203 393.32 287.79 391.832 287.79C390.964 287.79 390.076 287.935 389.166 288.224C388.257 288.472 387.348 288.865 386.438 289.402C385.529 289.939 384.599 290.621 383.648 291.448C382.739 292.275 381.809 293.267 380.858 294.424V288.534H382.718C383.669 287.294 384.682 286.219 385.756 285.31C386.872 284.359 388.071 283.636 389.352 283.14C390.634 282.603 391.998 282.334 393.444 282.334C394.85 282.334 396.09 282.561 397.164 283.016C398.28 283.471 399.19 284.111 399.892 284.938C400.636 285.765 401.194 286.757 401.566 287.914C401.98 289.03 402.186 290.27 402.186 291.634C402.186 293.618 402.186 295.602 402.186 297.586C402.186 299.57 402.186 301.575 402.186 303.6C402.186 305.584 402.186 307.589 402.186 309.614C402.186 310.689 402.186 311.763 402.186 312.838C402.186 313.871 402.186 314.925 402.186 316ZM381.788 316C381.21 316 380.652 316 380.114 316C379.577 316 379.04 316 378.502 316C377.965 316 377.386 316 376.766 316C376.642 316 376.539 316 376.456 316C376.374 315.959 376.291 315.917 376.208 315.876C376.167 315.793 376.126 315.711 376.084 315.628C376.084 315.545 376.084 315.442 376.084 315.318C376.084 313.127 376.084 310.937 376.084 308.746C376.084 306.555 376.084 304.385 376.084 302.236C376.084 300.087 376.084 297.917 376.084 295.726C376.084 293.535 376.084 291.345 376.084 289.154C376.084 287.831 376.084 286.653 376.084 285.62C376.084 284.545 376.084 283.677 376.084 283.016C376.746 283.016 377.345 283.016 377.882 283.016C378.461 283.016 378.998 283.016 379.494 283.016C380.032 283.016 380.569 283.016 381.106 283.016C381.272 283.016 381.396 283.057 381.478 283.14C381.561 283.181 381.623 283.243 381.664 283.326C381.747 283.409 381.788 283.533 381.788 283.698C381.788 287.253 381.788 290.828 381.788 294.424C381.788 298.02 381.788 301.616 381.788 305.212C381.788 308.808 381.788 312.404 381.788 316ZM426.28 282.334C428.719 282.334 430.951 282.851 432.976 283.884C435.001 284.876 436.613 286.405 437.812 288.472C439.052 290.497 439.672 293.101 439.672 296.284V300.81C439.672 300.934 439.631 301.058 439.548 301.182C439.507 301.265 439.445 301.347 439.362 301.43C439.279 301.471 439.155 301.492 438.99 301.492H422.932C422.229 301.492 421.527 301.492 420.824 301.492C420.121 301.492 419.439 301.492 418.778 301.492H416.918L416.112 297.462H434.092C434.092 297.255 434.092 297.049 434.092 296.842C434.092 296.635 434.092 296.429 434.092 296.222C434.092 294.61 433.906 293.225 433.534 292.068C433.203 290.869 432.666 289.898 431.922 289.154C431.261 288.534 430.455 288.079 429.504 287.79C428.553 287.459 427.479 287.294 426.28 287.294C423.593 287.294 421.527 288.017 420.08 289.464C418.633 290.869 417.91 293.184 417.91 296.408V302.918C417.91 304.241 418.096 305.439 418.468 306.514C418.84 307.589 419.357 308.477 420.018 309.18C420.845 310.007 421.919 310.627 423.242 311.04C424.606 311.412 426.177 311.598 427.954 311.598C429.525 311.598 430.868 311.515 431.984 311.35C433.141 311.185 434.216 310.937 435.208 310.606C436.2 310.275 437.213 309.862 438.246 309.366H439.176C439.176 310.027 439.176 310.709 439.176 311.412C439.176 312.115 439.176 312.817 439.176 313.52C439.176 313.603 439.155 313.685 439.114 313.768C439.073 313.851 439.011 313.933 438.928 314.016C438.515 314.429 437.75 314.843 436.634 315.256C435.559 315.669 434.237 316 432.666 316.248C431.137 316.537 429.483 316.682 427.706 316.682C425.35 316.682 423.201 316.393 421.258 315.814C419.357 315.235 417.724 314.367 416.36 313.21C415.037 312.053 414.025 310.627 413.322 308.932C412.619 307.196 412.268 305.191 412.268 302.918V296.47C412.268 294.073 412.619 291.985 413.322 290.208C414.066 288.431 415.079 286.963 416.36 285.806C417.641 284.649 419.129 283.781 420.824 283.202C422.519 282.623 424.337 282.334 426.28 282.334ZM455.396 288.844H457.442C458.269 287.315 459.116 286.075 459.984 285.124C460.852 284.173 461.803 283.491 462.836 283.078C463.869 282.623 465.006 282.396 466.246 282.396C466.99 282.396 467.61 282.458 468.106 282.582C468.602 282.665 468.995 282.789 469.284 282.954C469.491 283.037 469.615 283.161 469.656 283.326C469.739 283.45 469.78 283.636 469.78 283.884C469.78 284.256 469.78 284.649 469.78 285.062C469.78 285.475 469.78 285.889 469.78 286.302C469.78 286.674 469.78 287.067 469.78 287.48C469.78 287.893 469.78 288.307 469.78 288.72H468.85C468.395 288.596 467.92 288.493 467.424 288.41C466.928 288.327 466.329 288.286 465.626 288.286C464.303 288.286 463.084 288.534 461.968 289.03C460.852 289.485 459.757 290.249 458.682 291.324C457.649 292.357 456.553 293.742 455.396 295.478V288.844ZM456.388 316C455.809 316 455.231 316 454.652 316C454.073 316 453.495 316 452.916 316C452.337 316 451.738 316 451.118 316C450.994 316 450.891 316 450.808 316C450.725 315.959 450.643 315.917 450.56 315.876C450.519 315.793 450.477 315.711 450.436 315.628C450.436 315.545 450.436 315.442 450.436 315.318C450.436 314.45 450.436 313.272 450.436 311.784C450.436 310.296 450.436 308.622 450.436 306.762C450.436 304.861 450.436 302.897 450.436 300.872C450.436 298.805 450.436 296.78 450.436 294.796C450.436 292.771 450.436 290.89 450.436 289.154C450.436 287.831 450.436 286.653 450.436 285.62C450.436 284.545 450.436 283.677 450.436 283.016C451.097 283.016 451.717 283.016 452.296 283.016C452.916 283.016 453.495 283.016 454.032 283.016C454.611 283.016 455.169 283.016 455.706 283.016C455.871 283.016 455.995 283.057 456.078 283.14C456.161 283.181 456.223 283.243 456.264 283.326C456.347 283.409 456.388 283.533 456.388 283.698C456.388 284.773 456.388 286.219 456.388 288.038C456.388 289.857 456.388 291.923 456.388 294.238C456.388 296.553 456.388 298.991 456.388 301.554C456.388 304.075 456.388 306.576 456.388 309.056C456.388 311.536 456.388 313.851 456.388 316ZM501.519 294.238C501.519 295.395 501.519 296.553 501.519 297.71C501.519 298.867 501.519 300.045 501.519 301.244C501.519 302.401 501.519 303.559 501.519 304.716C501.519 305.873 501.519 307.031 501.519 308.188C501.519 308.725 501.56 309.18 501.643 309.552C501.767 309.924 501.932 310.213 502.139 310.42C502.346 310.627 502.594 310.771 502.883 310.854C503.172 310.937 503.524 310.978 503.937 310.978C504.02 310.978 504.102 310.978 504.185 310.978C504.309 310.978 504.433 310.978 504.557 310.978H505.487C505.487 311.722 505.487 312.445 505.487 313.148C505.487 313.851 505.487 314.574 505.487 315.318C505.487 315.566 505.425 315.752 505.301 315.876C505.177 315.959 505.012 316 504.805 316C504.598 316 504.268 316 503.813 316C503.4 316 503.007 316 502.635 316C501.684 316 500.796 315.855 499.969 315.566C499.142 315.277 498.419 314.843 497.799 314.264C497.179 313.685 496.704 312.983 496.373 312.156C496.042 311.288 495.877 310.275 495.877 309.118C495.877 307.671 495.877 306.183 495.877 304.654C495.877 303.083 495.877 301.575 495.877 300.128C495.877 299.467 495.877 298.805 495.877 298.144C495.877 297.483 495.877 296.821 495.877 296.16C495.877 295.499 495.877 294.837 495.877 294.176C495.877 292.523 495.629 291.241 495.133 290.332C494.678 289.381 493.893 288.72 492.777 288.348C491.661 287.935 490.152 287.728 488.251 287.728C487.052 287.728 485.895 287.79 484.779 287.914C483.663 288.038 482.568 288.245 481.493 288.534C480.46 288.782 479.406 289.113 478.331 289.526H477.401C477.401 288.782 477.401 288.038 477.401 287.294C477.401 286.55 477.401 285.806 477.401 285.062C477.401 284.938 477.422 284.835 477.463 284.752C477.504 284.669 477.546 284.607 477.587 284.566C477.794 284.318 478.414 284.029 479.447 283.698C480.522 283.367 481.824 283.078 483.353 282.83C484.924 282.541 486.556 282.396 488.251 282.396C490.566 282.396 492.55 282.623 494.203 283.078C495.898 283.491 497.282 284.173 498.357 285.124C499.432 286.075 500.217 287.294 500.713 288.782C501.25 290.27 501.519 292.089 501.519 294.238ZM480.749 307.196C480.749 308.601 481.142 309.676 481.927 310.42C482.754 311.123 483.973 311.474 485.585 311.474C486.99 311.474 488.313 311.288 489.553 310.916C490.834 310.544 492.074 309.924 493.273 309.056C494.472 308.147 495.712 306.907 496.993 305.336V310.73H495.195C494.492 312.011 493.624 313.086 492.591 313.954C491.599 314.822 490.421 315.483 489.057 315.938C487.693 316.393 486.184 316.62 484.531 316.62C482.588 316.62 480.914 316.269 479.509 315.566C478.104 314.822 477.008 313.809 476.223 312.528C475.438 311.205 475.045 309.635 475.045 307.816V305.832C475.045 304.468 475.272 303.249 475.727 302.174C476.182 301.058 476.822 300.128 477.649 299.384C478.517 298.64 479.55 298.061 480.749 297.648C481.948 297.235 483.291 297.028 484.779 297.028C486.226 297.028 487.61 297.028 488.933 297.028C490.297 297.028 491.64 297.028 492.963 297.028C494.286 297.028 495.629 297.028 496.993 297.028C497.365 297.028 497.613 297.255 497.737 297.71C497.902 298.123 498.006 298.64 498.047 299.26C498.088 299.88 498.109 300.479 498.109 301.058C496.58 301.058 495.154 301.058 493.831 301.058C492.55 301.058 491.248 301.058 489.925 301.058C488.602 301.058 487.156 301.058 485.585 301.058C484.717 301.058 483.973 301.161 483.353 301.368C482.774 301.533 482.278 301.843 481.865 302.298C481.493 302.629 481.204 303.063 480.997 303.6C480.832 304.096 480.749 304.675 480.749 305.336V307.196ZM508.856 283.016H532.23C532.437 283.016 532.602 283.078 532.726 283.202C532.85 283.326 532.912 283.491 532.912 283.698C532.912 284.235 532.912 284.752 532.912 285.248C532.912 285.744 532.912 286.24 532.912 286.736C532.912 287.232 532.912 287.769 532.912 288.348H509.538C509.455 288.348 509.373 288.327 509.29 288.286C509.207 288.245 509.125 288.203 509.042 288.162C509.001 288.079 508.959 287.997 508.918 287.914C508.877 287.831 508.856 287.749 508.856 287.666C508.856 287.087 508.856 286.55 508.856 286.054C508.856 285.558 508.856 285.062 508.856 284.566C508.856 284.07 508.856 283.553 508.856 283.016ZM532.912 310.606C532.912 311.391 532.912 312.177 532.912 312.962C532.912 313.747 532.912 314.533 532.912 315.318C532.912 315.525 532.85 315.69 532.726 315.814C532.643 315.938 532.478 316 532.23 316C531.858 316 531.465 316 531.052 316C530.68 316 530.287 316 529.874 316C529.502 316 529.109 316 528.696 316C528.324 316 527.952 316 527.58 316C525.555 316 523.777 315.773 522.248 315.318C520.719 314.822 519.417 314.078 518.342 313.086C517.267 312.053 516.461 310.751 515.924 309.18C515.387 307.609 515.118 305.708 515.118 303.476C515.118 301.451 515.118 299.425 515.118 297.4C515.118 295.375 515.118 293.349 515.118 291.324C515.118 289.299 515.118 287.273 515.118 285.248C515.118 283.181 515.118 281.135 515.118 279.11C515.118 277.994 515.118 276.899 515.118 275.824C515.118 274.749 515.118 273.675 515.118 272.6C515.986 272.6 516.833 272.6 517.66 272.6C518.487 272.6 519.313 272.6 520.14 272.6C520.264 272.6 520.367 272.641 520.45 272.724C520.574 272.765 520.657 272.848 520.698 272.972C520.781 273.055 520.822 273.158 520.822 273.282C520.822 275.762 520.822 278.242 520.822 280.722C520.822 283.161 520.822 285.62 520.822 288.1C520.822 290.58 520.822 293.06 520.822 295.54C520.822 298.02 520.822 300.5 520.822 302.98C520.822 304.468 520.967 305.708 521.256 306.7C521.545 307.692 522 308.498 522.62 309.118C523.199 309.655 523.901 310.048 524.728 310.296C525.596 310.503 526.629 310.606 527.828 310.606C528.324 310.606 528.799 310.606 529.254 310.606C529.75 310.606 530.225 310.606 530.68 310.606C531.135 310.606 531.61 310.606 532.106 310.606H532.912ZM544.907 315.318C544.907 313.789 544.907 312.115 544.907 310.296C544.907 308.477 544.907 306.597 544.907 304.654C544.907 302.711 544.907 300.769 544.907 298.826C544.907 296.883 544.907 295.023 544.907 293.246C544.907 291.427 544.907 289.733 544.907 288.162H544.039C543.708 288.162 543.336 288.162 542.923 288.162C542.551 288.162 542.158 288.162 541.745 288.162C541.332 288.162 540.918 288.162 540.505 288.162C540.133 288.162 539.74 288.162 539.327 288.162C539.162 288.162 538.996 288.1 538.831 287.976C538.707 287.852 538.645 287.687 538.645 287.48C538.645 286.777 538.645 286.054 538.645 285.31C538.645 284.525 538.645 283.76 538.645 283.016C539.348 283.016 540.071 283.016 540.815 283.016C541.6 283.016 542.406 283.016 543.233 283.016C544.06 283.016 544.866 283.016 545.651 283.016C546.436 283.016 547.18 283.016 547.883 283.016C548.627 283.016 549.309 283.016 549.929 283.016C550.053 283.016 550.156 283.057 550.239 283.14C550.363 283.181 550.446 283.264 550.487 283.388C550.57 283.471 550.611 283.574 550.611 283.698C550.611 285.806 550.611 287.997 550.611 290.27C550.611 292.502 550.611 294.755 550.611 297.028C550.611 299.301 550.611 301.554 550.611 303.786C550.611 306.018 550.611 308.188 550.611 310.296C550.611 310.916 550.611 311.557 550.611 312.218C550.611 312.838 550.611 313.458 550.611 314.078C550.611 314.698 550.611 315.339 550.611 316C549.702 316 548.854 316 548.069 316C547.325 316 546.498 316 545.589 316C545.424 316 545.258 315.938 545.093 315.814C544.969 315.649 544.907 315.483 544.907 315.318ZM543.791 268.012C544.37 268.012 544.948 268.012 545.527 268.012C546.147 268.012 546.746 268.012 547.325 268.012C547.945 268.012 548.544 268.012 549.123 268.012C549.743 268.012 550.342 268.012 550.921 268.012C551.128 268.012 551.293 268.074 551.417 268.198C551.541 268.322 551.603 268.487 551.603 268.694V274.77C551.024 274.77 550.425 274.77 549.805 274.77C549.226 274.77 548.627 274.77 548.007 274.77C547.428 274.77 546.829 274.77 546.209 274.77C545.63 274.77 545.052 274.77 544.473 274.77C544.266 274.77 544.101 274.708 543.977 274.584C543.853 274.46 543.791 274.295 543.791 274.088V268.012ZM576.069 282.334C578.177 282.334 580.099 282.685 581.835 283.388C583.571 284.049 585.059 284.979 586.299 286.178C587.58 287.377 588.551 288.803 589.213 290.456C589.874 292.109 590.205 293.928 590.205 295.912V302.794C590.205 305.522 589.585 307.94 588.345 310.048C587.146 312.115 585.472 313.747 583.323 314.946C581.173 316.103 578.755 316.682 576.069 316.682C573.961 316.682 572.039 316.351 570.303 315.69C568.567 315.029 567.058 314.099 565.777 312.9C564.537 311.66 563.586 310.213 562.925 308.56C562.263 306.907 561.933 305.088 561.933 303.104V296.222C561.933 293.453 562.532 291.035 563.731 288.968C564.971 286.901 566.665 285.289 568.815 284.132C570.964 282.933 573.382 282.334 576.069 282.334ZM576.379 287.542C574.477 287.542 572.865 287.935 571.543 288.72C570.261 289.505 569.269 290.559 568.567 291.882C567.905 293.205 567.575 294.713 567.575 296.408V302.67C567.575 304.034 567.781 305.274 568.195 306.39C568.649 307.465 569.249 308.395 569.993 309.18C570.695 309.883 571.522 310.441 572.473 310.854C573.465 311.267 574.56 311.474 575.759 311.474C577.66 311.474 579.251 311.081 580.533 310.296C581.855 309.469 582.847 308.395 583.509 307.072C584.211 305.749 584.563 304.261 584.563 302.608V296.346C584.563 294.899 584.356 293.618 583.943 292.502C583.571 291.386 582.992 290.456 582.207 289.712C581.545 289.009 580.719 288.472 579.727 288.1C578.735 287.728 577.619 287.542 576.379 287.542ZM626.513 316C625.603 316 624.756 316 623.971 316C623.227 316 622.4 316 621.491 316C621.367 316 621.243 315.979 621.119 315.938C621.036 315.855 620.953 315.773 620.871 315.69C620.829 315.607 620.809 315.483 620.809 315.318C620.809 312.797 620.809 310.296 620.809 307.816C620.809 305.295 620.809 302.794 620.809 300.314C620.809 297.793 620.809 295.271 620.809 292.75C620.809 291.055 620.395 289.815 619.569 289.03C618.783 288.203 617.647 287.79 616.159 287.79C615.291 287.79 614.402 287.935 613.493 288.224C612.583 288.472 611.674 288.865 610.765 289.402C609.855 289.939 608.925 290.621 607.975 291.448C607.065 292.275 606.135 293.267 605.185 294.424V288.534H607.045C607.995 287.294 609.008 286.219 610.083 285.31C611.199 284.359 612.397 283.636 613.679 283.14C614.96 282.603 616.324 282.334 617.771 282.334C619.176 282.334 620.416 282.561 621.491 283.016C622.607 283.471 623.516 284.111 624.219 284.938C624.963 285.765 625.521 286.757 625.893 287.914C626.306 289.03 626.513 290.27 626.513 291.634C626.513 293.618 626.513 295.602 626.513 297.586C626.513 299.57 626.513 301.575 626.513 303.6C626.513 305.584 626.513 307.589 626.513 309.614C626.513 310.689 626.513 311.763 626.513 312.838C626.513 313.871 626.513 314.925 626.513 316ZM606.115 316C605.536 316 604.978 316 604.441 316C603.903 316 603.366 316 602.829 316C602.291 316 601.713 316 601.093 316C600.969 316 600.865 316 600.783 316C600.7 315.959 600.617 315.917 600.535 315.876C600.493 315.793 600.452 315.711 600.411 315.628C600.411 315.545 600.411 315.442 600.411 315.318C600.411 313.127 600.411 310.937 600.411 308.746C600.411 306.555 600.411 304.385 600.411 302.236C600.411 300.087 600.411 297.917 600.411 295.726C600.411 293.535 600.411 291.345 600.411 289.154C600.411 287.831 600.411 286.653 600.411 285.62C600.411 284.545 600.411 283.677 600.411 283.016C601.072 283.016 601.671 283.016 602.209 283.016C602.787 283.016 603.325 283.016 603.821 283.016C604.358 283.016 604.895 283.016 605.433 283.016C605.598 283.016 605.722 283.057 605.805 283.14C605.887 283.181 605.949 283.243 605.991 283.326C606.073 283.409 606.115 283.533 606.115 283.698C606.115 287.253 606.115 290.828 606.115 294.424C606.115 298.02 606.115 301.616 606.115 305.212C606.115 308.808 606.115 312.404 606.115 316ZM32.6 356.334C34.708 356.334 36.63 356.685 38.366 357.388C40.102 358.049 41.59 358.979 42.83 360.178C44.1113 361.377 45.0827 362.803 45.744 364.456C46.4053 366.109 46.736 367.928 46.736 369.912V376.794C46.736 379.522 46.116 381.94 44.876 384.048C43.6773 386.115 42.0033 387.747 39.854 388.946C37.7047 390.103 35.2867 390.682 32.6 390.682C30.492 390.682 28.57 390.351 26.834 389.69C25.098 389.029 23.5893 388.099 22.308 386.9C21.068 385.66 20.1173 384.213 19.456 382.56C18.7947 380.907 18.464 379.088 18.464 377.104V370.222C18.464 367.453 19.0633 365.035 20.262 362.968C21.502 360.901 23.1967 359.289 25.346 358.132C27.4953 356.933 29.9133 356.334 32.6 356.334ZM32.91 361.542C31.0087 361.542 29.3967 361.935 28.074 362.72C26.7927 363.505 25.8007 364.559 25.098 365.882C24.4367 367.205 24.106 368.713 24.106 370.408V376.67C24.106 378.034 24.3127 379.274 24.726 380.39C25.1807 381.465 25.78 382.395 26.524 383.18C27.2267 383.883 28.0533 384.441 29.004 384.854C29.996 385.267 31.0913 385.474 32.29 385.474C34.1913 385.474 35.7827 385.081 37.064 384.296C38.3867 383.469 39.3787 382.395 40.04 381.072C40.7427 379.749 41.094 378.261 41.094 376.608V370.346C41.094 368.899 40.8873 367.618 40.474 366.502C40.102 365.386 39.5233 364.456 38.738 363.712C38.0767 363.009 37.25 362.472 36.258 362.1C35.266 361.728 34.15 361.542 32.91 361.542ZM53.4078 357.822H72.1318C72.2558 357.822 72.3591 357.863 72.4418 357.946C72.5658 357.987 72.6484 358.049 72.6898 358.132C72.7724 358.215 72.8138 358.339 72.8138 358.504C72.8138 359.248 72.8138 359.971 72.8138 360.674C72.8138 361.335 72.8138 362.059 72.8138 362.844H54.0898C53.9658 362.844 53.8418 362.823 53.7178 362.782C53.6351 362.699 53.5524 362.617 53.4698 362.534C53.4284 362.41 53.4078 362.286 53.4078 362.162C53.4078 361.377 53.4078 360.653 53.4078 359.992C53.4078 359.289 53.4078 358.566 53.4078 357.822ZM64.5058 389.318C64.5058 389.525 64.4438 389.69 64.3198 389.814C64.1958 389.938 64.0304 390 63.8238 390C62.9558 390 62.1084 390 61.2818 390C60.4964 390 59.6698 390 58.8018 390C58.8018 388.967 58.8018 387.954 58.8018 386.962C58.8018 385.929 58.8018 384.895 58.8018 383.862C58.8018 381.051 58.8018 378.468 58.8018 376.112C58.8018 373.756 58.8018 371.483 58.8018 369.292C58.8018 367.06 58.8018 364.766 58.8018 362.41C58.8018 360.013 58.8018 357.367 58.8018 354.474C58.8018 352.573 59.0498 350.878 59.5458 349.39C60.0418 347.902 60.7444 346.662 61.6538 345.67C62.5631 344.678 63.6791 343.934 65.0018 343.438C66.3658 342.901 67.8951 342.632 69.5898 342.632C70.5404 342.632 71.4084 342.694 72.1938 342.818C72.9791 342.942 73.6198 343.107 74.1158 343.314C74.6531 343.521 75.0044 343.727 75.1698 343.934C75.2524 343.975 75.2938 344.037 75.2938 344.12C75.3351 344.203 75.3558 344.306 75.3558 344.43C75.3558 345.133 75.3558 345.856 75.3558 346.6C75.3558 347.303 75.3558 348.026 75.3558 348.77H74.4258C73.9711 348.522 73.4958 348.315 72.9998 348.15C72.5451 347.985 72.0698 347.861 71.5738 347.778C71.1191 347.695 70.6024 347.654 70.0238 347.654C69.3624 347.654 68.7011 347.757 68.0398 347.964C67.4198 348.129 66.8411 348.419 66.3038 348.832C65.7664 349.287 65.3324 349.969 65.0018 350.878C64.6711 351.787 64.5058 353.089 64.5058 354.784C64.5058 356.933 64.5058 359.186 64.5058 361.542C64.5058 363.857 64.5058 366.213 64.5058 368.61C64.5058 371.007 64.5058 373.405 64.5058 375.802C64.5058 378.199 64.5058 380.535 64.5058 382.808C64.5058 385.081 64.5058 387.251 64.5058 389.318ZM125.402 368.238C125.402 369.395 125.402 370.553 125.402 371.71C125.402 372.867 125.402 374.045 125.402 375.244C125.402 376.401 125.402 377.559 125.402 378.716C125.402 379.873 125.402 381.031 125.402 382.188C125.402 382.725 125.443 383.18 125.526 383.552C125.65 383.924 125.815 384.213 126.022 384.42C126.229 384.627 126.477 384.771 126.766 384.854C127.055 384.937 127.407 384.978 127.82 384.978C127.903 384.978 127.985 384.978 128.068 384.978C128.192 384.978 128.316 384.978 128.44 384.978H129.37C129.37 385.722 129.37 386.445 129.37 387.148C129.37 387.851 129.37 388.574 129.37 389.318C129.37 389.566 129.308 389.752 129.184 389.876C129.06 389.959 128.895 390 128.688 390C128.481 390 128.151 390 127.696 390C127.283 390 126.89 390 126.518 390C125.567 390 124.679 389.855 123.852 389.566C123.025 389.277 122.302 388.843 121.682 388.264C121.062 387.685 120.587 386.983 120.256 386.156C119.925 385.288 119.76 384.275 119.76 383.118C119.76 381.671 119.76 380.183 119.76 378.654C119.76 377.083 119.76 375.575 119.76 374.128C119.76 373.467 119.76 372.805 119.76 372.144C119.76 371.483 119.76 370.821 119.76 370.16C119.76 369.499 119.76 368.837 119.76 368.176C119.76 366.523 119.512 365.241 119.016 364.332C118.561 363.381 117.776 362.72 116.66 362.348C115.544 361.935 114.035 361.728 112.134 361.728C110.935 361.728 109.778 361.79 108.662 361.914C107.546 362.038 106.451 362.245 105.376 362.534C104.343 362.782 103.289 363.113 102.214 363.526H101.284C101.284 362.782 101.284 362.038 101.284 361.294C101.284 360.55 101.284 359.806 101.284 359.062C101.284 358.938 101.305 358.835 101.346 358.752C101.387 358.669 101.429 358.607 101.47 358.566C101.677 358.318 102.297 358.029 103.33 357.698C104.405 357.367 105.707 357.078 107.236 356.83C108.807 356.541 110.439 356.396 112.134 356.396C114.449 356.396 116.433 356.623 118.086 357.078C119.781 357.491 121.165 358.173 122.24 359.124C123.315 360.075 124.1 361.294 124.596 362.782C125.133 364.27 125.402 366.089 125.402 368.238ZM104.632 381.196C104.632 382.601 105.025 383.676 105.81 384.42C106.637 385.123 107.856 385.474 109.468 385.474C110.873 385.474 112.196 385.288 113.436 384.916C114.717 384.544 115.957 383.924 117.156 383.056C118.355 382.147 119.595 380.907 120.876 379.336V384.73H119.078C118.375 386.011 117.507 387.086 116.474 387.954C115.482 388.822 114.304 389.483 112.94 389.938C111.576 390.393 110.067 390.62 108.414 390.62C106.471 390.62 104.797 390.269 103.392 389.566C101.987 388.822 100.891 387.809 100.106 386.528C99.3206 385.205 98.9279 383.635 98.9279 381.816V379.832C98.9279 378.468 99.1552 377.249 99.6099 376.174C100.065 375.058 100.705 374.128 101.532 373.384C102.4 372.64 103.433 372.061 104.632 371.648C105.831 371.235 107.174 371.028 108.662 371.028C110.109 371.028 111.493 371.028 112.816 371.028C114.18 371.028 115.523 371.028 116.846 371.028C118.169 371.028 119.512 371.028 120.876 371.028C121.248 371.028 121.496 371.255 121.62 371.71C121.785 372.123 121.889 372.64 121.93 373.26C121.971 373.88 121.992 374.479 121.992 375.058C120.463 375.058 119.037 375.058 117.714 375.058C116.433 375.058 115.131 375.058 113.808 375.058C112.485 375.058 111.039 375.058 109.468 375.058C108.6 375.058 107.856 375.161 107.236 375.368C106.657 375.533 106.161 375.843 105.748 376.298C105.376 376.629 105.087 377.063 104.88 377.6C104.715 378.096 104.632 378.675 104.632 379.336V381.196ZM163.632 390C162.722 390 161.875 390 161.09 390C160.346 390 159.519 390 158.61 390C158.486 390 158.362 389.979 158.238 389.938C158.155 389.855 158.072 389.773 157.99 389.69C157.948 389.607 157.928 389.483 157.928 389.318C157.928 386.797 157.928 384.296 157.928 381.816C157.928 379.295 157.928 376.794 157.928 374.314C157.928 371.793 157.928 369.271 157.928 366.75C157.928 365.055 157.514 363.815 156.688 363.03C155.902 362.203 154.766 361.79 153.278 361.79C152.41 361.79 151.521 361.935 150.612 362.224C149.702 362.472 148.793 362.865 147.884 363.402C146.974 363.939 146.044 364.621 145.094 365.448C144.184 366.275 143.254 367.267 142.304 368.424V362.534H144.164C145.114 361.294 146.127 360.219 147.202 359.31C148.318 358.359 149.516 357.636 150.798 357.14C152.079 356.603 153.443 356.334 154.89 356.334C156.295 356.334 157.535 356.561 158.61 357.016C159.726 357.471 160.635 358.111 161.338 358.938C162.082 359.765 162.64 360.757 163.012 361.914C163.425 363.03 163.632 364.27 163.632 365.634C163.632 367.618 163.632 369.602 163.632 371.586C163.632 373.57 163.632 375.575 163.632 377.6C163.632 379.584 163.632 381.589 163.632 383.614C163.632 384.689 163.632 385.763 163.632 386.838C163.632 387.871 163.632 388.925 163.632 390ZM143.234 390C142.655 390 142.097 390 141.56 390C141.022 390 140.485 390 139.948 390C139.41 390 138.832 390 138.212 390C138.088 390 137.984 390 137.902 390C137.819 389.959 137.736 389.917 137.654 389.876C137.612 389.793 137.571 389.711 137.53 389.628C137.53 389.545 137.53 389.442 137.53 389.318C137.53 387.127 137.53 384.937 137.53 382.746C137.53 380.555 137.53 378.385 137.53 376.236C137.53 374.087 137.53 371.917 137.53 369.726C137.53 367.535 137.53 365.345 137.53 363.154C137.53 361.831 137.53 360.653 137.53 359.62C137.53 358.545 137.53 357.677 137.53 357.016C138.191 357.016 138.79 357.016 139.328 357.016C139.906 357.016 140.444 357.016 140.94 357.016C141.477 357.016 142.014 357.016 142.552 357.016C142.717 357.016 142.841 357.057 142.924 357.14C143.006 357.181 143.068 357.243 143.11 357.326C143.192 357.409 143.234 357.533 143.234 357.698C143.234 361.253 143.234 364.828 143.234 368.424C143.234 372.02 143.234 375.616 143.234 379.212C143.234 382.808 143.234 386.404 143.234 390ZM199.753 368.238C199.753 369.395 199.753 370.553 199.753 371.71C199.753 372.867 199.753 374.045 199.753 375.244C199.753 376.401 199.753 377.559 199.753 378.716C199.753 379.873 199.753 381.031 199.753 382.188C199.753 382.725 199.795 383.18 199.877 383.552C200.001 383.924 200.167 384.213 200.373 384.42C200.58 384.627 200.828 384.771 201.117 384.854C201.407 384.937 201.758 384.978 202.171 384.978C202.254 384.978 202.337 384.978 202.419 384.978C202.543 384.978 202.667 384.978 202.791 384.978H203.721C203.721 385.722 203.721 386.445 203.721 387.148C203.721 387.851 203.721 388.574 203.721 389.318C203.721 389.566 203.659 389.752 203.535 389.876C203.411 389.959 203.246 390 203.039 390C202.833 390 202.502 390 202.047 390C201.634 390 201.241 390 200.869 390C199.919 390 199.03 389.855 198.203 389.566C197.377 389.277 196.653 388.843 196.033 388.264C195.413 387.685 194.938 386.983 194.607 386.156C194.277 385.288 194.111 384.275 194.111 383.118C194.111 381.671 194.111 380.183 194.111 378.654C194.111 377.083 194.111 375.575 194.111 374.128C194.111 373.467 194.111 372.805 194.111 372.144C194.111 371.483 194.111 370.821 194.111 370.16C194.111 369.499 194.111 368.837 194.111 368.176C194.111 366.523 193.863 365.241 193.367 364.332C192.913 363.381 192.127 362.72 191.011 362.348C189.895 361.935 188.387 361.728 186.485 361.728C185.287 361.728 184.129 361.79 183.013 361.914C181.897 362.038 180.802 362.245 179.727 362.534C178.694 362.782 177.64 363.113 176.565 363.526H175.635C175.635 362.782 175.635 362.038 175.635 361.294C175.635 360.55 175.635 359.806 175.635 359.062C175.635 358.938 175.656 358.835 175.697 358.752C175.739 358.669 175.78 358.607 175.821 358.566C176.028 358.318 176.648 358.029 177.681 357.698C178.756 357.367 180.058 357.078 181.587 356.83C183.158 356.541 184.791 356.396 186.485 356.396C188.8 356.396 190.784 356.623 192.437 357.078C194.132 357.491 195.517 358.173 196.591 359.124C197.666 360.075 198.451 361.294 198.947 362.782C199.485 364.27 199.753 366.089 199.753 368.238ZM178.983 381.196C178.983 382.601 179.376 383.676 180.161 384.42C180.988 385.123 182.207 385.474 183.819 385.474C185.225 385.474 186.547 385.288 187.787 384.916C189.069 384.544 190.309 383.924 191.507 383.056C192.706 382.147 193.946 380.907 195.227 379.336V384.73H193.429C192.727 386.011 191.859 387.086 190.825 387.954C189.833 388.822 188.655 389.483 187.291 389.938C185.927 390.393 184.419 390.62 182.765 390.62C180.823 390.62 179.149 390.269 177.743 389.566C176.338 388.822 175.243 387.809 174.457 386.528C173.672 385.205 173.279 383.635 173.279 381.816V379.832C173.279 378.468 173.507 377.249 173.961 376.174C174.416 375.058 175.057 374.128 175.883 373.384C176.751 372.64 177.785 372.061 178.983 371.648C180.182 371.235 181.525 371.028 183.013 371.028C184.46 371.028 185.845 371.028 187.167 371.028C188.531 371.028 189.875 371.028 191.197 371.028C192.52 371.028 193.863 371.028 195.227 371.028C195.599 371.028 195.847 371.255 195.971 371.71C196.137 372.123 196.24 372.64 196.281 373.26C196.323 373.88 196.343 374.479 196.343 375.058C194.814 375.058 193.388 375.058 192.065 375.058C190.784 375.058 189.482 375.058 188.159 375.058C186.837 375.058 185.39 375.058 183.819 375.058C182.951 375.058 182.207 375.161 181.587 375.368C181.009 375.533 180.513 375.843 180.099 376.298C179.727 376.629 179.438 377.063 179.231 377.6C179.066 378.096 178.983 378.675 178.983 379.336V381.196ZM212.811 351.126C212.811 349.762 212.811 348.46 212.811 347.22C212.811 345.939 212.811 344.699 212.811 343.5C213.431 343.5 213.907 343.5 214.237 343.5C214.568 343.5 214.816 343.5 214.981 343.5C215.188 343.5 215.374 343.5 215.539 343.5C215.746 343.5 215.994 343.5 216.283 343.5C216.614 343.5 217.11 343.5 217.771 343.5C217.937 343.5 218.061 343.541 218.143 343.624C218.226 343.665 218.288 343.748 218.329 343.872C218.412 343.955 218.453 344.058 218.453 344.182C218.453 346.621 218.453 349.059 218.453 351.498C218.453 353.937 218.453 356.375 218.453 358.814C218.453 361.253 218.453 363.691 218.453 366.13C218.453 368.569 218.453 371.007 218.453 373.446C218.453 375.885 218.453 378.323 218.453 380.762C218.453 381.506 218.515 382.126 218.639 382.622C218.763 383.077 218.97 383.469 219.259 383.8C219.59 384.089 219.983 384.317 220.437 384.482C220.933 384.606 221.553 384.668 222.297 384.668C222.421 384.668 222.566 384.668 222.731 384.668C222.938 384.668 223.145 384.668 223.351 384.668C223.558 384.668 223.744 384.668 223.909 384.668C224.075 384.668 224.219 384.668 224.343 384.668H225.025C225.025 385.371 225.025 386.135 225.025 386.962C225.025 387.789 225.025 388.574 225.025 389.318C225.025 389.566 224.963 389.752 224.839 389.876C224.715 389.959 224.55 390 224.343 390C224.178 390 224.033 390 223.909 390C223.785 390 223.599 390 223.351 390C223.145 390 222.855 390 222.483 390C222.153 390 221.698 390 221.119 390C219.714 390 218.474 389.835 217.399 389.504C216.366 389.132 215.498 388.595 214.795 387.892C214.134 387.148 213.638 386.218 213.307 385.102C212.977 383.945 212.811 382.601 212.811 381.072C212.811 378.592 212.811 376.112 212.811 373.632C212.811 371.111 212.811 368.61 212.811 366.13C212.811 363.609 212.811 361.108 212.811 358.628C212.811 356.148 212.811 353.647 212.811 351.126ZM259.394 357.016C259.601 357.016 259.807 357.099 260.014 357.264C260.221 357.429 260.262 357.677 260.138 358.008C259.146 361.191 258.154 364.332 257.162 367.432C256.17 370.491 255.199 373.529 254.248 376.546C253.297 379.563 252.367 382.539 251.458 385.474C250.549 388.409 249.66 391.302 248.792 394.154C248.255 396.097 247.531 397.667 246.622 398.866C245.754 400.106 244.659 400.995 243.336 401.532C242.055 402.111 240.505 402.4 238.686 402.4C238.231 402.4 237.694 402.4 237.074 402.4C236.454 402.4 235.855 402.4 235.276 402.4C234.739 402.4 234.263 402.4 233.85 402.4C233.437 402.4 233.168 402.4 233.044 402.4C232.837 402.4 232.672 402.338 232.548 402.214C232.424 402.131 232.362 401.966 232.362 401.718V397.316H233.292C234.16 397.316 234.987 397.316 235.772 397.316C236.599 397.316 237.425 397.316 238.252 397.316C239.657 397.316 240.794 396.985 241.662 396.324C242.571 395.704 243.233 394.65 243.646 393.162C243.935 392.211 244.369 390.785 244.948 388.884C245.527 386.941 246.188 384.689 246.932 382.126C247.717 379.563 248.544 376.856 249.412 374.004C250.28 371.152 251.148 368.259 252.016 365.324C252.884 362.389 253.711 359.62 254.496 357.016C254.868 357.016 255.24 357.016 255.612 357.016C256.025 357.016 256.439 357.016 256.852 357.016C257.265 357.016 257.679 357.016 258.092 357.016C258.505 357.016 258.939 357.016 259.394 357.016ZM234.036 357.016C234.408 357.016 234.677 357.078 234.842 357.202C235.007 357.285 235.131 357.471 235.214 357.76C236.041 360.199 236.847 362.555 237.632 364.828C238.417 367.06 239.182 369.209 239.926 371.276C240.711 373.301 241.414 375.203 242.034 376.98C242.695 378.716 243.274 380.287 243.77 381.692C244.307 383.097 244.7 384.296 244.948 385.288H247.614L246.498 388.946H242.344C241.972 388.946 241.662 388.905 241.414 388.822C241.166 388.739 240.939 388.512 240.732 388.14C240.525 387.768 240.257 387.189 239.926 386.404C239.637 385.66 239.182 384.503 238.562 382.932C237.983 381.361 237.281 379.543 236.454 377.476C235.669 375.409 234.821 373.198 233.912 370.842C233.003 368.486 232.093 366.13 231.184 363.774C230.316 361.377 229.489 359.124 228.704 357.016C229.117 357.016 229.531 357.016 229.944 357.016C230.399 357.016 230.853 357.016 231.308 357.016C231.763 357.016 232.217 357.016 232.672 357.016C233.127 357.016 233.581 357.016 234.036 357.016ZM265.942 357.016H289.316C289.523 357.016 289.688 357.078 289.812 357.202C289.936 357.326 289.998 357.491 289.998 357.698C289.998 358.235 289.998 358.752 289.998 359.248C289.998 359.744 289.998 360.24 289.998 360.736C289.998 361.232 289.998 361.769 289.998 362.348H266.624C266.541 362.348 266.459 362.327 266.376 362.286C266.293 362.245 266.211 362.203 266.128 362.162C266.087 362.079 266.045 361.997 266.004 361.914C265.963 361.831 265.942 361.749 265.942 361.666C265.942 361.087 265.942 360.55 265.942 360.054C265.942 359.558 265.942 359.062 265.942 358.566C265.942 358.07 265.942 357.553 265.942 357.016ZM289.998 384.606C289.998 385.391 289.998 386.177 289.998 386.962C289.998 387.747 289.998 388.533 289.998 389.318C289.998 389.525 289.936 389.69 289.812 389.814C289.729 389.938 289.564 390 289.316 390C288.944 390 288.551 390 288.138 390C287.766 390 287.373 390 286.96 390C286.588 390 286.195 390 285.782 390C285.41 390 285.038 390 284.666 390C282.641 390 280.863 389.773 279.334 389.318C277.805 388.822 276.503 388.078 275.428 387.086C274.353 386.053 273.547 384.751 273.01 383.18C272.473 381.609 272.204 379.708 272.204 377.476C272.204 375.451 272.204 373.425 272.204 371.4C272.204 369.375 272.204 367.349 272.204 365.324C272.204 363.299 272.204 361.273 272.204 359.248C272.204 357.181 272.204 355.135 272.204 353.11C272.204 351.994 272.204 350.899 272.204 349.824C272.204 348.749 272.204 347.675 272.204 346.6C273.072 346.6 273.919 346.6 274.746 346.6C275.573 346.6 276.399 346.6 277.226 346.6C277.35 346.6 277.453 346.641 277.536 346.724C277.66 346.765 277.743 346.848 277.784 346.972C277.867 347.055 277.908 347.158 277.908 347.282C277.908 349.762 277.908 352.242 277.908 354.722C277.908 357.161 277.908 359.62 277.908 362.1C277.908 364.58 277.908 367.06 277.908 369.54C277.908 372.02 277.908 374.5 277.908 376.98C277.908 378.468 278.053 379.708 278.342 380.7C278.631 381.692 279.086 382.498 279.706 383.118C280.285 383.655 280.987 384.048 281.814 384.296C282.682 384.503 283.715 384.606 284.914 384.606C285.41 384.606 285.885 384.606 286.34 384.606C286.836 384.606 287.311 384.606 287.766 384.606C288.221 384.606 288.696 384.606 289.192 384.606H289.998ZM301.993 389.318C301.993 387.789 301.993 386.115 301.993 384.296C301.993 382.477 301.993 380.597 301.993 378.654C301.993 376.711 301.993 374.769 301.993 372.826C301.993 370.883 301.993 369.023 301.993 367.246C301.993 365.427 301.993 363.733 301.993 362.162H301.125C300.794 362.162 300.422 362.162 300.009 362.162C299.637 362.162 299.244 362.162 298.831 362.162C298.418 362.162 298.004 362.162 297.591 362.162C297.219 362.162 296.826 362.162 296.413 362.162C296.248 362.162 296.082 362.1 295.917 361.976C295.793 361.852 295.731 361.687 295.731 361.48C295.731 360.777 295.731 360.054 295.731 359.31C295.731 358.525 295.731 357.76 295.731 357.016C296.434 357.016 297.157 357.016 297.901 357.016C298.686 357.016 299.492 357.016 300.319 357.016C301.146 357.016 301.952 357.016 302.737 357.016C303.522 357.016 304.266 357.016 304.969 357.016C305.713 357.016 306.395 357.016 307.015 357.016C307.139 357.016 307.242 357.057 307.325 357.14C307.449 357.181 307.532 357.264 307.573 357.388C307.656 357.471 307.697 357.574 307.697 357.698C307.697 359.806 307.697 361.997 307.697 364.27C307.697 366.502 307.697 368.755 307.697 371.028C307.697 373.301 307.697 375.554 307.697 377.786C307.697 380.018 307.697 382.188 307.697 384.296C307.697 384.916 307.697 385.557 307.697 386.218C307.697 386.838 307.697 387.458 307.697 388.078C307.697 388.698 307.697 389.339 307.697 390C306.788 390 305.94 390 305.155 390C304.411 390 303.584 390 302.675 390C302.51 390 302.344 389.938 302.179 389.814C302.055 389.649 301.993 389.483 301.993 389.318ZM300.877 342.012C301.456 342.012 302.034 342.012 302.613 342.012C303.233 342.012 303.832 342.012 304.411 342.012C305.031 342.012 305.63 342.012 306.209 342.012C306.829 342.012 307.428 342.012 308.007 342.012C308.214 342.012 308.379 342.074 308.503 342.198C308.627 342.322 308.689 342.487 308.689 342.694V348.77C308.11 348.77 307.511 348.77 306.891 348.77C306.312 348.77 305.713 348.77 305.093 348.77C304.514 348.77 303.915 348.77 303.295 348.77C302.716 348.77 302.138 348.77 301.559 348.77C301.352 348.77 301.187 348.708 301.063 348.584C300.939 348.46 300.877 348.295 300.877 348.088V342.012ZM333.465 356.334C335.035 356.334 336.399 356.458 337.557 356.706C338.755 356.954 339.727 357.264 340.471 357.636C341.215 357.967 341.711 358.256 341.959 358.504C342.083 358.628 342.145 358.731 342.145 358.814C342.186 358.897 342.207 359.021 342.207 359.186C342.207 359.93 342.207 360.695 342.207 361.48C342.207 362.224 342.207 362.968 342.207 363.712H341.277C340.326 363.175 339.21 362.72 337.929 362.348C336.689 361.935 335.18 361.728 333.403 361.728C331.501 361.728 329.889 362.079 328.567 362.782C327.244 363.443 326.231 364.497 325.529 365.944C324.826 367.349 324.475 369.106 324.475 371.214V376.298C324.475 377.786 324.661 379.109 325.033 380.266C325.446 381.382 326.045 382.333 326.831 383.118C327.575 383.821 328.505 384.358 329.621 384.73C330.737 385.102 331.997 385.288 333.403 385.288C334.601 385.288 335.655 385.226 336.565 385.102C337.515 384.937 338.363 384.73 339.107 384.482C339.892 384.193 340.615 383.862 341.277 383.49H342.207C342.207 384.275 342.207 385.061 342.207 385.846C342.207 386.59 342.207 387.334 342.207 388.078C342.207 388.161 342.186 388.243 342.145 388.326C342.145 388.409 342.103 388.491 342.021 388.574C341.731 388.863 341.215 389.173 340.471 389.504C339.768 389.835 338.838 390.103 337.681 390.31C336.523 390.558 335.097 390.682 333.403 390.682C331.088 390.682 329.021 390.372 327.203 389.752C325.384 389.132 323.834 388.223 322.553 387.024C321.271 385.825 320.3 384.358 319.639 382.622C319.019 380.845 318.709 378.819 318.709 376.546V371.028C318.709 367.887 319.349 365.221 320.631 363.03C321.912 360.839 323.648 359.186 325.839 358.07C328.071 356.913 330.613 356.334 333.465 356.334ZM362.109 385.102C365.085 385.102 367.213 384.668 368.495 383.8C369.776 382.932 370.417 381.816 370.417 380.452C370.417 379.708 370.251 379.067 369.921 378.53C369.59 377.951 369.032 377.476 368.247 377.104C367.503 376.691 366.49 376.36 365.209 376.112L359.071 374.872C357.045 374.459 355.371 373.88 354.049 373.136C352.767 372.351 351.817 371.4 351.197 370.284C350.618 369.168 350.329 367.866 350.329 366.378C350.329 364.931 350.618 363.609 351.197 362.41C351.817 361.211 352.726 360.178 353.925 359.31C355.123 358.401 356.611 357.698 358.389 357.202C360.166 356.706 362.233 356.458 364.589 356.458C366.077 356.458 367.399 356.541 368.557 356.706C369.714 356.83 370.727 357.016 371.595 357.264C372.463 357.471 373.165 357.698 373.703 357.946C373.951 358.029 374.116 358.111 374.199 358.194C374.323 358.277 374.385 358.38 374.385 358.504C374.426 358.628 374.447 358.814 374.447 359.062C374.447 359.682 374.447 360.385 374.447 361.17C374.447 361.955 374.447 362.72 374.447 363.464H373.517C372.525 363.092 371.533 362.803 370.541 362.596C369.59 362.348 368.577 362.183 367.503 362.1C366.428 361.976 365.209 361.914 363.845 361.914C361.985 361.914 360.476 362.121 359.319 362.534C358.161 362.906 357.314 363.423 356.777 364.084C356.239 364.704 355.971 365.407 355.971 366.192C355.971 366.895 356.115 367.494 356.405 367.99C356.694 368.445 357.211 368.858 357.955 369.23C358.74 369.561 359.835 369.871 361.241 370.16L367.379 371.4C369.197 371.772 370.747 372.351 372.029 373.136C373.31 373.921 374.281 374.913 374.943 376.112C375.645 377.311 375.997 378.757 375.997 380.452C375.997 382.477 375.439 384.255 374.323 385.784C373.248 387.313 371.677 388.491 369.611 389.318C367.544 390.145 365.064 390.558 362.171 390.558C360.683 390.558 359.298 390.475 358.017 390.31C356.777 390.186 355.619 390 354.545 389.752C353.511 389.504 352.581 389.215 351.755 388.884C350.969 388.512 350.287 388.14 349.709 387.768C349.543 387.644 349.44 387.541 349.399 387.458C349.357 387.375 349.337 387.231 349.337 387.024C349.337 386.321 349.337 385.515 349.337 384.606C349.337 383.697 349.337 382.849 349.337 382.064H350.267C351.135 382.643 352.003 383.118 352.871 383.49C353.739 383.862 354.648 384.172 355.599 384.42C356.549 384.668 357.541 384.854 358.575 384.978C359.649 385.061 360.827 385.102 362.109 385.102ZM392.77 390.434C391.86 390.434 390.992 390.434 390.166 390.434C389.38 390.434 388.574 390.434 387.748 390.434C386.921 390.434 386.053 390.434 385.144 390.434C385.02 390.434 384.896 390.393 384.772 390.31C384.689 390.269 384.606 390.186 384.524 390.062C384.482 389.979 384.462 389.876 384.462 389.752V381.94C385.371 381.94 386.239 381.94 387.066 381.94C387.892 381.94 388.698 381.94 389.484 381.94C390.31 381.94 391.178 381.94 392.088 381.94C392.253 381.94 392.377 381.981 392.46 382.064C392.542 382.105 392.604 382.167 392.646 382.25C392.728 382.333 392.77 382.457 392.77 382.622V390.434Z" fill="white" fill-opacity="0.75"/>
</g>
<defs>
<filter id="filter0_f_103_2" x="-672" y="-725" width="2849" height="2205" filterUnits="userSpaceOnUse" color-interpolation-filters="sRGB">
<feFlood flood-opacity="0" result="BackgroundImageFix"/>
<feBlend mode="normal" in="SourceGraphic" in2="BackgroundImageFix" result="shape"/>
<feGaussianBlur stdDeviation="215" result="effect1_foregroundBlur_103_2"/>
</filter>
<filter id="filter1_d_103_2" x="337" y="94" width="964" height="964" filterUnits="userSpaceOnUse" color-interpolation-filters="sRGB">
<feFlood flood-opacity="0" result="BackgroundImageFix"/>
<feColorMatrix in="SourceAlpha" type="matrix" values="0 0 0 0 0 0 0 0 0 0 0 0 0 0 0 0 0 0 127 0" result="hardAlpha"/>
<feOffset dy="4"/>
<feGaussianBlur stdDeviation="2"/>
<feComposite in2="hardAlpha" operator="out"/>
<feColorMatrix type="matrix" values="0 0 0 0 0 0 0 0 0 0 0 0 0 0 0 0 0 0 0.25 0"/>
<feBlend mode="normal" in2="BackgroundImageFix" result="effect1_dropShadow_103_2"/>
<feBlend mode="normal" in="SourceGraphic" in2="effect1_dropShadow_103_2" result="shape"/>
</filter>
<clipPath id="clip0_103_2">
<rect width="1320" height="600" fill="white"/>
</clipPath>
</defs>
</svg>
