<svg width="400" height="520" viewBox="0 0 400 520" fill="none" xmlns="http://www.w3.org/2000/svg">
<g clip-path="url(#clip0_125_2)">
<path d="M117.973 194.839L6.32176 170.754L4.87076 170.442C4.13184 170.281 3.36265 170.333 2.6516 170.59C1.94056 170.847 1.31656 171.3 0.85135 171.896C0.386145 172.492 0.0986167 173.207 0.0218534 173.96C-0.05491 174.712 0.0822145 175.47 0.417425 176.148L44.7473 266.172C45.0342 266.75 45.4559 267.251 45.9768 267.633C46.4977 268.014 47.1027 268.265 47.7407 268.364C48.3807 268.463 49.0353 268.405 49.648 268.195C50.2607 267.985 50.8131 267.629 51.2574 267.158L82.0478 234.692C82.2669 234.455 82.5325 234.266 82.8281 234.137C83.1237 234.008 83.4428 233.941 83.7654 233.942C84.2038 233.935 84.6357 234.049 85.0147 234.269C85.3938 234.489 85.7058 234.809 85.9173 235.193L92.2241 246.858C92.6267 247.636 93.2779 248.257 94.0741 248.622C94.8703 248.986 95.7657 249.074 96.6177 248.872L96.6491 248.865C97.5115 248.682 98.2874 248.215 98.8521 247.538C99.4168 246.861 99.7375 246.014 99.7626 245.133L101.026 218.205C101.041 217.869 101.125 217.539 101.273 217.237C101.431 216.938 101.646 216.673 101.906 216.456L119.669 201.874C120.253 201.395 120.69 200.761 120.93 200.045C121.17 199.328 121.203 198.559 121.026 197.825C120.849 197.09 120.469 196.421 119.929 195.893C119.389 195.365 118.711 194.999 117.972 194.839H117.973ZM118.654 200.635L100.891 215.216C100.66 215.403 100.45 215.614 100.266 215.848L6.11997 173.151C6.03693 173.112 5.95031 173.082 5.86134 173.06C5.49821 172.967 5.11378 173.003 4.77454 173.163C4.43531 173.323 4.16259 173.596 4.00357 173.936C3.84455 174.275 3.80921 174.66 3.90368 175.023C3.99814 175.385 4.21647 175.704 4.52089 175.923L81.93 232.785C81.5371 232.989 81.1825 233.26 80.8816 233.585L50.0914 266.05C49.8243 266.331 49.4932 266.544 49.1263 266.67C48.7594 266.795 48.3676 266.831 47.9841 266.773C47.6006 266.715 47.2368 266.565 46.9236 266.336C46.6104 266.107 46.3571 265.806 46.1851 265.459L1.85524 175.435C1.65706 175.029 1.57711 174.574 1.62451 174.124C1.6719 173.674 1.84473 173.247 2.1233 172.89C2.40188 172.534 2.775 172.263 3.20015 172.108C3.6253 171.953 4.08539 171.921 4.528 172.015L6.01346 172.336L117.629 196.412C118.073 196.508 118.48 196.727 118.804 197.043C119.129 197.36 119.358 197.761 119.465 198.202C119.572 198.643 119.553 199.105 119.409 199.535C119.266 199.965 119.004 200.346 118.654 200.635V200.635Z" fill="#F83670"/>
<path d="M141.772 515.982C131.757 513.277 119.569 502.027 122.178 486.563C123.472 478.894 128.439 473.929 133.59 470.719C140.713 466.279 148.827 464.606 156.645 464.183C165.663 463.696 174.672 464.925 183.622 466.225C192.459 467.509 201.296 468.658 210.172 469.36C244.903 472.084 279.847 469.489 313.795 461.666C322.173 459.732 330.502 457.464 338.78 454.86C346.625 452.551 354.294 449.685 361.73 446.283C371.572 441.557 387.578 432.363 386.273 415.334C385.581 406.305 380.264 399.093 374.9 394.069C368.415 387.994 360.911 383.997 353.562 380.116C319.375 362.062 285.122 344.223 250.903 326.278C242.916 322.089 234.876 318.013 227.126 313.105C219.869 308.51 212.646 303.173 206.806 295.792C201.705 289.346 197.147 280.692 197.308 271.018C197.442 262.995 201.092 256.188 205.564 251.1C216.634 238.503 232.294 233.395 246.448 230.72C264.032 227.396 281.871 227.413 299.466 224.204C313.674 221.612 328.854 216.609 340.409 204.886C345.297 200.117 348.754 194.077 350.39 187.447C351.865 180.504 351.148 173.273 348.338 166.754C345.208 159.278 340.215 153.323 334.965 148.446C328.934 142.922 322.095 138.352 314.683 134.896C299.077 127.459 282.667 123.587 266.682 117.88C258.842 115.082 250.923 112.013 243.644 107.205C237.477 103.132 230.759 97.6426 227.327 89.4788C220.248 72.6349 237.137 62.5962 246.707 58.7937C253.211 56.3267 259.911 54.4087 266.736 53.0599C268.179 52.7501 267.566 49.8697 266.13 50.1781C258.946 51.5786 251.906 53.6343 245.097 56.3195C239.327 58.7172 233.372 61.8682 228.839 67.2905C226.775 69.7386 225.25 72.5934 224.361 75.6696C223.472 78.7457 223.239 81.9744 223.679 85.146C224.88 93.2279 230.099 99.4552 235.001 103.966C241.483 109.93 248.873 113.826 256.366 117.001C264.258 120.345 272.317 122.952 280.374 125.508C296.472 130.616 313.293 135.169 327.826 146.039C337.992 153.643 351.803 167.901 348.421 185.573C346.92 193.417 342.361 199.551 337.442 204.062C331.665 209.204 325.003 213.254 317.78 216.017C285.576 228.978 250.132 219.709 218.758 237.313C208.09 243.298 195.133 254.195 195.029 271.341C194.974 280.248 198.545 288.417 202.959 294.873C208.245 302.607 215.091 308.325 222.056 313.105C229.39 317.953 237.006 322.362 244.862 326.309C253.444 330.817 262.029 335.319 270.615 339.814L322.72 367.139L348.609 380.715C356.51 384.859 364.615 388.834 371.799 394.916C377.681 399.896 384.631 408.067 384.031 418.213C383.554 426.27 378.201 432.084 373.31 435.972C366.977 441.006 359.862 444.261 352.784 446.967C344.619 450.088 336.32 452.676 328.004 455.004C310.972 459.765 293.588 463.167 276.017 465.179C258.49 467.197 240.833 467.856 223.204 467.148C214.297 466.789 205.404 466.077 196.524 465.011C187.372 463.908 178.258 462.21 169.081 461.456C160.781 460.775 152.401 460.933 144.227 463.123C137.401 464.952 130.191 468.212 125.01 474.574C121.191 479.43 119.279 485.515 119.633 491.683C119.984 497.838 122.178 503.745 125.931 508.636C129.743 513.632 135.1 517.228 141.167 518.864C142.598 519.251 143.21 516.371 141.772 515.982L141.772 515.982Z" fill="#E6E6E6"/>
<path d="M400 517.347H139.784V519.146H400V517.347Z" fill="#3F3D56"/>
<path d="M379.151 432.581C388.54 432.581 396.151 424.971 396.151 415.582C396.151 406.194 388.54 398.583 379.151 398.583C369.763 398.583 362.152 406.194 362.152 415.582C362.152 424.971 369.763 432.581 379.151 432.581Z" fill="#E6E6E6"/>
<path d="M348.138 192.987C357.527 192.987 365.137 185.376 365.137 175.988C365.137 166.6 357.527 158.989 348.138 158.989C338.75 158.989 331.139 166.6 331.139 175.988C331.139 185.376 338.75 192.987 348.138 192.987Z" fill="#E6E6E6"/>
<path d="M309.705 0.711092L262.504 21.2305C260.419 22.1396 258.78 23.8384 257.946 25.9543C257.113 28.0703 257.152 30.4305 258.057 32.5172L272.714 66.2322C273.623 68.3169 275.321 69.9559 277.437 70.7895C279.553 71.6232 281.914 71.5835 284 70.6792L331.201 50.1598C333.286 49.2507 334.925 47.5519 335.759 45.4359C336.592 43.32 336.553 40.9597 335.648 38.873L320.992 5.15803C320.083 3.07336 318.384 1.43439 316.268 0.600717C314.152 -0.232957 311.792 -0.193261 309.705 0.711092V0.711092ZM311.659 5.20642C311.941 5.08503 312.238 4.99967 312.541 4.95237L296.583 35.0607L263.807 26.0912C264.011 25.9477 264.229 25.8252 264.458 25.7258L311.659 5.20642ZM329.247 45.6644L282.046 66.1838C281.152 66.5714 280.14 66.5884 279.233 66.2311C278.326 65.8738 277.598 65.1714 277.209 64.278L262.684 30.8658L297.183 40.3067C297.72 40.4537 298.291 40.4133 298.802 40.1923C299.314 39.9712 299.734 39.5826 299.995 39.0905L316.698 7.57657L331.153 40.8272C331.54 41.7215 331.558 42.7331 331.2 43.6399C330.843 44.5467 330.141 45.2748 329.247 45.6644V45.6644Z" fill="#E6E6E6"/>
<path d="M256.763 293.16C280.499 293.16 299.742 273.918 299.742 250.182C299.742 226.445 280.499 207.203 256.763 207.203C233.026 207.203 213.784 226.445 213.784 250.182C213.784 273.918 233.026 293.16 256.763 293.16Z" fill="#F83670"/>
<path d="M249.991 517.876H238.138C236.754 517.874 235.427 517.324 234.449 516.345C233.47 515.367 232.92 514.04 232.918 512.656V413.869C232.92 412.485 233.47 411.159 234.449 410.18C235.427 409.202 236.754 408.651 238.138 408.65H249.991C251.375 408.651 252.702 409.202 253.68 410.18C254.659 411.159 255.209 412.485 255.211 413.869V512.656C255.209 514.04 254.659 515.367 253.68 516.345C252.702 517.324 251.375 517.874 249.991 517.876Z" fill="#2F2E41"/>
<path d="M273.434 517.876H261.581C260.197 517.874 258.871 517.324 257.892 516.345C256.913 515.367 256.363 514.04 256.361 512.656V413.869C256.363 412.485 256.913 411.159 257.892 410.18C258.871 409.202 260.197 408.651 261.581 408.65H273.434C274.818 408.651 276.145 409.202 277.123 410.18C278.102 411.159 278.652 412.485 278.654 413.869V512.656C278.652 514.04 278.102 515.367 277.123 516.345C276.145 517.324 274.818 517.874 273.434 517.876Z" fill="#2F2E41"/>
<path d="M322.551 403.539C322.03 403.539 321.513 403.461 321.015 403.308C320.359 403.109 319.749 402.781 319.22 402.344C318.691 401.908 318.254 401.371 317.934 400.764L271.626 313.503C271.305 312.898 271.106 312.235 271.041 311.553C270.976 310.87 271.045 310.182 271.246 309.526C271.447 308.871 271.775 308.262 272.212 307.733C272.648 307.205 273.184 306.767 273.79 306.446L284.259 300.89C284.865 300.568 285.528 300.369 286.21 300.304C286.893 300.238 287.581 300.308 288.237 300.509C288.892 300.71 289.502 301.038 290.03 301.475C290.559 301.911 290.996 302.448 291.318 303.053L337.625 390.314C337.946 390.92 338.145 391.582 338.211 392.265C338.276 392.947 338.206 393.636 338.005 394.291C337.804 394.946 337.476 395.556 337.04 396.084C336.603 396.613 336.067 397.05 335.461 397.371L324.992 402.928C324.241 403.329 323.402 403.539 322.551 403.539V403.539Z" fill="#F83670"/>
<path d="M226.15 323.108C225.524 323.108 224.903 322.994 224.317 322.773H224.316L131.902 287.861C131.261 287.619 130.674 287.253 130.175 286.783C129.676 286.314 129.274 285.751 128.992 285.126C128.71 284.501 128.555 283.827 128.534 283.142C128.513 282.457 128.627 281.775 128.87 281.134L133.051 270.046C133.545 268.753 134.53 267.707 135.792 267.139C137.054 266.57 138.49 266.525 139.786 267.012L232.197 301.916C233.49 302.408 234.535 303.392 235.105 304.652C235.675 305.912 235.722 307.346 235.238 308.642L231.049 319.732C230.671 320.724 230 321.579 229.125 322.182C228.25 322.785 227.213 323.108 226.15 323.108V323.108Z" fill="#F83670"/>
<path d="M283.202 300.627H229.347C226.686 300.627 224.529 302.784 224.529 305.446V419.861C224.529 422.522 226.686 424.68 229.347 424.68H283.202C285.863 424.68 288.02 422.522 288.02 419.861V305.446C288.02 302.784 285.863 300.627 283.202 300.627Z" fill="#2F2E41"/>
<path d="M288.508 208.093C291.034 213.634 293.451 220.332 290.733 226.26C289.736 228.655 287.865 230.58 285.5 231.647C282.699 232.764 279.645 232.126 277.049 230.775C271.583 227.931 268.06 222.646 263.18 219.025C260.959 217.295 258.331 216.162 255.548 215.735C252.341 215.317 249.158 216.074 246.022 216.658C242.686 217.279 239.238 217.606 236.151 215.915C233.435 214.327 231.309 211.899 230.095 208.997C229.46 207.585 227.383 208.809 228.015 210.212C230.64 216.04 236.069 220.011 242.592 219.552C246.044 219.309 249.378 218.194 252.835 218.035C255.989 217.93 259.082 218.919 261.591 220.834C266.949 224.653 270.585 230.519 276.732 233.293C279.632 234.601 282.954 235.147 286.011 234.02C288.649 232.994 290.846 231.08 292.225 228.609C296.259 221.663 293.668 213.634 290.589 206.877C289.947 205.468 287.87 206.691 288.508 208.093V208.093Z" fill="#2F2E41"/>
<path d="M261.514 264.532C258.86 264.458 255.555 264.365 253.01 262.506C252.252 261.929 251.629 261.194 251.186 260.352C250.742 259.509 250.487 258.58 250.44 257.629C250.394 256.953 250.505 256.276 250.764 255.65C251.023 255.024 251.424 254.466 251.934 254.021C253.263 252.898 255.204 252.634 257.297 253.249L255.129 237.408L256.721 237.19L259.269 255.813L257.941 255.204C256.401 254.497 254.285 254.137 252.971 255.248C252.648 255.538 252.397 255.899 252.236 256.302C252.076 256.705 252.011 257.14 252.045 257.572C252.084 258.28 252.275 258.971 252.605 259.599C252.935 260.226 253.396 260.775 253.957 261.208C255.938 262.655 258.572 262.843 261.56 262.926L261.514 264.532Z" fill="#2F2E41"/>
<path d="M247.26 238.774H238.61V240.38H247.26V238.774Z" fill="#2F2E41"/>
<path d="M274.564 238.774H265.914V240.38H274.564V238.774Z" fill="#2F2E41"/>
<path d="M224.458 322.398L186.478 310.817C185.294 310.456 184.294 309.652 183.686 308.573C183.078 307.495 182.909 306.223 183.214 305.023L187.647 287.553C187.822 286.863 188.148 286.22 188.601 285.671C189.055 285.122 189.624 284.68 190.268 284.377C190.913 284.074 191.616 283.918 192.328 283.92C193.04 283.921 193.743 284.081 194.386 284.386L232.056 302.292C233.25 302.745 234.215 303.653 234.741 304.816C235.267 305.98 235.311 307.304 234.863 308.5L230.673 319.59C230.22 320.786 229.312 321.753 228.146 322.28C226.981 322.806 225.654 322.848 224.458 322.398V322.398Z" fill="#2F2E41"/>
<path d="M272.309 312.515L288.597 348.726C289.105 349.855 290.028 350.746 291.175 351.213C292.322 351.679 293.605 351.686 294.757 351.232L311.527 344.626C312.189 344.365 312.785 343.961 313.273 343.442C313.76 342.923 314.126 342.302 314.345 341.625C314.564 340.947 314.63 340.23 314.539 339.524C314.447 338.818 314.2 338.141 313.816 337.541L291.293 302.437C290.693 301.31 289.67 300.467 288.449 300.092C287.229 299.717 285.909 299.841 284.78 300.437L274.308 305.994C273.179 306.595 272.334 307.618 271.96 308.841C271.585 310.064 271.71 311.385 272.309 312.515V312.515Z" fill="#2F2E41"/>
<path d="M117.973 194.839L6.32176 170.754L4.87076 170.442C4.13184 170.281 3.36265 170.333 2.6516 170.59C1.94056 170.847 1.31656 171.3 0.85135 171.896C0.386145 172.492 0.0986167 173.207 0.0218534 173.96C-0.05491 174.712 0.0822145 175.47 0.417425 176.148L44.7473 266.172C45.0342 266.75 45.4559 267.251 45.9768 267.633C46.4977 268.014 47.1027 268.265 47.7407 268.364C48.3807 268.463 49.0353 268.405 49.648 268.195C50.2607 267.985 50.8131 267.629 51.2574 267.158L82.0478 234.692C82.2669 234.455 82.5325 234.266 82.8281 234.137C83.1237 234.008 83.4428 233.941 83.7654 233.942C84.2038 233.935 84.6357 234.049 85.0147 234.269C85.3938 234.489 85.7058 234.809 85.9173 235.193L92.2241 246.858C92.6267 247.636 93.2779 248.257 94.0741 248.622C94.8703 248.986 95.7657 249.074 96.6177 248.872L96.6491 248.865C97.5115 248.682 98.2874 248.215 98.8521 247.538C99.4168 246.861 99.7375 246.014 99.7626 245.133L101.026 218.205C101.041 217.869 101.125 217.539 101.273 217.237C101.431 216.938 101.646 216.673 101.906 216.456L119.669 201.874C120.253 201.395 120.69 200.761 120.93 200.045C121.17 199.328 121.203 198.559 121.026 197.825C120.849 197.09 120.469 196.421 119.929 195.893C119.389 195.365 118.711 194.999 117.972 194.839H117.973ZM118.654 200.635L100.891 215.216C100.66 215.403 100.45 215.614 100.266 215.848C100.1 216.055 99.9566 216.28 99.8384 216.518C99.7145 216.762 99.6169 217.018 99.5471 217.282L99.5488 217.29C99.4752 217.565 99.4328 217.847 99.4224 218.132L98.1594 245.06C98.1488 245.589 97.9583 246.099 97.6193 246.506C97.2803 246.913 96.8129 247.192 96.2941 247.298L96.2784 247.302C95.7671 247.429 95.2279 247.379 94.7483 247.161C94.2686 246.944 93.8766 246.57 93.6358 246.102L87.3272 234.428C87.0022 233.828 86.5292 233.321 85.953 232.954C85.3768 232.588 84.7166 232.375 84.0349 232.336L84.0273 232.337C83.9356 232.333 83.8442 232.329 83.7546 232.332C83.1186 232.332 82.4923 232.488 81.93 232.785C81.5372 232.989 81.1825 233.26 80.8816 233.585L50.0914 266.05C49.8243 266.331 49.4932 266.544 49.1263 266.67C48.7594 266.795 48.3676 266.831 47.9841 266.773C47.6006 266.715 47.2369 266.565 46.9237 266.336C46.6105 266.107 46.3571 265.806 46.1851 265.459L1.85524 175.435C1.65706 175.029 1.57711 174.574 1.62451 174.124C1.6719 173.674 1.84473 173.247 2.1233 172.89C2.40188 172.534 2.775 172.263 3.20015 172.108C3.6253 171.953 4.08539 171.921 4.528 172.015L6.01346 172.336L117.629 196.412C118.073 196.508 118.48 196.727 118.804 197.043C119.129 197.36 119.358 197.761 119.465 198.202C119.572 198.643 119.553 199.105 119.409 199.535C119.266 199.965 119.004 200.346 118.654 200.635V200.635Z" fill="#3F3D56"/>
<path d="M100.622 216.008L99.9587 217.47L99.5488 217.29L99.5471 217.282L5.47568 174.626L84.0273 232.337L84.0349 232.336L84.2429 232.495L83.2958 233.79L81.93 232.785L4.52088 175.923C4.21646 175.704 3.99813 175.385 3.90367 175.023C3.8092 174.66 3.84454 174.275 4.00356 173.935C4.16258 173.596 4.4353 173.322 4.77453 173.163C5.11377 173.003 5.4982 172.967 5.86133 173.06C5.9503 173.082 6.03692 173.112 6.11996 173.151L100.266 215.848L100.622 216.008Z" fill="#3F3D56"/>
</g>
<defs>
<clipPath id="clip0_125_2">
<rect width="400" height="519.146" fill="white"/>
</clipPath>
</defs>
</svg>
