<svg width="921" height="568" viewBox="0 0 921 568" fill="none" xmlns="http://www.w3.org/2000/svg">
<g clip-path="url(#clip0_126_53)">
<path d="M910.386 372.27H269.797C267.17 372.267 264.651 371.221 262.793 369.363C260.935 367.506 259.89 364.986 259.887 362.359V9.91064C259.89 7.28309 260.935 4.764 262.793 2.90604C264.651 1.04807 267.17 0.00296966 269.797 0H910.386C913.014 0.00297493 915.533 1.04809 917.391 2.90605C919.249 4.76401 920.294 7.28309 920.297 9.91064V362.359C920.294 364.986 919.249 367.506 917.391 369.363C915.533 371.221 913.014 372.267 910.386 372.27Z" fill="#E6E6E6"/>
<path d="M896.872 358.755H283.312C280.684 358.752 278.165 357.707 276.307 355.849C274.449 353.991 273.404 351.472 273.401 348.844V23.4252C273.404 20.7976 274.449 18.2785 276.307 16.4205C278.165 14.5626 280.684 13.5175 283.312 13.5145H896.872C899.499 13.5175 902.018 14.5626 903.876 16.4205C905.734 18.2785 906.779 20.7976 906.782 23.4252V348.844C906.779 351.472 905.734 353.991 903.876 355.849C902.018 357.707 899.499 358.752 896.872 358.755V358.755Z" fill="white"/>
<path d="M455 214.304H339.569C338.294 214.302 337.071 213.795 336.169 212.894C335.268 211.992 334.761 210.769 334.759 209.494V89.277C334.761 88.0019 335.268 86.7794 336.169 85.8778C337.071 84.9761 338.294 84.4689 339.569 84.4674H455C456.275 84.4689 457.498 84.9761 458.399 85.8778C459.301 86.7794 459.808 88.0019 459.81 89.277V209.494C459.808 210.769 459.301 211.992 458.399 212.894C457.498 213.795 456.275 214.302 455 214.304V214.304ZM339.569 86.3913C338.804 86.3921 338.07 86.6964 337.529 87.2374C336.988 87.7784 336.684 88.5119 336.683 89.277V209.494C336.684 210.259 336.988 210.993 337.529 211.534C338.07 212.075 338.804 212.379 339.569 212.38H455C455.765 212.379 456.499 212.075 457.04 211.534C457.581 210.993 457.885 210.259 457.886 209.494V89.277C457.885 88.5119 457.581 87.7784 457.04 87.2374C456.499 86.6964 455.765 86.3921 455 86.3913H339.569Z" fill="#3F3D56"/>
<path d="M647.808 214.304H532.376C531.101 214.302 529.878 213.795 528.977 212.894C528.075 211.992 527.568 210.769 527.566 209.494V89.277C527.568 88.0019 528.075 86.7794 528.977 85.8778C529.878 84.9761 531.101 84.4689 532.376 84.4674H647.808C649.083 84.4689 650.305 84.9761 651.207 85.8778C652.109 86.7794 652.616 88.0019 652.617 89.277V209.494C652.616 210.769 652.109 211.992 651.207 212.894C650.305 213.795 649.083 214.302 647.808 214.304ZM532.376 86.3913C531.611 86.3921 530.877 86.6964 530.336 87.2374C529.795 87.7784 529.491 88.512 529.49 89.277V209.494C529.491 210.259 529.795 210.993 530.336 211.534C530.877 212.075 531.611 212.379 532.376 212.38H647.808C648.573 212.379 649.306 212.075 649.847 211.534C650.388 210.993 650.692 210.259 650.693 209.494V89.277C650.692 88.512 650.388 87.7784 649.847 87.2374C649.306 86.6964 648.573 86.3921 647.808 86.3913H532.376Z" fill="#3F3D56"/>
<path d="M840.615 214.304H725.183C723.908 214.302 722.686 213.795 721.784 212.894C720.883 211.992 720.375 210.769 720.374 209.494V89.277C720.375 88.0019 720.883 86.7794 721.784 85.8778C722.686 84.9761 723.908 84.4689 725.183 84.4674H840.615C841.89 84.4689 843.113 84.9761 844.014 85.8778C844.916 86.7794 845.423 88.0019 845.425 89.277V209.494C845.423 210.769 844.916 211.992 844.014 212.894C843.113 213.795 841.89 214.302 840.615 214.304V214.304ZM725.183 86.3913C724.418 86.3921 723.685 86.6964 723.144 87.2374C722.603 87.7784 722.298 88.5119 722.298 89.277V209.494C722.298 210.259 722.603 210.993 723.144 211.534C723.685 212.075 724.418 212.379 725.183 212.38H840.615C841.38 212.379 842.114 212.075 842.655 211.534C843.196 210.993 843.5 210.259 843.501 209.494V89.277C843.5 88.5119 843.196 87.7784 842.655 87.2374C842.114 86.6964 841.38 86.3921 840.615 86.3913H725.183Z" fill="#3F3D56"/>
<path d="M374.995 287.802C375.423 287.802 375.848 287.718 376.244 287.554C376.64 287.39 377 287.15 377.304 286.847C377.607 286.544 377.848 286.184 378.012 285.788C378.176 285.392 378.261 284.967 378.261 284.538C378.261 284.109 378.177 283.685 378.013 283.288C377.849 282.892 377.609 282.532 377.306 282.229C377.003 281.925 376.643 281.685 376.247 281.521C375.851 281.356 375.426 281.272 374.997 281.271H345.695C344.829 281.271 343.998 281.616 343.386 282.228C342.774 282.84 342.43 283.671 342.43 284.537C342.43 285.403 342.774 286.233 343.386 286.846C343.998 287.458 344.829 287.802 345.695 287.802H374.995Z" fill="#E6E6E6"/>
<path d="M448.874 268.564C449.74 268.565 450.571 268.223 451.185 267.611C451.798 267 452.144 266.17 452.145 265.304C452.147 264.438 451.804 263.607 451.193 262.994C450.582 262.38 449.752 262.035 448.886 262.033H345.695C344.83 262.034 344.001 262.379 343.39 262.991C342.779 263.604 342.435 264.433 342.435 265.298C342.435 266.163 342.779 266.993 343.39 267.605C344.001 268.217 344.83 268.562 345.695 268.564H448.874Z" fill="#E6E6E6"/>
<path d="M567.802 287.802C568.668 287.802 569.498 287.458 570.111 286.846C570.723 286.233 571.067 285.403 571.067 284.537C571.067 283.671 570.723 282.84 570.111 282.228C569.498 281.616 568.668 281.271 567.802 281.271H538.502C537.636 281.271 536.806 281.616 536.193 282.228C535.581 282.84 535.237 283.671 535.237 284.537C535.237 285.403 535.581 286.233 536.193 286.846C536.806 287.458 537.636 287.802 538.502 287.802H567.802Z" fill="#E6E6E6"/>
<path d="M641.681 268.564C642.546 268.562 643.375 268.217 643.986 267.605C644.598 266.993 644.941 266.163 644.941 265.298C644.941 264.433 644.598 263.604 643.986 262.991C643.375 262.379 642.546 262.034 641.681 262.033H538.502C537.637 262.034 536.808 262.379 536.197 262.991C535.586 263.604 535.243 264.433 535.243 265.298C535.243 266.163 535.586 266.993 536.197 267.605C536.808 268.217 537.637 268.562 538.502 268.564H641.681Z" fill="#E6E6E6"/>
<path d="M760.609 287.802C761.475 287.802 762.306 287.458 762.918 286.846C763.53 286.233 763.874 285.403 763.874 284.537C763.874 283.671 763.53 282.84 762.918 282.228C762.306 281.616 761.475 281.271 760.609 281.271H731.31C730.881 281.271 730.456 281.356 730.06 281.52C729.664 281.683 729.304 281.924 729 282.227C728.697 282.53 728.456 282.89 728.292 283.286C728.128 283.682 728.043 284.107 728.043 284.535C728.043 284.964 728.127 285.389 728.291 285.785C728.455 286.181 728.695 286.541 728.998 286.845C729.302 287.148 729.661 287.389 730.057 287.553C730.454 287.717 730.878 287.802 731.307 287.802H760.609Z" fill="#E6E6E6"/>
<path d="M834.489 268.564C835.354 268.562 836.183 268.217 836.794 267.605C837.405 266.993 837.748 266.163 837.748 265.298C837.748 264.433 837.405 263.604 836.794 262.991C836.183 262.379 835.354 262.034 834.489 262.033H731.31C730.881 262.032 730.456 262.116 730.06 262.279C729.663 262.443 729.303 262.682 728.999 262.985C728.695 263.288 728.454 263.647 728.289 264.043C728.124 264.439 728.039 264.863 728.038 265.292C728.038 265.721 728.121 266.146 728.285 266.542C728.448 266.939 728.688 267.299 728.99 267.603C729.293 267.907 729.653 268.148 730.049 268.313C730.444 268.478 730.869 268.563 731.298 268.564H834.489Z" fill="#E6E6E6"/>
<path d="M448.874 249.643C449.74 249.644 450.571 249.3 451.183 248.688C451.796 248.076 452.14 247.245 452.141 246.379C452.141 245.513 451.797 244.683 451.185 244.07C450.573 243.457 449.743 243.113 448.877 243.113H345.695C344.829 243.113 343.998 243.457 343.386 244.069C342.774 244.681 342.43 245.512 342.43 246.378C342.43 247.244 342.774 248.074 343.386 248.687C343.998 249.299 344.829 249.643 345.695 249.643H448.874Z" fill="#F83670"/>
<path d="M641.681 249.643C642.547 249.643 643.378 249.299 643.99 248.687C644.603 248.074 644.947 247.244 644.947 246.378C644.947 245.512 644.603 244.681 643.99 244.069C643.378 243.457 642.547 243.113 641.681 243.113H538.502C537.636 243.113 536.806 243.457 536.193 244.069C535.581 244.681 535.237 245.512 535.237 246.378C535.237 247.244 535.581 248.074 536.193 248.687C536.806 249.299 537.636 249.643 538.502 249.643H641.681Z" fill="#F83670"/>
<path d="M834.489 249.643C835.355 249.643 836.185 249.299 836.798 248.687C837.41 248.074 837.754 247.244 837.754 246.378C837.754 245.512 837.41 244.681 836.798 244.069C836.185 243.457 835.355 243.113 834.489 243.113H731.31C730.444 243.112 729.613 243.456 729 244.068C728.388 244.68 728.043 245.511 728.043 246.377C728.043 247.243 728.386 248.073 728.998 248.686C729.611 249.299 730.441 249.643 731.307 249.643H834.489Z" fill="#F83670"/>
<path d="M430.404 191.006C431.269 191.004 432.098 190.659 432.709 190.047C433.32 189.435 433.664 188.605 433.664 187.74C433.664 186.875 433.32 186.046 432.709 185.433C432.098 184.821 431.269 184.476 430.404 184.475H364.165C363.736 184.474 363.311 184.558 362.915 184.721C362.518 184.885 362.158 185.124 361.854 185.427C361.55 185.73 361.309 186.089 361.144 186.485C360.98 186.881 360.894 187.305 360.894 187.734C360.893 188.163 360.976 188.588 361.14 188.984C361.303 189.381 361.543 189.741 361.846 190.045C362.148 190.349 362.508 190.59 362.904 190.755C363.3 190.92 363.724 191.005 364.153 191.006H430.404Z" fill="#E6E6E6"/>
<path d="M430.404 171.767C431.269 171.765 432.098 171.421 432.709 170.809C433.32 170.196 433.664 169.367 433.664 168.502C433.664 167.637 433.32 166.807 432.709 166.195C432.098 165.583 431.269 165.238 430.404 165.236H364.165C363.736 165.236 363.311 165.319 362.915 165.483C362.518 165.646 362.158 165.886 361.854 166.189C361.55 166.491 361.309 166.851 361.144 167.247C360.98 167.642 360.894 168.067 360.894 168.496C360.893 168.925 360.976 169.349 361.14 169.746C361.303 170.142 361.543 170.503 361.846 170.806C362.148 171.11 362.508 171.351 362.904 171.516C363.3 171.681 363.724 171.766 364.153 171.767H430.404Z" fill="#E6E6E6"/>
<path d="M397.285 149.21C408.729 149.21 418.007 139.933 418.007 128.488C418.007 117.043 408.729 107.766 397.285 107.766C385.84 107.766 376.562 117.043 376.562 128.488C376.562 139.933 385.84 149.21 397.285 149.21Z" fill="#F83670"/>
<path d="M623.211 191.006C624.077 191.004 624.906 190.659 625.517 190.047C626.128 189.435 626.471 188.605 626.471 187.74C626.471 186.875 626.128 186.046 625.517 185.433C624.906 184.821 624.077 184.476 623.211 184.475H556.972C556.107 184.476 555.278 184.821 554.667 185.433C554.056 186.046 553.713 186.875 553.713 187.74C553.713 188.605 554.056 189.435 554.667 190.047C555.278 190.659 556.107 191.004 556.972 191.006H623.211Z" fill="#E6E6E6"/>
<path d="M623.211 171.767C624.077 171.765 624.906 171.421 625.517 170.809C626.128 170.196 626.471 169.367 626.471 168.502C626.471 167.637 626.128 166.807 625.517 166.195C624.906 165.583 624.077 165.238 623.211 165.236H556.972C556.107 165.238 555.278 165.583 554.667 166.195C554.056 166.807 553.713 167.637 553.713 168.502C553.713 169.367 554.056 170.196 554.667 170.809C555.278 171.421 556.107 171.765 556.972 171.767H623.211Z" fill="#E6E6E6"/>
<path d="M590.092 149.21C601.537 149.21 610.814 139.933 610.814 128.488C610.814 117.043 601.537 107.766 590.092 107.766C578.647 107.766 569.37 117.043 569.37 128.488C569.37 139.933 578.647 149.21 590.092 149.21Z" fill="#F83670"/>
<path d="M816.019 191.006C816.448 191.006 816.872 190.923 817.269 190.759C817.665 190.596 818.026 190.356 818.329 190.053C818.633 189.751 818.874 189.391 819.039 188.995C819.204 188.599 819.289 188.175 819.29 187.746C819.291 187.317 819.207 186.893 819.044 186.496C818.88 186.1 818.641 185.739 818.338 185.436C818.035 185.132 817.676 184.891 817.28 184.726C816.884 184.561 816.46 184.476 816.031 184.475H749.78C748.915 184.476 748.085 184.821 747.474 185.433C746.863 186.046 746.52 186.875 746.52 187.74C746.52 188.605 746.863 189.435 747.474 190.047C748.085 190.659 748.915 191.004 749.78 191.006H816.019Z" fill="#E6E6E6"/>
<path d="M816.019 171.767C816.448 171.768 816.872 171.684 817.269 171.521C817.665 171.357 818.026 171.118 818.329 170.815C818.633 170.512 818.874 170.153 819.039 169.757C819.204 169.361 819.289 168.936 819.29 168.508C819.291 168.079 819.207 167.654 819.044 167.258C818.88 166.861 818.641 166.501 818.338 166.197C818.035 165.893 817.676 165.652 817.28 165.487C816.884 165.322 816.46 165.237 816.031 165.236H749.78C748.915 165.238 748.085 165.583 747.474 166.195C746.863 166.807 746.52 167.637 746.52 168.502C746.52 169.367 746.863 170.196 747.474 170.809C748.085 171.421 748.915 171.765 749.78 171.767H816.019Z" fill="#E6E6E6"/>
<path d="M782.899 149.21C794.344 149.21 803.621 139.933 803.621 128.488C803.621 117.043 794.344 107.766 782.899 107.766C771.454 107.766 762.177 117.043 762.177 128.488C762.177 139.933 771.454 149.21 782.899 149.21Z" fill="#F83670"/>
<path d="M69.3999 554.299H81.66L87.4919 507.011L69.3979 507.012L69.3999 554.299Z" fill="#FFB9B9"/>
<path d="M66.2725 550.297L90.4165 550.296H90.4175C94.4981 550.296 98.4116 551.917 101.297 554.802C104.183 557.688 105.804 561.601 105.804 565.682V566.182L66.2732 566.183L66.2725 550.297Z" fill="#2F2E41"/>
<path d="M111.4 554.299H123.66L129.492 507.011L111.398 507.012L111.4 554.299Z" fill="#FFB9B9"/>
<path d="M108.272 550.297L132.416 550.296H132.417C136.498 550.296 140.412 551.917 143.297 554.802C146.183 557.688 147.804 561.601 147.804 565.682V566.182L108.273 566.183L108.272 550.297Z" fill="#2F2E41"/>
<path d="M157.987 348.297L128.038 533.282L108.038 532.282L108.534 362.427L157.987 348.297Z" fill="#2F2E41"/>
<path d="M77.2476 291.78L149.913 292.789L157.987 348.297L108.534 371.51L87.0382 528.282L68.0382 527.282L61.0996 333.159L77.2476 291.78Z" fill="#2F2E41"/>
<path d="M120.645 148.467C132.908 148.467 142.848 138.526 142.848 126.263C142.848 114.001 132.908 104.06 120.645 104.06C108.382 104.06 98.4417 114.001 98.4417 126.263C98.4417 138.526 108.382 148.467 120.645 148.467Z" fill="#FFB9B9"/>
<path d="M131.038 161.282L143.858 177.735L137.802 303.89L90.3679 302.881L82.2939 192.874L92.3859 164.615L96.0379 158.282L131.038 161.282Z" fill="#E4E4E4"/>
<path d="M152.941 225.169L164.043 267.558L152.941 309.946L171.107 334.168L187.255 257.465C187.255 257.465 175.144 194.892 174.135 187.827C173.126 180.763 171.107 179.753 171.107 179.753L163.033 180.763L152.941 225.169Z" fill="#2F2E41"/>
<path d="M72.202 241.317L65.137 254.438L63.118 276.641L67.155 301.872L53.026 325.085L38.897 261.502L54.035 179.753H60.091L72.202 241.317Z" fill="#2F2E41"/>
<path d="M101.443 132.015L100.917 140.99C100.917 140.99 94.4046 126.263 93.3954 111.125C92.3862 95.9862 109.543 92.9584 119.636 91.9492C129.728 90.9399 146.885 98.0046 146.885 106.079C146.885 114.153 128.719 112.134 121.654 110.116C114.59 108.097 111.562 125.254 111.562 125.254L107.525 126.264L101.443 132.015Z" fill="#2F2E41"/>
<path d="M155.969 239.299L151.932 277.65L160.006 300.863L165.052 323.066C165.052 323.066 165.052 344.26 144.867 345.269C124.682 346.279 66.1459 344.26 66.1459 344.26C66.1459 344.26 58.0719 343.251 51.0072 327.103C43.9425 310.955 65.1366 295.817 65.1366 295.817L71.1921 274.622L69.1737 248.382L55.0441 179.753L96.9277 158.055L107.525 261.502L130.233 161.082L137.802 166.633L170.098 179.753L155.969 239.299Z" fill="#2F2E41"/>
<path d="M257.738 567.136H0V565.03H258.12L257.738 567.136Z" fill="#3F3D56"/>
</g>
<defs>
<clipPath id="clip0_126_53">
<rect width="920.297" height="567.136" fill="white"/>
</clipPath>
</defs>
</svg>
