<svg width="150" height="150" viewBox="0 0 150 150" fill="none" xmlns="http://www.w3.org/2000/svg">
<path d="M131.25 125C131.25 128.453 128.453 131.25 125 131.25H25C21.5469 131.25 18.75 128.453 18.75 125V25C18.75 21.5469 21.5469 18.75 25 18.75H125C128.453 18.75 131.25 21.5469 131.25 25V125Z" fill="#FFC514"/>
<path opacity="0.05" d="M78.125 118.75V84.375H65.625V65.625H78.125V58.9437C78.125 43.1875 86.4563 34.5125 101.578 34.5125C107.813 34.5125 111.194 34.95 112.822 35.1625L115.503 35.5093L115.625 38.2V53.125H104.266C100.741 53.125 100 57.4312 100 61.0468V65.625H114.759L111.859 84.375H100V118.75H78.125Z" fill="black"/>
<path opacity="0.07" d="M79.6875 117.187V82.8125H67.1875V67.1875H79.6875V58.9437C79.6875 43.9812 87.2563 36.075 101.578 36.075C107.738 36.075 111.047 36.5062 112.641 36.7125L114.003 36.8906L114.066 38.2718V51.5625H104.269C99.1969 51.5625 98.4406 57.5031 98.4406 61.0468V67.1875H112.941L110.525 82.8125H98.4375V117.187H79.6875Z" fill="black"/>
<path d="M104.266 49.9999H112.5V38.2687C110.962 38.0687 107.716 37.6343 101.578 37.6343C88.7625 37.6343 81.25 44.1343 81.25 58.9437V68.7499H68.75V81.2499H81.25V115.625H96.875V81.2499H109.181L111.112 68.7499H96.875V61.0468C96.875 55.1905 98.7875 49.9999 104.266 49.9999Z" fill="#212529"/>
</svg>
