<svg width="720" height="240" viewBox="0 0 720 240" fill="none" xmlns="http://www.w3.org/2000/svg">
<rect width="720" height="240" fill="#212529"/>
<path d="M233.282 169C232.842 169 232.329 169 231.742 169C231.17 169 230.613 169 230.07 169C229.527 169 229.058 169 228.662 169C228.266 169 228.039 169 227.98 169C227.907 169 227.848 168.978 227.804 168.934C227.76 168.89 227.738 168.831 227.738 168.758C227.738 167.555 227.738 166.404 227.738 165.304C227.738 164.189 227.738 163.097 227.738 162.026C227.738 160.941 227.738 159.848 227.738 158.748C227.738 157.633 227.738 156.475 227.738 155.272H230.95L230.796 155.712C230.796 156.196 230.796 156.658 230.796 157.098C230.796 157.538 230.796 157.971 230.796 158.396C230.796 159.056 230.796 159.709 230.796 160.354C230.796 160.985 230.796 161.623 230.796 162.268C230.796 162.913 230.796 163.581 230.796 164.27C230.796 164.945 230.796 165.641 230.796 166.36C231.045 166.36 231.28 166.36 231.5 166.36C231.735 166.36 231.969 166.36 232.204 166.36C232.439 166.36 232.673 166.36 232.908 166.36C233.333 166.36 233.678 166.301 233.942 166.184C234.221 166.052 234.426 165.869 234.558 165.634C234.69 165.385 234.756 165.091 234.756 164.754V164.072C234.756 163.72 234.69 163.427 234.558 163.192C234.426 162.957 234.213 162.781 233.92 162.664C233.641 162.547 233.26 162.488 232.776 162.488H229.234L229.344 160.618H235.086V161.41C235.966 161.542 236.641 161.879 237.11 162.422C237.594 162.95 237.836 163.683 237.836 164.622V165.238C237.836 166.133 237.645 166.859 237.264 167.416C236.883 167.959 236.355 168.362 235.68 168.626C235.005 168.875 234.206 169 233.282 169ZM226.66 153.6C227.701 153.6 228.743 153.6 229.784 153.6C230.825 153.6 231.859 153.6 232.886 153.6C233.81 153.6 234.58 153.703 235.196 153.908C235.827 154.099 236.325 154.363 236.692 154.7C237.073 155.037 237.352 155.426 237.528 155.866C237.704 156.306 237.792 156.753 237.792 157.208V157.714C237.792 158.271 237.689 158.763 237.484 159.188C237.279 159.599 236.985 159.943 236.604 160.222C236.237 160.501 235.79 160.713 235.262 160.86C234.734 160.992 234.147 161.058 233.502 161.058C232.651 161.058 231.925 161.058 231.324 161.058C230.737 161.058 230.202 161.058 229.718 161.058L229.344 161.344L229.234 159.936C229.835 159.936 230.437 159.936 231.038 159.936C231.639 159.936 232.233 159.936 232.82 159.936C233.275 159.936 233.641 159.877 233.92 159.76C234.199 159.628 234.397 159.437 234.514 159.188C234.646 158.924 234.712 158.616 234.712 158.264V157.714C234.712 157.494 234.683 157.296 234.624 157.12C234.565 156.929 234.47 156.775 234.338 156.658C234.191 156.511 234.001 156.409 233.766 156.35C233.531 156.277 233.245 156.24 232.908 156.24C232.248 156.24 231.581 156.24 230.906 156.24C230.246 156.24 229.579 156.24 228.904 156.24C228.244 156.24 227.577 156.24 226.902 156.24C226.829 156.24 226.77 156.218 226.726 156.174C226.682 156.13 226.66 156.071 226.66 155.998C226.66 155.558 226.66 155.155 226.66 154.788C226.66 154.421 226.66 154.025 226.66 153.6ZM251.671 169C251.348 169 251.025 169 250.703 169C250.38 169 250.057 169 249.735 169C249.412 169 249.082 169 248.745 169C248.715 169 248.686 169 248.657 169C248.627 168.985 248.605 168.971 248.591 168.956C248.576 168.941 248.561 168.927 248.547 168.912C248.532 168.897 248.517 168.875 248.503 168.846C248.503 168.817 248.503 168.787 248.503 168.758C248.503 167.497 248.503 166.235 248.503 164.974C248.503 163.713 248.503 162.451 248.503 161.19C248.503 159.914 248.503 158.645 248.503 157.384C248.503 156.123 248.503 154.861 248.503 153.6C248.84 153.6 249.163 153.6 249.471 153.6C249.793 153.6 250.116 153.6 250.439 153.6C250.776 153.6 251.106 153.6 251.429 153.6C251.473 153.6 251.509 153.615 251.539 153.644C251.583 153.659 251.612 153.688 251.627 153.732C251.656 153.761 251.671 153.798 251.671 153.842C251.671 154.898 251.671 155.961 251.671 157.032C251.671 158.103 251.671 159.173 251.671 160.244C251.671 161.3 251.671 162.363 251.671 163.434C251.671 164.49 251.671 165.546 251.671 166.602C251.671 167.042 251.671 167.467 251.671 167.878C251.671 168.274 251.671 168.648 251.671 169ZM244.191 169.242C243.56 169.242 243.017 169.154 242.563 168.978C242.108 168.802 241.734 168.545 241.441 168.208C241.147 167.856 240.927 167.431 240.781 166.932C240.634 166.433 240.561 165.854 240.561 165.194C240.561 164.226 240.561 163.229 240.561 162.202C240.561 161.175 240.561 160.119 240.561 159.034C240.561 157.949 240.561 156.871 240.561 155.8C240.561 155.433 240.561 155.067 240.561 154.7C240.561 154.333 240.561 153.967 240.561 153.6C241.059 153.6 241.551 153.6 242.035 153.6C242.519 153.6 243.003 153.6 243.487 153.6C243.545 153.6 243.589 153.615 243.619 153.644C243.648 153.659 243.67 153.681 243.685 153.71C243.714 153.739 243.729 153.783 243.729 153.842C243.729 155.074 243.729 156.328 243.729 157.604C243.729 158.88 243.729 160.149 243.729 161.41C243.729 162.657 243.729 163.852 243.729 164.996C243.729 165.524 243.839 165.905 244.059 166.14C244.279 166.36 244.645 166.47 245.159 166.47C245.643 166.47 246.097 166.382 246.523 166.206C246.963 166.015 247.388 165.729 247.799 165.348C248.209 164.952 248.605 164.453 248.987 163.852V166.976H248.063C247.784 167.46 247.454 167.871 247.073 168.208C246.706 168.545 246.281 168.802 245.797 168.978C245.327 169.154 244.792 169.242 244.191 169.242ZM260.369 167.35H257.113L257.201 166.448C257.201 166.199 257.201 165.92 257.201 165.612C257.201 165.304 257.201 165.025 257.201 164.776C257.201 163.984 257.201 163.192 257.201 162.4C257.201 161.608 257.201 160.823 257.201 160.046C257.201 159.254 257.201 158.462 257.201 157.67C257.201 156.863 257.201 156.057 257.201 155.25H260.457L260.369 156.152C260.369 156.387 260.369 156.651 260.369 156.944C260.369 157.237 260.369 157.509 260.369 157.758C260.369 158.565 260.369 159.371 260.369 160.178C260.369 160.97 260.369 161.769 260.369 162.576C260.369 163.368 260.369 164.16 260.369 164.952C260.369 165.744 260.369 166.543 260.369 167.35ZM262.723 169H255.089C255.06 169 255.03 168.993 255.001 168.978C254.972 168.963 254.942 168.949 254.913 168.934C254.898 168.905 254.884 168.875 254.869 168.846C254.854 168.817 254.847 168.787 254.847 168.758C254.847 168.465 254.847 168.186 254.847 167.922C254.847 167.658 254.847 167.401 254.847 167.152C254.847 166.888 254.847 166.609 254.847 166.316H262.459C262.503 166.316 262.547 166.331 262.591 166.36C262.635 166.375 262.664 166.404 262.679 166.448C262.708 166.477 262.723 166.514 262.723 166.558C262.723 166.851 262.723 167.13 262.723 167.394C262.723 167.643 262.723 167.9 262.723 168.164C262.723 168.428 262.723 168.707 262.723 169ZM254.847 153.6H262.459C262.547 153.6 262.613 153.622 262.657 153.666C262.701 153.71 262.723 153.769 262.723 153.842C262.723 154.047 262.723 154.253 262.723 154.458C262.723 154.663 262.723 154.869 262.723 155.074C262.723 155.265 262.723 155.463 262.723 155.668C262.723 155.859 262.723 156.064 262.723 156.284H255.089C255.03 156.284 254.972 156.262 254.913 156.218C254.869 156.159 254.847 156.101 254.847 156.042C254.847 155.822 254.847 155.617 254.847 155.426C254.847 155.221 254.847 155.023 254.847 154.832C254.847 154.627 254.847 154.421 254.847 154.216C254.847 154.011 254.847 153.805 254.847 153.6ZM266.133 169C266.104 169 266.074 168.993 266.045 168.978C266.016 168.963 265.986 168.949 265.957 168.934C265.942 168.905 265.928 168.875 265.913 168.846C265.898 168.817 265.891 168.787 265.891 168.758C265.891 167.629 265.891 166.492 265.891 165.348C265.891 164.204 265.891 163.067 265.891 161.938C265.891 160.809 265.891 159.701 265.891 158.616C265.891 157.516 265.891 156.453 265.891 155.426C265.891 155.118 265.891 154.817 265.891 154.524C265.891 154.216 265.891 153.908 265.891 153.6C266.39 153.6 266.881 153.6 267.365 153.6C267.849 153.6 268.333 153.6 268.817 153.6C268.861 153.6 268.898 153.615 268.927 153.644C268.971 153.659 269 153.688 269.015 153.732C269.044 153.761 269.059 153.798 269.059 153.842C269.059 154.869 269.059 155.903 269.059 156.944C269.059 157.985 269.059 159.034 269.059 160.09C269.059 161.131 269.059 162.173 269.059 163.214C269.059 164.255 269.059 165.289 269.059 166.316H272.887C273.268 166.316 273.591 166.367 273.855 166.47C274.134 166.558 274.361 166.712 274.537 166.932C274.713 167.152 274.852 167.431 274.955 167.768C275.072 168.105 275.175 168.516 275.263 169H266.133ZM272.469 164.622C272.762 164.622 273.048 164.622 273.327 164.622C273.606 164.622 273.877 164.622 274.141 164.622C274.42 164.622 274.713 164.622 275.021 164.622C275.065 164.622 275.102 164.637 275.131 164.666C275.175 164.681 275.204 164.71 275.219 164.754C275.248 164.783 275.263 164.82 275.263 164.864C275.263 165.143 275.263 165.458 275.263 165.81C275.263 166.162 275.263 166.536 275.263 166.932C275.263 167.313 275.263 167.687 275.263 168.054C275.263 168.406 275.263 168.721 275.263 169C274.544 168.941 273.98 168.809 273.569 168.604C273.158 168.399 272.872 168.127 272.711 167.79C272.55 167.453 272.469 167.064 272.469 166.624C272.469 166.419 272.469 166.199 272.469 165.964C272.469 165.729 272.469 165.495 272.469 165.26C272.469 165.011 272.469 164.798 272.469 164.622ZM288.975 163.742C288.975 164.578 288.851 165.326 288.601 165.986C288.367 166.631 288.015 167.181 287.545 167.636C287.076 168.076 286.511 168.413 285.851 168.648C285.206 168.883 284.48 169 283.673 169C283.336 169 282.94 169 282.485 169C282.031 169 281.561 169 281.077 169C280.593 169 280.131 169 279.691 169C279.251 169 278.87 169 278.547 169C278.225 169 278.019 169 277.931 169C277.858 169 277.799 168.978 277.755 168.934C277.711 168.89 277.689 168.831 277.689 168.758C277.689 167.629 277.689 166.499 277.689 165.37C277.689 164.226 277.689 163.089 277.689 161.96C277.689 160.816 277.689 159.679 277.689 158.55C277.689 157.406 277.689 156.269 277.689 155.14H281.055L280.857 155.624C280.857 156.02 280.857 156.453 280.857 156.922C280.857 157.377 280.857 157.795 280.857 158.176C280.857 158.88 280.857 159.562 280.857 160.222C280.857 160.882 280.857 161.535 280.857 162.18C280.857 162.825 280.857 163.478 280.857 164.138C280.857 164.798 280.857 165.48 280.857 166.184C281.033 166.184 281.297 166.184 281.649 166.184C282.001 166.184 282.361 166.184 282.727 166.184C283.094 166.184 283.387 166.184 283.607 166.184C284.194 166.184 284.656 166.081 284.993 165.876C285.345 165.671 285.602 165.37 285.763 164.974C285.925 164.578 286.005 164.109 286.005 163.566V159.034C286.005 158.697 285.983 158.396 285.939 158.132C285.895 157.868 285.822 157.641 285.719 157.45C285.631 157.245 285.521 157.069 285.389 156.922C285.257 156.805 285.103 156.709 284.927 156.636C284.751 156.563 284.553 156.511 284.333 156.482C284.128 156.438 283.871 156.416 283.563 156.416C283.109 156.416 282.588 156.416 282.001 156.416C281.415 156.416 280.806 156.416 280.175 156.416C279.559 156.416 278.965 156.416 278.393 156.416C277.821 156.416 277.308 156.416 276.853 156.416C276.809 156.416 276.765 156.409 276.721 156.394C276.692 156.365 276.663 156.335 276.633 156.306C276.619 156.262 276.611 156.218 276.611 156.174C276.611 155.778 276.611 155.353 276.611 154.898C276.611 154.429 276.611 153.996 276.611 153.6C277.066 153.6 277.579 153.6 278.151 153.6C278.738 153.6 279.347 153.6 279.977 153.6C280.608 153.6 281.217 153.6 281.803 153.6C282.405 153.6 282.947 153.6 283.431 153.6C284.414 153.6 285.257 153.725 285.961 153.974C286.665 154.209 287.237 154.561 287.677 155.03C288.132 155.485 288.462 156.035 288.667 156.68C288.873 157.311 288.975 158.029 288.975 158.836V163.742ZM296.678 167.35H293.422L293.51 166.448C293.51 166.199 293.51 165.92 293.51 165.612C293.51 165.304 293.51 165.025 293.51 164.776C293.51 163.984 293.51 163.192 293.51 162.4C293.51 161.608 293.51 160.823 293.51 160.046C293.51 159.254 293.51 158.462 293.51 157.67C293.51 156.863 293.51 156.057 293.51 155.25H296.766L296.678 156.152C296.678 156.387 296.678 156.651 296.678 156.944C296.678 157.237 296.678 157.509 296.678 157.758C296.678 158.565 296.678 159.371 296.678 160.178C296.678 160.97 296.678 161.769 296.678 162.576C296.678 163.368 296.678 164.16 296.678 164.952C296.678 165.744 296.678 166.543 296.678 167.35ZM299.032 169H291.398C291.368 169 291.339 168.993 291.31 168.978C291.28 168.963 291.251 168.949 291.222 168.934C291.207 168.905 291.192 168.875 291.178 168.846C291.163 168.817 291.156 168.787 291.156 168.758C291.156 168.465 291.156 168.186 291.156 167.922C291.156 167.658 291.156 167.401 291.156 167.152C291.156 166.888 291.156 166.609 291.156 166.316H298.768C298.812 166.316 298.856 166.331 298.9 166.36C298.944 166.375 298.973 166.404 298.988 166.448C299.017 166.477 299.032 166.514 299.032 166.558C299.032 166.851 299.032 167.13 299.032 167.394C299.032 167.643 299.032 167.9 299.032 168.164C299.032 168.428 299.032 168.707 299.032 169ZM291.156 153.6H298.768C298.856 153.6 298.922 153.622 298.966 153.666C299.01 153.71 299.032 153.769 299.032 153.842C299.032 154.047 299.032 154.253 299.032 154.458C299.032 154.663 299.032 154.869 299.032 155.074C299.032 155.265 299.032 155.463 299.032 155.668C299.032 155.859 299.032 156.064 299.032 156.284H291.398C291.339 156.284 291.28 156.262 291.222 156.218C291.178 156.159 291.156 156.101 291.156 156.042C291.156 155.822 291.156 155.617 291.156 155.426C291.156 155.221 291.156 155.023 291.156 154.832C291.156 154.627 291.156 154.421 291.156 154.216C291.156 154.011 291.156 153.805 291.156 153.6ZM304.774 169C304.319 169 303.864 169 303.41 169C302.955 169 302.493 169 302.024 169C301.98 169 301.936 168.993 301.892 168.978C301.862 168.949 301.833 168.919 301.804 168.89C301.789 168.846 301.782 168.802 301.782 168.758C301.782 167.687 301.782 166.617 301.782 165.546C301.782 164.475 301.782 163.412 301.782 162.356C301.782 161.285 301.782 160.215 301.782 159.144C301.782 158.059 301.782 156.988 301.782 155.932C301.782 155.536 301.782 155.147 301.782 154.766C301.782 154.37 301.782 153.981 301.782 153.6C302.104 153.6 302.464 153.6 302.86 153.6C303.256 153.6 303.652 153.6 304.048 153.6C304.458 153.6 304.81 153.6 305.104 153.6C305.192 153.6 305.258 153.615 305.302 153.644C305.346 153.659 305.397 153.71 305.456 153.798C305.514 153.886 305.602 154.047 305.72 154.282C306.057 154.913 306.387 155.529 306.71 156.13C307.032 156.717 307.348 157.303 307.656 157.89C307.978 158.477 308.286 159.063 308.58 159.65C308.888 160.222 309.188 160.794 309.482 161.366C309.79 161.938 310.09 162.517 310.384 163.104C310.692 163.676 310.985 164.263 311.264 164.864L310.406 164.27H311.902L311.44 164.534C311.322 163.874 311.22 163.258 311.132 162.686C311.058 162.114 310.992 161.571 310.934 161.058C310.875 160.53 310.831 160.024 310.802 159.54C310.772 159.041 310.75 158.557 310.736 158.088C310.721 157.604 310.714 157.113 310.714 156.614C310.714 156.189 310.714 155.719 310.714 155.206C310.714 154.678 310.714 154.143 310.714 153.6C311.183 153.6 311.645 153.6 312.1 153.6C312.554 153.6 313.009 153.6 313.464 153.6C313.537 153.6 313.596 153.622 313.64 153.666C313.684 153.71 313.706 153.769 313.706 153.842C313.706 154.898 313.706 155.961 313.706 157.032C313.706 158.088 313.706 159.151 313.706 160.222C313.706 161.278 313.706 162.334 313.706 163.39C313.706 164.446 313.706 165.509 313.706 166.58C313.706 166.991 313.706 167.401 313.706 167.812C313.706 168.208 313.706 168.604 313.706 169C313.412 169 313.104 169 312.782 169C312.459 169 312.144 169 311.836 169C311.528 169 311.249 169 311 169C310.912 169 310.809 168.971 310.692 168.912C310.574 168.839 310.42 168.633 310.23 168.296C309.584 167.196 308.99 166.169 308.448 165.216C307.905 164.248 307.399 163.324 306.93 162.444C306.46 161.564 306.006 160.699 305.566 159.848C305.14 158.983 304.708 158.095 304.268 157.186L305.258 157.934H303.74L304.136 157.604C304.253 158.293 304.341 158.946 304.4 159.562C304.473 160.178 304.532 160.765 304.576 161.322C304.634 161.865 304.678 162.385 304.708 162.884C304.737 163.368 304.752 163.823 304.752 164.248C304.766 164.673 304.774 165.062 304.774 165.414C304.774 165.986 304.774 166.58 304.774 167.196C304.774 167.797 304.774 168.399 304.774 169ZM322.294 160.574H328.124C328.168 160.574 328.205 160.589 328.234 160.618C328.278 160.633 328.308 160.662 328.322 160.706C328.352 160.735 328.366 160.772 328.366 160.816V163.17H322.536C322.492 163.17 322.456 163.17 322.426 163.17C322.397 163.155 322.368 163.141 322.338 163.126C322.324 163.097 322.309 163.067 322.294 163.038C322.294 163.009 322.294 162.972 322.294 162.928C322.294 162.532 322.294 162.143 322.294 161.762C322.294 161.366 322.294 160.97 322.294 160.574ZM322.514 153.16C323.145 153.16 323.717 153.204 324.23 153.292C324.758 153.365 325.22 153.468 325.616 153.6C326.027 153.732 326.379 153.879 326.672 154.04C326.966 154.201 327.193 154.37 327.354 154.546C327.413 154.59 327.45 154.641 327.464 154.7C327.479 154.759 327.486 154.825 327.486 154.898C327.486 155.191 327.486 155.529 327.486 155.91C327.486 156.277 327.486 156.651 327.486 157.032C327.486 157.399 327.486 157.751 327.486 158.088C327.061 158.088 326.636 158.088 326.21 158.088C325.785 158.088 325.36 158.088 324.934 158.088C324.861 158.088 324.802 158.066 324.758 158.022C324.714 157.978 324.692 157.919 324.692 157.846C324.692 157.655 324.692 157.45 324.692 157.23C324.692 157.01 324.692 156.775 324.692 156.526C324.692 156.277 324.692 155.991 324.692 155.668L325.286 156.614C324.905 156.394 324.472 156.24 323.988 156.152C323.519 156.049 322.969 155.998 322.338 155.998C321.825 155.998 321.363 156.064 320.952 156.196C320.542 156.328 320.197 156.533 319.918 156.812C319.64 157.076 319.427 157.413 319.28 157.824C319.134 158.235 319.06 158.719 319.06 159.276V163.61C319.06 164.138 319.134 164.6 319.28 164.996C319.427 165.392 319.618 165.707 319.852 165.942C320.087 166.177 320.388 166.36 320.754 166.492C321.136 166.609 321.634 166.668 322.25 166.668C322.646 166.668 323.013 166.639 323.35 166.58C323.688 166.507 323.974 166.411 324.208 166.294C324.458 166.177 324.641 166.067 324.758 165.964C324.758 165.48 324.758 165.04 324.758 164.644C324.758 164.248 324.758 163.859 324.758 163.478C324.758 163.082 324.758 162.671 324.758 162.246H327.662L327.552 162.774C327.552 163.537 327.552 164.263 327.552 164.952C327.552 165.627 327.552 166.36 327.552 167.152C327.552 167.255 327.545 167.335 327.53 167.394C327.516 167.453 327.479 167.511 327.42 167.57C327.142 167.937 326.738 168.259 326.21 168.538C325.697 168.817 325.118 169.037 324.472 169.198C323.827 169.359 323.174 169.44 322.514 169.44C321.385 169.44 320.41 169.301 319.588 169.022C318.782 168.743 318.114 168.347 317.586 167.834C317.073 167.321 316.692 166.697 316.442 165.964C316.208 165.216 316.09 164.387 316.09 163.478V159.166C316.09 158.257 316.222 157.435 316.486 156.702C316.765 155.954 317.168 155.323 317.696 154.81C318.224 154.282 318.892 153.879 319.698 153.6C320.505 153.307 321.444 153.16 322.514 153.16ZM342.869 153.182C343.895 153.182 344.775 153.307 345.509 153.556C346.242 153.791 346.777 154.077 347.115 154.414C347.173 154.473 347.21 154.531 347.225 154.59C347.239 154.649 347.247 154.722 347.247 154.81C347.247 155.089 347.247 155.404 347.247 155.756C347.247 156.108 347.247 156.46 347.247 156.812C347.247 157.164 347.247 157.509 347.247 157.846C346.836 157.846 346.411 157.846 345.971 157.846C345.531 157.846 345.098 157.846 344.673 157.846C344.599 157.846 344.541 157.824 344.497 157.78C344.453 157.736 344.431 157.677 344.431 157.604C344.431 157.457 344.431 157.311 344.431 157.164C344.431 157.017 344.431 156.863 344.431 156.702C344.431 156.526 344.431 156.343 344.431 156.152C344.431 155.961 344.431 155.749 344.431 155.514L345.047 156.306C344.695 156.145 344.35 156.035 344.013 155.976C343.69 155.903 343.309 155.866 342.869 155.866C342.443 155.866 342.069 155.895 341.747 155.954C341.439 156.013 341.175 156.115 340.955 156.262C340.735 156.394 340.566 156.57 340.449 156.79C340.331 156.995 340.273 157.245 340.273 157.538V158C340.273 158.279 340.317 158.521 340.405 158.726C340.507 158.931 340.683 159.107 340.933 159.254C341.197 159.401 341.585 159.555 342.099 159.716L344.211 160.354C344.885 160.559 345.45 160.787 345.905 161.036C346.374 161.271 346.741 161.542 347.005 161.85C347.269 162.158 347.459 162.51 347.577 162.906C347.694 163.302 347.753 163.757 347.753 164.27V165.282C347.753 166.133 347.525 166.873 347.071 167.504C346.616 168.12 345.956 168.597 345.091 168.934C344.24 169.257 343.213 169.418 342.011 169.418C341.307 169.418 340.639 169.374 340.009 169.286C339.393 169.198 338.85 169.066 338.381 168.89C337.926 168.699 337.567 168.487 337.303 168.252C337.259 168.208 337.222 168.164 337.193 168.12C337.178 168.061 337.171 167.966 337.171 167.834C337.171 167.57 337.171 167.313 337.171 167.064C337.171 166.815 337.171 166.551 337.171 166.272C337.171 165.993 337.171 165.707 337.171 165.414H337.589C338.249 165.854 338.938 166.184 339.657 166.404C340.375 166.609 341.226 166.712 342.209 166.712C343.118 166.712 343.778 166.565 344.189 166.272C344.614 165.979 344.827 165.627 344.827 165.216V164.468C344.827 164.219 344.783 164.013 344.695 163.852C344.621 163.676 344.46 163.515 344.211 163.368C343.961 163.207 343.565 163.053 343.023 162.906L340.933 162.268C340.214 162.048 339.62 161.799 339.151 161.52C338.681 161.227 338.315 160.919 338.051 160.596C337.801 160.273 337.618 159.929 337.501 159.562C337.398 159.181 337.347 158.785 337.347 158.374V157.318C337.347 156.717 337.471 156.167 337.721 155.668C337.985 155.155 338.359 154.715 338.843 154.348C339.327 153.967 339.906 153.681 340.581 153.49C341.27 153.285 342.033 153.182 342.869 153.182ZM356.285 169.44C355.229 169.44 354.305 169.301 353.513 169.022C352.721 168.758 352.061 168.369 351.533 167.856C351.005 167.343 350.609 166.712 350.345 165.964C350.096 165.216 349.971 164.365 349.971 163.412V158.968C349.971 158.103 350.103 157.318 350.367 156.614C350.631 155.895 351.02 155.279 351.533 154.766C352.061 154.253 352.699 153.857 353.447 153.578C354.21 153.299 355.075 153.16 356.043 153.16C356.791 153.16 357.459 153.233 358.045 153.38C358.647 153.512 359.153 153.688 359.563 153.908C359.989 154.113 360.319 154.333 360.553 154.568C360.583 154.597 360.605 154.634 360.619 154.678C360.634 154.722 360.641 154.766 360.641 154.81C360.656 154.854 360.663 154.898 360.663 154.942C360.663 155.485 360.663 156.108 360.663 156.812C360.663 157.501 360.663 158.161 360.663 158.792C360.238 158.792 359.813 158.792 359.387 158.792C358.962 158.792 358.537 158.792 358.111 158.792C358.038 158.792 357.979 158.77 357.935 158.726C357.891 158.682 357.869 158.623 357.869 158.55C357.869 158.286 357.869 158.022 357.869 157.758C357.869 157.494 357.869 157.201 357.869 156.878C357.869 156.541 357.869 156.152 357.869 155.712L358.485 156.636C358.119 156.401 357.737 156.24 357.341 156.152C356.945 156.049 356.498 155.998 355.999 155.998C355.413 155.998 354.899 156.108 354.459 156.328C354.034 156.533 353.704 156.863 353.469 157.318C353.249 157.773 353.139 158.352 353.139 159.056V163.17C353.139 163.83 353.198 164.387 353.315 164.842C353.447 165.282 353.66 165.649 353.953 165.942C354.217 166.206 354.547 166.397 354.943 166.514C355.354 166.617 355.809 166.668 356.307 166.668C357.114 166.668 357.825 166.573 358.441 166.382C359.057 166.191 359.703 165.883 360.377 165.458H360.795C360.795 165.663 360.795 165.869 360.795 166.074C360.795 166.265 360.795 166.463 360.795 166.668C360.795 166.859 360.795 167.057 360.795 167.262C360.795 167.453 360.795 167.658 360.795 167.878C360.795 167.951 360.781 168.017 360.751 168.076C360.737 168.135 360.707 168.179 360.663 168.208C360.458 168.428 360.143 168.633 359.717 168.824C359.292 169 358.786 169.147 358.199 169.264C357.613 169.381 356.975 169.44 356.285 169.44ZM365.038 162.84H369.768C370.002 162.84 370.23 162.84 370.45 162.84C370.67 162.84 370.89 162.84 371.11 162.84L371.88 162.642L372.188 164.05L372.496 165.436H365.236C365.192 165.436 365.148 165.429 365.104 165.414C365.074 165.385 365.045 165.355 365.016 165.326C365.001 165.282 364.994 165.238 364.994 165.194L365.038 162.84ZM365.5 169C365.045 169 364.583 169 364.114 169C363.644 169 363.182 169 362.728 169C362.698 169 362.669 168.993 362.64 168.978C362.61 168.963 362.581 168.934 362.552 168.89C362.537 168.846 362.537 168.787 362.552 168.714C362.654 168.347 362.779 167.856 362.926 167.24C363.087 166.609 363.263 165.905 363.454 165.128C363.644 164.336 363.85 163.507 364.07 162.642C364.29 161.762 364.51 160.882 364.73 160.002C364.95 159.122 365.155 158.271 365.346 157.45C365.551 156.629 365.734 155.888 365.896 155.228C366.072 154.568 366.218 154.018 366.336 153.578C367.172 153.578 368.03 153.578 368.91 153.578C369.804 153.578 370.604 153.578 371.308 153.578C371.366 153.578 371.41 153.593 371.44 153.622C371.469 153.637 371.491 153.659 371.506 153.688C371.535 153.717 371.557 153.761 371.572 153.82C371.777 154.641 371.997 155.514 372.232 156.438C372.466 157.362 372.708 158.337 372.958 159.364C373.222 160.376 373.486 161.432 373.75 162.532C374.028 163.632 374.307 164.769 374.586 165.942C374.703 166.426 374.82 166.925 374.938 167.438C375.07 167.951 375.18 168.472 375.268 169C374.857 169 374.41 169 373.926 169C373.442 169 372.987 169 372.562 169C372.474 169 372.4 168.993 372.342 168.978C372.298 168.949 372.261 168.905 372.232 168.846C372.217 168.787 372.188 168.699 372.144 168.582C371.821 167.247 371.52 166.023 371.242 164.908C370.963 163.779 370.706 162.745 370.472 161.806C370.237 160.867 370.032 160.017 369.856 159.254C369.694 158.477 369.548 157.773 369.416 157.142C369.284 156.511 369.181 155.947 369.108 155.448L369.966 155.976H367.92L368.778 155.448C368.69 155.947 368.58 156.511 368.448 157.142C368.316 157.758 368.154 158.455 367.964 159.232C367.788 160.009 367.575 160.882 367.326 161.85C367.076 162.803 366.805 163.874 366.512 165.062C366.218 166.235 365.881 167.548 365.5 169ZM377.916 169C377.887 169 377.858 168.993 377.828 168.978C377.799 168.963 377.77 168.949 377.74 168.934C377.726 168.905 377.711 168.875 377.696 168.846C377.682 168.817 377.674 168.787 377.674 168.758C377.674 167.629 377.674 166.492 377.674 165.348C377.674 164.204 377.674 163.067 377.674 161.938C377.674 160.809 377.674 159.701 377.674 158.616C377.674 157.516 377.674 156.453 377.674 155.426C377.674 155.118 377.674 154.817 377.674 154.524C377.674 154.216 377.674 153.908 377.674 153.6C378.173 153.6 378.664 153.6 379.148 153.6C379.632 153.6 380.116 153.6 380.6 153.6C380.644 153.6 380.681 153.615 380.71 153.644C380.754 153.659 380.784 153.688 380.798 153.732C380.828 153.761 380.842 153.798 380.842 153.842C380.842 154.869 380.842 155.903 380.842 156.944C380.842 157.985 380.842 159.034 380.842 160.09C380.842 161.131 380.842 162.173 380.842 163.214C380.842 164.255 380.842 165.289 380.842 166.316H384.67C385.052 166.316 385.374 166.367 385.638 166.47C385.917 166.558 386.144 166.712 386.32 166.932C386.496 167.152 386.636 167.431 386.738 167.768C386.856 168.105 386.958 168.516 387.046 169H377.916ZM384.252 164.622C384.546 164.622 384.832 164.622 385.11 164.622C385.389 164.622 385.66 164.622 385.924 164.622C386.203 164.622 386.496 164.622 386.804 164.622C386.848 164.622 386.885 164.637 386.914 164.666C386.958 164.681 386.988 164.71 387.002 164.754C387.032 164.783 387.046 164.82 387.046 164.864C387.046 165.143 387.046 165.458 387.046 165.81C387.046 166.162 387.046 166.536 387.046 166.932C387.046 167.313 387.046 167.687 387.046 168.054C387.046 168.406 387.046 168.721 387.046 169C386.328 168.941 385.763 168.809 385.352 168.604C384.942 168.399 384.656 168.127 384.494 167.79C384.333 167.453 384.252 167.064 384.252 166.624C384.252 166.419 384.252 166.199 384.252 165.964C384.252 165.729 384.252 165.495 384.252 165.26C384.252 165.011 384.252 164.798 384.252 164.622ZM391.442 162.84H396.172C396.407 162.84 396.634 162.84 396.854 162.84C397.074 162.84 397.294 162.84 397.514 162.84L398.284 162.642L398.592 164.05L398.9 165.436H391.64C391.596 165.436 391.552 165.429 391.508 165.414C391.479 165.385 391.449 165.355 391.42 165.326C391.405 165.282 391.398 165.238 391.398 165.194L391.442 162.84ZM391.904 169C391.449 169 390.987 169 390.518 169C390.049 169 389.587 169 389.132 169C389.103 169 389.073 168.993 389.044 168.978C389.015 168.963 388.985 168.934 388.956 168.89C388.941 168.846 388.941 168.787 388.956 168.714C389.059 168.347 389.183 167.856 389.33 167.24C389.491 166.609 389.667 165.905 389.858 165.128C390.049 164.336 390.254 163.507 390.474 162.642C390.694 161.762 390.914 160.882 391.134 160.002C391.354 159.122 391.559 158.271 391.75 157.45C391.955 156.629 392.139 155.888 392.3 155.228C392.476 154.568 392.623 154.018 392.74 153.578C393.576 153.578 394.434 153.578 395.314 153.578C396.209 153.578 397.008 153.578 397.712 153.578C397.771 153.578 397.815 153.593 397.844 153.622C397.873 153.637 397.895 153.659 397.91 153.688C397.939 153.717 397.961 153.761 397.976 153.82C398.181 154.641 398.401 155.514 398.636 156.438C398.871 157.362 399.113 158.337 399.362 159.364C399.626 160.376 399.89 161.432 400.154 162.532C400.433 163.632 400.711 164.769 400.99 165.942C401.107 166.426 401.225 166.925 401.342 167.438C401.474 167.951 401.584 168.472 401.672 169C401.261 169 400.814 169 400.33 169C399.846 169 399.391 169 398.966 169C398.878 169 398.805 168.993 398.746 168.978C398.702 168.949 398.665 168.905 398.636 168.846C398.621 168.787 398.592 168.699 398.548 168.582C398.225 167.247 397.925 166.023 397.646 164.908C397.367 163.779 397.111 162.745 396.876 161.806C396.641 160.867 396.436 160.017 396.26 159.254C396.099 158.477 395.952 157.773 395.82 157.142C395.688 156.511 395.585 155.947 395.512 155.448L396.37 155.976H394.324L395.182 155.448C395.094 155.947 394.984 156.511 394.852 157.142C394.72 157.758 394.559 158.455 394.368 159.232C394.192 160.009 393.979 160.882 393.73 161.85C393.481 162.803 393.209 163.874 392.916 165.062C392.623 166.235 392.285 167.548 391.904 169ZM409.54 169C409.1 169 408.586 169 408 169C407.428 169 406.87 169 406.328 169C405.785 169 405.316 169 404.92 169C404.524 169 404.296 169 404.238 169C404.164 169 404.106 168.978 404.062 168.934C404.018 168.89 403.996 168.831 403.996 168.758C403.996 167.555 403.996 166.404 403.996 165.304C403.996 164.189 403.996 163.097 403.996 162.026C403.996 160.941 403.996 159.848 403.996 158.748C403.996 157.633 403.996 156.475 403.996 155.272H407.208L407.054 155.712C407.054 156.196 407.054 156.658 407.054 157.098C407.054 157.538 407.054 157.971 407.054 158.396C407.054 159.056 407.054 159.709 407.054 160.354C407.054 160.985 407.054 161.623 407.054 162.268C407.054 162.913 407.054 163.581 407.054 164.27C407.054 164.945 407.054 165.641 407.054 166.36C407.303 166.36 407.538 166.36 407.758 166.36C407.992 166.36 408.227 166.36 408.462 166.36C408.696 166.36 408.931 166.36 409.166 166.36C409.591 166.36 409.936 166.301 410.2 166.184C410.478 166.052 410.684 165.869 410.816 165.634C410.948 165.385 411.014 165.091 411.014 164.754V164.072C411.014 163.72 410.948 163.427 410.816 163.192C410.684 162.957 410.471 162.781 410.178 162.664C409.899 162.547 409.518 162.488 409.034 162.488H405.492L405.602 160.618H411.344V161.41C412.224 161.542 412.898 161.879 413.368 162.422C413.852 162.95 414.094 163.683 414.094 164.622V165.238C414.094 166.133 413.903 166.859 413.522 167.416C413.14 167.959 412.612 168.362 411.938 168.626C411.263 168.875 410.464 169 409.54 169ZM402.918 153.6C403.959 153.6 405 153.6 406.042 153.6C407.083 153.6 408.117 153.6 409.144 153.6C410.068 153.6 410.838 153.703 411.454 153.908C412.084 154.099 412.583 154.363 412.95 154.7C413.331 155.037 413.61 155.426 413.786 155.866C413.962 156.306 414.05 156.753 414.05 157.208V157.714C414.05 158.271 413.947 158.763 413.742 159.188C413.536 159.599 413.243 159.943 412.862 160.222C412.495 160.501 412.048 160.713 411.52 160.86C410.992 160.992 410.405 161.058 409.76 161.058C408.909 161.058 408.183 161.058 407.582 161.058C406.995 161.058 406.46 161.058 405.976 161.058L405.602 161.344L405.492 159.936C406.093 159.936 406.694 159.936 407.296 159.936C407.897 159.936 408.491 159.936 409.078 159.936C409.532 159.936 409.899 159.877 410.178 159.76C410.456 159.628 410.654 159.437 410.772 159.188C410.904 158.924 410.97 158.616 410.97 158.264V157.714C410.97 157.494 410.94 157.296 410.882 157.12C410.823 156.929 410.728 156.775 410.596 156.658C410.449 156.511 410.258 156.409 410.024 156.35C409.789 156.277 409.503 156.24 409.166 156.24C408.506 156.24 407.838 156.24 407.164 156.24C406.504 156.24 405.836 156.24 405.162 156.24C404.502 156.24 403.834 156.24 403.16 156.24C403.086 156.24 403.028 156.218 402.984 156.174C402.94 156.13 402.918 156.071 402.918 155.998C402.918 155.558 402.918 155.155 402.918 154.788C402.918 154.421 402.918 154.025 402.918 153.6ZM417.297 169C417.268 169 417.239 168.993 417.209 168.978C417.18 168.963 417.151 168.949 417.121 168.934C417.107 168.905 417.092 168.875 417.077 168.846C417.063 168.817 417.055 168.787 417.055 168.758C417.055 167.629 417.055 166.492 417.055 165.348C417.055 164.204 417.055 163.067 417.055 161.938C417.055 160.809 417.055 159.701 417.055 158.616C417.055 157.516 417.055 156.453 417.055 155.426C417.055 155.118 417.055 154.817 417.055 154.524C417.055 154.216 417.055 153.908 417.055 153.6C417.554 153.6 418.045 153.6 418.529 153.6C419.013 153.6 419.497 153.6 419.981 153.6C420.025 153.6 420.062 153.615 420.091 153.644C420.135 153.659 420.165 153.688 420.179 153.732C420.209 153.761 420.223 153.798 420.223 153.842C420.223 154.869 420.223 155.903 420.223 156.944C420.223 157.985 420.223 159.034 420.223 160.09C420.223 161.131 420.223 162.173 420.223 163.214C420.223 164.255 420.223 165.289 420.223 166.316H424.051C424.433 166.316 424.755 166.367 425.019 166.47C425.298 166.558 425.525 166.712 425.701 166.932C425.877 167.152 426.017 167.431 426.119 167.768C426.237 168.105 426.339 168.516 426.427 169H417.297ZM423.633 164.622C423.927 164.622 424.213 164.622 424.491 164.622C424.77 164.622 425.041 164.622 425.305 164.622C425.584 164.622 425.877 164.622 426.185 164.622C426.229 164.622 426.266 164.637 426.295 164.666C426.339 164.681 426.369 164.71 426.383 164.754C426.413 164.783 426.427 164.82 426.427 164.864C426.427 165.143 426.427 165.458 426.427 165.81C426.427 166.162 426.427 166.536 426.427 166.932C426.427 167.313 426.427 167.687 426.427 168.054C426.427 168.406 426.427 168.721 426.427 169C425.709 168.941 425.144 168.809 424.733 168.604C424.323 168.399 424.037 168.127 423.875 167.79C423.714 167.453 423.633 167.064 423.633 166.624C423.633 166.419 423.633 166.199 423.633 165.964C423.633 165.729 423.633 165.495 423.633 165.26C423.633 165.011 423.633 164.798 423.633 164.622ZM427.753 153.6H437.851C437.895 153.6 437.932 153.615 437.961 153.644C437.991 153.659 438.02 153.688 438.049 153.732C438.079 153.761 438.093 153.798 438.093 153.842C438.093 154.297 438.093 154.707 438.093 155.074C438.093 155.426 438.093 155.829 438.093 156.284H427.995C427.951 156.284 427.907 156.277 427.863 156.262C427.834 156.233 427.805 156.203 427.775 156.174C427.761 156.13 427.753 156.086 427.753 156.042C427.753 155.587 427.753 155.177 427.753 154.81C427.753 154.443 427.753 154.04 427.753 153.6ZM430.767 159.958H436.553C436.597 159.958 436.634 159.973 436.663 160.002C436.707 160.031 436.737 160.061 436.751 160.09C436.781 160.119 436.795 160.156 436.795 160.2C436.795 160.508 436.795 160.794 436.795 161.058C436.795 161.307 436.795 161.557 436.795 161.806C436.795 162.041 436.795 162.29 436.795 162.554H430.767V159.958ZM429.073 169C429.029 169 428.993 168.993 428.963 168.978C428.934 168.963 428.905 168.949 428.875 168.934C428.861 168.905 428.846 168.875 428.831 168.846C428.817 168.817 428.809 168.787 428.809 168.758C428.809 168.362 428.809 167.79 428.809 167.042C428.809 166.279 428.809 165.414 428.809 164.446C428.809 163.463 428.809 162.437 428.809 161.366C428.809 160.281 428.809 159.21 428.809 158.154C428.809 157.083 428.809 156.101 428.809 155.206H432.153L431.977 155.69C431.977 156.027 431.977 156.372 431.977 156.724C431.977 157.076 431.977 157.428 431.977 157.78C431.977 158.455 431.977 159.151 431.977 159.87C431.977 160.589 431.977 161.307 431.977 162.026C431.977 162.745 431.977 163.471 431.977 164.204C431.977 164.923 431.977 165.627 431.977 166.316H437.851C437.925 166.316 437.983 166.338 438.027 166.382C438.071 166.426 438.093 166.485 438.093 166.558C438.093 166.983 438.093 167.394 438.093 167.79C438.093 168.171 438.093 168.575 438.093 169H429.073ZM449.085 162.84H453.815C454.049 162.84 454.277 162.84 454.497 162.84C454.717 162.84 454.937 162.84 455.157 162.84L455.927 162.642L456.235 164.05L456.543 165.436H449.283C449.239 165.436 449.195 165.429 449.151 165.414C449.121 165.385 449.092 165.355 449.063 165.326C449.048 165.282 449.041 165.238 449.041 165.194L449.085 162.84ZM449.547 169C449.092 169 448.63 169 448.161 169C447.691 169 447.229 169 446.775 169C446.745 169 446.716 168.993 446.687 168.978C446.657 168.963 446.628 168.934 446.599 168.89C446.584 168.846 446.584 168.787 446.599 168.714C446.701 168.347 446.826 167.856 446.973 167.24C447.134 166.609 447.31 165.905 447.501 165.128C447.691 164.336 447.897 163.507 448.117 162.642C448.337 161.762 448.557 160.882 448.777 160.002C448.997 159.122 449.202 158.271 449.393 157.45C449.598 156.629 449.781 155.888 449.943 155.228C450.119 154.568 450.265 154.018 450.383 153.578C451.219 153.578 452.077 153.578 452.957 153.578C453.851 153.578 454.651 153.578 455.355 153.578C455.413 153.578 455.457 153.593 455.487 153.622C455.516 153.637 455.538 153.659 455.553 153.688C455.582 153.717 455.604 153.761 455.619 153.82C455.824 154.641 456.044 155.514 456.279 156.438C456.513 157.362 456.755 158.337 457.005 159.364C457.269 160.376 457.533 161.432 457.797 162.532C458.075 163.632 458.354 164.769 458.633 165.942C458.75 166.426 458.867 166.925 458.985 167.438C459.117 167.951 459.227 168.472 459.315 169C458.904 169 458.457 169 457.973 169C457.489 169 457.034 169 456.609 169C456.521 169 456.447 168.993 456.389 168.978C456.345 168.949 456.308 168.905 456.279 168.846C456.264 168.787 456.235 168.699 456.191 168.582C455.868 167.247 455.567 166.023 455.289 164.908C455.01 163.779 454.753 162.745 454.519 161.806C454.284 160.867 454.079 160.017 453.903 159.254C453.741 158.477 453.595 157.773 453.463 157.142C453.331 156.511 453.228 155.947 453.155 155.448L454.013 155.976H451.967L452.825 155.448C452.737 155.947 452.627 156.511 452.495 157.142C452.363 157.758 452.201 158.455 452.011 159.232C451.835 160.009 451.622 160.882 451.373 161.85C451.123 162.803 450.852 163.874 450.559 165.062C450.265 166.235 449.928 167.548 449.547 169ZM464.295 169C463.841 169 463.386 169 462.931 169C462.477 169 462.015 169 461.545 169C461.501 169 461.457 168.993 461.413 168.978C461.384 168.949 461.355 168.919 461.325 168.89C461.311 168.846 461.303 168.802 461.303 168.758C461.303 167.687 461.303 166.617 461.303 165.546C461.303 164.475 461.303 163.412 461.303 162.356C461.303 161.285 461.303 160.215 461.303 159.144C461.303 158.059 461.303 156.988 461.303 155.932C461.303 155.536 461.303 155.147 461.303 154.766C461.303 154.37 461.303 153.981 461.303 153.6C461.626 153.6 461.985 153.6 462.381 153.6C462.777 153.6 463.173 153.6 463.569 153.6C463.98 153.6 464.332 153.6 464.625 153.6C464.713 153.6 464.779 153.615 464.823 153.644C464.867 153.659 464.919 153.71 464.977 153.798C465.036 153.886 465.124 154.047 465.241 154.282C465.579 154.913 465.909 155.529 466.231 156.13C466.554 156.717 466.869 157.303 467.177 157.89C467.5 158.477 467.808 159.063 468.101 159.65C468.409 160.222 468.71 160.794 469.003 161.366C469.311 161.938 469.612 162.517 469.905 163.104C470.213 163.676 470.507 164.263 470.785 164.864L469.927 164.27H471.423L470.961 164.534C470.844 163.874 470.741 163.258 470.653 162.686C470.58 162.114 470.514 161.571 470.455 161.058C470.397 160.53 470.353 160.024 470.323 159.54C470.294 159.041 470.272 158.557 470.257 158.088C470.243 157.604 470.235 157.113 470.235 156.614C470.235 156.189 470.235 155.719 470.235 155.206C470.235 154.678 470.235 154.143 470.235 153.6C470.705 153.6 471.167 153.6 471.621 153.6C472.076 153.6 472.531 153.6 472.985 153.6C473.059 153.6 473.117 153.622 473.161 153.666C473.205 153.71 473.227 153.769 473.227 153.842C473.227 154.898 473.227 155.961 473.227 157.032C473.227 158.088 473.227 159.151 473.227 160.222C473.227 161.278 473.227 162.334 473.227 163.39C473.227 164.446 473.227 165.509 473.227 166.58C473.227 166.991 473.227 167.401 473.227 167.812C473.227 168.208 473.227 168.604 473.227 169C472.934 169 472.626 169 472.303 169C471.981 169 471.665 169 471.357 169C471.049 169 470.771 169 470.521 169C470.433 169 470.331 168.971 470.213 168.912C470.096 168.839 469.942 168.633 469.751 168.296C469.106 167.196 468.512 166.169 467.969 165.216C467.427 164.248 466.921 163.324 466.451 162.444C465.982 161.564 465.527 160.699 465.087 159.848C464.662 158.983 464.229 158.095 463.789 157.186L464.779 157.934H463.261L463.657 157.604C463.775 158.293 463.863 158.946 463.921 159.562C463.995 160.178 464.053 160.765 464.097 161.322C464.156 161.865 464.2 162.385 464.229 162.884C464.259 163.368 464.273 163.823 464.273 164.248C464.288 164.673 464.295 165.062 464.295 165.414C464.295 165.986 464.295 166.58 464.295 167.196C464.295 167.797 464.295 168.399 464.295 169ZM477.702 162.84H482.432C482.666 162.84 482.894 162.84 483.114 162.84C483.334 162.84 483.554 162.84 483.774 162.84L484.544 162.642L484.852 164.05L485.16 165.436H477.9C477.856 165.436 477.812 165.429 477.768 165.414C477.738 165.385 477.709 165.355 477.68 165.326C477.665 165.282 477.658 165.238 477.658 165.194L477.702 162.84ZM478.164 169C477.709 169 477.247 169 476.778 169C476.308 169 475.846 169 475.392 169C475.362 169 475.333 168.993 475.304 168.978C475.274 168.963 475.245 168.934 475.216 168.89C475.201 168.846 475.201 168.787 475.216 168.714C475.318 168.347 475.443 167.856 475.59 167.24C475.751 166.609 475.927 165.905 476.118 165.128C476.308 164.336 476.514 163.507 476.734 162.642C476.954 161.762 477.174 160.882 477.394 160.002C477.614 159.122 477.819 158.271 478.01 157.45C478.215 156.629 478.398 155.888 478.56 155.228C478.736 154.568 478.882 154.018 479 153.578C479.836 153.578 480.694 153.578 481.574 153.578C482.468 153.578 483.268 153.578 483.972 153.578C484.03 153.578 484.074 153.593 484.104 153.622C484.133 153.637 484.155 153.659 484.17 153.688C484.199 153.717 484.221 153.761 484.236 153.82C484.441 154.641 484.661 155.514 484.896 156.438C485.13 157.362 485.372 158.337 485.622 159.364C485.886 160.376 486.15 161.432 486.414 162.532C486.692 163.632 486.971 164.769 487.25 165.942C487.367 166.426 487.484 166.925 487.602 167.438C487.734 167.951 487.844 168.472 487.932 169C487.521 169 487.074 169 486.59 169C486.106 169 485.651 169 485.226 169C485.138 169 485.064 168.993 485.006 168.978C484.962 168.949 484.925 168.905 484.896 168.846C484.881 168.787 484.852 168.699 484.808 168.582C484.485 167.247 484.184 166.023 483.906 164.908C483.627 163.779 483.37 162.745 483.136 161.806C482.901 160.867 482.696 160.017 482.52 159.254C482.358 158.477 482.212 157.773 482.08 157.142C481.948 156.511 481.845 155.947 481.772 155.448L482.63 155.976H480.584L481.442 155.448C481.354 155.947 481.244 156.511 481.112 157.142C480.98 157.758 480.818 158.455 480.628 159.232C480.452 160.009 480.239 160.882 479.99 161.85C479.74 162.803 479.469 163.874 479.176 165.062C478.882 166.235 478.545 167.548 478.164 169ZM490.58 169C490.551 169 490.522 168.993 490.492 168.978C490.463 168.963 490.434 168.949 490.404 168.934C490.39 168.905 490.375 168.875 490.36 168.846C490.346 168.817 490.338 168.787 490.338 168.758C490.338 167.629 490.338 166.492 490.338 165.348C490.338 164.204 490.338 163.067 490.338 161.938C490.338 160.809 490.338 159.701 490.338 158.616C490.338 157.516 490.338 156.453 490.338 155.426C490.338 155.118 490.338 154.817 490.338 154.524C490.338 154.216 490.338 153.908 490.338 153.6C490.837 153.6 491.328 153.6 491.812 153.6C492.296 153.6 492.78 153.6 493.264 153.6C493.308 153.6 493.345 153.615 493.374 153.644C493.418 153.659 493.448 153.688 493.462 153.732C493.492 153.761 493.506 153.798 493.506 153.842C493.506 154.869 493.506 155.903 493.506 156.944C493.506 157.985 493.506 159.034 493.506 160.09C493.506 161.131 493.506 162.173 493.506 163.214C493.506 164.255 493.506 165.289 493.506 166.316H497.334C497.716 166.316 498.038 166.367 498.302 166.47C498.581 166.558 498.808 166.712 498.984 166.932C499.16 167.152 499.3 167.431 499.402 167.768C499.52 168.105 499.622 168.516 499.71 169H490.58ZM496.916 164.622C497.21 164.622 497.496 164.622 497.774 164.622C498.053 164.622 498.324 164.622 498.588 164.622C498.867 164.622 499.16 164.622 499.468 164.622C499.512 164.622 499.549 164.637 499.578 164.666C499.622 164.681 499.652 164.71 499.666 164.754C499.696 164.783 499.71 164.82 499.71 164.864C499.71 165.143 499.71 165.458 499.71 165.81C499.71 166.162 499.71 166.536 499.71 166.932C499.71 167.313 499.71 167.687 499.71 168.054C499.71 168.406 499.71 168.721 499.71 169C498.992 168.941 498.427 168.809 498.016 168.604C497.606 168.399 497.32 168.127 497.158 167.79C496.997 167.453 496.916 167.064 496.916 166.624C496.916 166.419 496.916 166.199 496.916 165.964C496.916 165.729 496.916 165.495 496.916 165.26C496.916 165.011 496.916 164.798 496.916 164.622ZM507.371 169C507.048 169 506.718 169 506.381 169C506.058 169 505.735 169 505.413 169C505.105 169 504.782 169 504.445 169C504.401 169 504.357 168.993 504.313 168.978C504.283 168.949 504.254 168.919 504.225 168.89C504.21 168.861 504.203 168.817 504.203 168.758C504.203 167.717 504.203 166.646 504.203 165.546C504.203 164.446 504.203 163.375 504.203 162.334H507.371C507.371 162.803 507.371 163.295 507.371 163.808C507.371 164.321 507.371 164.835 507.371 165.348C507.371 165.847 507.371 166.331 507.371 166.8C507.371 167.167 507.371 167.533 507.371 167.9C507.371 168.267 507.371 168.633 507.371 169ZM499.077 153.6C499.605 153.6 500.111 153.6 500.595 153.6C501.093 153.6 501.57 153.6 502.025 153.6C502.127 153.6 502.208 153.615 502.267 153.644C502.34 153.673 502.399 153.725 502.443 153.798C502.501 153.857 502.56 153.952 502.619 154.084C502.941 154.729 503.249 155.36 503.543 155.976C503.836 156.592 504.115 157.215 504.379 157.846C504.657 158.477 504.914 159.129 505.149 159.804C505.398 160.479 505.633 161.19 505.853 161.938L505.061 161.19H506.733L505.919 161.938C506.139 161.161 506.359 160.435 506.579 159.76C506.813 159.071 507.063 158.403 507.327 157.758C507.591 157.098 507.877 156.431 508.185 155.756C508.493 155.081 508.83 154.363 509.197 153.6C509.71 153.6 510.201 153.6 510.671 153.6C511.155 153.6 511.617 153.6 512.057 153.6C512.189 153.6 512.277 153.644 512.321 153.732C512.379 153.805 512.365 153.937 512.277 154.128C511.954 154.759 511.624 155.411 511.287 156.086C510.964 156.746 510.627 157.421 510.275 158.11C509.923 158.785 509.563 159.474 509.197 160.178C508.845 160.882 508.493 161.579 508.141 162.268C507.789 162.943 507.437 163.603 507.085 164.248C506.469 164.248 505.977 164.248 505.611 164.248C505.259 164.248 505.002 164.241 504.841 164.226C504.679 164.211 504.569 164.182 504.511 164.138C504.452 164.094 504.401 164.043 504.357 163.984C504.269 163.823 504.093 163.478 503.829 162.95C503.565 162.422 503.235 161.777 502.839 161.014C502.457 160.251 502.047 159.437 501.607 158.572C501.167 157.692 500.727 156.819 500.287 155.954C499.861 155.089 499.458 154.304 499.077 153.6ZM513.401 153.6H524.093C524.167 153.6 524.225 153.622 524.269 153.666C524.328 153.71 524.357 153.769 524.357 153.842C524.357 154.297 524.357 154.707 524.357 155.074C524.357 155.426 524.357 155.829 524.357 156.284H513.665C513.621 156.284 513.577 156.277 513.533 156.262C513.504 156.233 513.475 156.203 513.445 156.174C513.416 156.13 513.401 156.086 513.401 156.042C513.401 155.587 513.401 155.177 513.401 154.81C513.401 154.443 513.401 154.04 513.401 153.6ZM520.463 169C519.979 169 519.495 169 519.011 169C518.527 169 518.036 169 517.537 169C517.464 169 517.405 168.978 517.361 168.934C517.317 168.89 517.295 168.831 517.295 168.758C517.295 167.57 517.295 166.419 517.295 165.304C517.295 164.189 517.295 163.075 517.295 161.96C517.295 160.831 517.295 159.701 517.295 158.572C517.295 157.428 517.295 156.277 517.295 155.118H520.705L520.463 155.712C520.463 156.005 520.463 156.321 520.463 156.658C520.463 156.981 520.463 157.296 520.463 157.604C520.463 157.912 520.463 158.205 520.463 158.484C520.463 159.423 520.463 160.339 520.463 161.234C520.463 162.114 520.463 163.016 520.463 163.94C520.463 164.849 520.463 165.81 520.463 166.822C520.463 167.233 520.463 167.621 520.463 167.988C520.463 168.355 520.463 168.692 520.463 169ZM532.125 167.35H528.869L528.957 166.448C528.957 166.199 528.957 165.92 528.957 165.612C528.957 165.304 528.957 165.025 528.957 164.776C528.957 163.984 528.957 163.192 528.957 162.4C528.957 161.608 528.957 160.823 528.957 160.046C528.957 159.254 528.957 158.462 528.957 157.67C528.957 156.863 528.957 156.057 528.957 155.25H532.213L532.125 156.152C532.125 156.387 532.125 156.651 532.125 156.944C532.125 157.237 532.125 157.509 532.125 157.758C532.125 158.565 532.125 159.371 532.125 160.178C532.125 160.97 532.125 161.769 532.125 162.576C532.125 163.368 532.125 164.16 532.125 164.952C532.125 165.744 532.125 166.543 532.125 167.35ZM534.479 169H526.845C526.816 169 526.786 168.993 526.757 168.978C526.728 168.963 526.698 168.949 526.669 168.934C526.654 168.905 526.64 168.875 526.625 168.846C526.61 168.817 526.603 168.787 526.603 168.758C526.603 168.465 526.603 168.186 526.603 167.922C526.603 167.658 526.603 167.401 526.603 167.152C526.603 166.888 526.603 166.609 526.603 166.316H534.215C534.259 166.316 534.303 166.331 534.347 166.36C534.391 166.375 534.42 166.404 534.435 166.448C534.464 166.477 534.479 166.514 534.479 166.558C534.479 166.851 534.479 167.13 534.479 167.394C534.479 167.643 534.479 167.9 534.479 168.164C534.479 168.428 534.479 168.707 534.479 169ZM526.603 153.6H534.215C534.303 153.6 534.369 153.622 534.413 153.666C534.457 153.71 534.479 153.769 534.479 153.842C534.479 154.047 534.479 154.253 534.479 154.458C534.479 154.663 534.479 154.869 534.479 155.074C534.479 155.265 534.479 155.463 534.479 155.668C534.479 155.859 534.479 156.064 534.479 156.284H526.845C526.786 156.284 526.728 156.262 526.669 156.218C526.625 156.159 526.603 156.101 526.603 156.042C526.603 155.822 526.603 155.617 526.603 155.426C526.603 155.221 526.603 155.023 526.603 154.832C526.603 154.627 526.603 154.421 526.603 154.216C526.603 154.011 526.603 153.805 526.603 153.6ZM542.877 169.44C541.821 169.44 540.897 169.301 540.105 169.022C539.313 168.758 538.653 168.369 538.125 167.856C537.597 167.343 537.201 166.712 536.937 165.964C536.688 165.216 536.563 164.365 536.563 163.412V158.968C536.563 158.103 536.695 157.318 536.959 156.614C537.223 155.895 537.612 155.279 538.125 154.766C538.653 154.253 539.291 153.857 540.039 153.578C540.802 153.299 541.667 153.16 542.635 153.16C543.383 153.16 544.05 153.233 544.637 153.38C545.238 153.512 545.744 153.688 546.155 153.908C546.58 154.113 546.91 154.333 547.145 154.568C547.174 154.597 547.196 154.634 547.211 154.678C547.226 154.722 547.233 154.766 547.233 154.81C547.248 154.854 547.255 154.898 547.255 154.942C547.255 155.485 547.255 156.108 547.255 156.812C547.255 157.501 547.255 158.161 547.255 158.792C546.83 158.792 546.404 158.792 545.979 158.792C545.554 158.792 545.128 158.792 544.703 158.792C544.63 158.792 544.571 158.77 544.527 158.726C544.483 158.682 544.461 158.623 544.461 158.55C544.461 158.286 544.461 158.022 544.461 157.758C544.461 157.494 544.461 157.201 544.461 156.878C544.461 156.541 544.461 156.152 544.461 155.712L545.077 156.636C544.71 156.401 544.329 156.24 543.933 156.152C543.537 156.049 543.09 155.998 542.591 155.998C542.004 155.998 541.491 156.108 541.051 156.328C540.626 156.533 540.296 156.863 540.061 157.318C539.841 157.773 539.731 158.352 539.731 159.056V163.17C539.731 163.83 539.79 164.387 539.907 164.842C540.039 165.282 540.252 165.649 540.545 165.942C540.809 166.206 541.139 166.397 541.535 166.514C541.946 166.617 542.4 166.668 542.899 166.668C543.706 166.668 544.417 166.573 545.033 166.382C545.649 166.191 546.294 165.883 546.969 165.458H547.387C547.387 165.663 547.387 165.869 547.387 166.074C547.387 166.265 547.387 166.463 547.387 166.668C547.387 166.859 547.387 167.057 547.387 167.262C547.387 167.453 547.387 167.658 547.387 167.878C547.387 167.951 547.372 168.017 547.343 168.076C547.328 168.135 547.299 168.179 547.255 168.208C547.05 168.428 546.734 168.633 546.309 168.824C545.884 169 545.378 169.147 544.791 169.264C544.204 169.381 543.566 169.44 542.877 169.44ZM551.63 162.84H556.36C556.594 162.84 556.822 162.84 557.042 162.84C557.262 162.84 557.482 162.84 557.702 162.84L558.472 162.642L558.78 164.05L559.088 165.436H551.828C551.784 165.436 551.74 165.429 551.696 165.414C551.666 165.385 551.637 165.355 551.608 165.326C551.593 165.282 551.586 165.238 551.586 165.194L551.63 162.84ZM552.092 169C551.637 169 551.175 169 550.706 169C550.236 169 549.774 169 549.32 169C549.29 169 549.261 168.993 549.232 168.978C549.202 168.963 549.173 168.934 549.144 168.89C549.129 168.846 549.129 168.787 549.144 168.714C549.246 168.347 549.371 167.856 549.518 167.24C549.679 166.609 549.855 165.905 550.046 165.128C550.236 164.336 550.442 163.507 550.662 162.642C550.882 161.762 551.102 160.882 551.322 160.002C551.542 159.122 551.747 158.271 551.938 157.45C552.143 156.629 552.326 155.888 552.488 155.228C552.664 154.568 552.81 154.018 552.928 153.578C553.764 153.578 554.622 153.578 555.502 153.578C556.396 153.578 557.196 153.578 557.9 153.578C557.958 153.578 558.002 153.593 558.032 153.622C558.061 153.637 558.083 153.659 558.098 153.688C558.127 153.717 558.149 153.761 558.164 153.82C558.369 154.641 558.589 155.514 558.824 156.438C559.058 157.362 559.3 158.337 559.55 159.364C559.814 160.376 560.078 161.432 560.342 162.532C560.62 163.632 560.899 164.769 561.178 165.942C561.295 166.426 561.412 166.925 561.53 167.438C561.662 167.951 561.772 168.472 561.86 169C561.449 169 561.002 169 560.518 169C560.034 169 559.579 169 559.154 169C559.066 169 558.992 168.993 558.934 168.978C558.89 168.949 558.853 168.905 558.824 168.846C558.809 168.787 558.78 168.699 558.736 168.582C558.413 167.247 558.112 166.023 557.834 164.908C557.555 163.779 557.298 162.745 557.064 161.806C556.829 160.867 556.624 160.017 556.448 159.254C556.286 158.477 556.14 157.773 556.008 157.142C555.876 156.511 555.773 155.947 555.7 155.448L556.558 155.976H554.512L555.37 155.448C555.282 155.947 555.172 156.511 555.04 157.142C554.908 157.758 554.746 158.455 554.556 159.232C554.38 160.009 554.167 160.882 553.918 161.85C553.668 162.803 553.397 163.874 553.104 165.062C552.81 166.235 552.473 167.548 552.092 169ZM564.508 169C564.479 169 564.449 168.993 564.42 168.978C564.391 168.963 564.361 168.949 564.332 168.934C564.317 168.905 564.303 168.875 564.288 168.846C564.273 168.817 564.266 168.787 564.266 168.758C564.266 167.629 564.266 166.492 564.266 165.348C564.266 164.204 564.266 163.067 564.266 161.938C564.266 160.809 564.266 159.701 564.266 158.616C564.266 157.516 564.266 156.453 564.266 155.426C564.266 155.118 564.266 154.817 564.266 154.524C564.266 154.216 564.266 153.908 564.266 153.6C564.765 153.6 565.256 153.6 565.74 153.6C566.224 153.6 566.708 153.6 567.192 153.6C567.236 153.6 567.273 153.615 567.302 153.644C567.346 153.659 567.375 153.688 567.39 153.732C567.419 153.761 567.434 153.798 567.434 153.842C567.434 154.869 567.434 155.903 567.434 156.944C567.434 157.985 567.434 159.034 567.434 160.09C567.434 161.131 567.434 162.173 567.434 163.214C567.434 164.255 567.434 165.289 567.434 166.316H571.262C571.643 166.316 571.966 166.367 572.23 166.47C572.509 166.558 572.736 166.712 572.912 166.932C573.088 167.152 573.227 167.431 573.33 167.768C573.447 168.105 573.55 168.516 573.638 169H564.508ZM570.844 164.622C571.137 164.622 571.423 164.622 571.702 164.622C571.981 164.622 572.252 164.622 572.516 164.622C572.795 164.622 573.088 164.622 573.396 164.622C573.44 164.622 573.477 164.637 573.506 164.666C573.55 164.681 573.579 164.71 573.594 164.754C573.623 164.783 573.638 164.82 573.638 164.864C573.638 165.143 573.638 165.458 573.638 165.81C573.638 166.162 573.638 166.536 573.638 166.932C573.638 167.313 573.638 167.687 573.638 168.054C573.638 168.406 573.638 168.721 573.638 169C572.919 168.941 572.355 168.809 571.944 168.604C571.533 168.399 571.247 168.127 571.086 167.79C570.925 167.453 570.844 167.064 570.844 166.624C570.844 166.419 570.844 166.199 570.844 165.964C570.844 165.729 570.844 165.495 570.844 165.26C570.844 165.011 570.844 164.798 570.844 164.622ZM588.414 153.182C589.44 153.182 590.32 153.307 591.054 153.556C591.787 153.791 592.322 154.077 592.66 154.414C592.718 154.473 592.755 154.531 592.77 154.59C592.784 154.649 592.792 154.722 592.792 154.81C592.792 155.089 592.792 155.404 592.792 155.756C592.792 156.108 592.792 156.46 592.792 156.812C592.792 157.164 592.792 157.509 592.792 157.846C592.381 157.846 591.956 157.846 591.516 157.846C591.076 157.846 590.643 157.846 590.218 157.846C590.144 157.846 590.086 157.824 590.042 157.78C589.998 157.736 589.976 157.677 589.976 157.604C589.976 157.457 589.976 157.311 589.976 157.164C589.976 157.017 589.976 156.863 589.976 156.702C589.976 156.526 589.976 156.343 589.976 156.152C589.976 155.961 589.976 155.749 589.976 155.514L590.592 156.306C590.24 156.145 589.895 156.035 589.558 155.976C589.235 155.903 588.854 155.866 588.414 155.866C587.988 155.866 587.614 155.895 587.292 155.954C586.984 156.013 586.72 156.115 586.5 156.262C586.28 156.394 586.111 156.57 585.994 156.79C585.876 156.995 585.818 157.245 585.818 157.538V158C585.818 158.279 585.862 158.521 585.95 158.726C586.052 158.931 586.228 159.107 586.478 159.254C586.742 159.401 587.13 159.555 587.644 159.716L589.756 160.354C590.43 160.559 590.995 160.787 591.45 161.036C591.919 161.271 592.286 161.542 592.55 161.85C592.814 162.158 593.004 162.51 593.122 162.906C593.239 163.302 593.298 163.757 593.298 164.27V165.282C593.298 166.133 593.07 166.873 592.616 167.504C592.161 168.12 591.501 168.597 590.636 168.934C589.785 169.257 588.758 169.418 587.556 169.418C586.852 169.418 586.184 169.374 585.554 169.286C584.938 169.198 584.395 169.066 583.926 168.89C583.471 168.699 583.112 168.487 582.848 168.252C582.804 168.208 582.767 168.164 582.738 168.12C582.723 168.061 582.716 167.966 582.716 167.834C582.716 167.57 582.716 167.313 582.716 167.064C582.716 166.815 582.716 166.551 582.716 166.272C582.716 165.993 582.716 165.707 582.716 165.414H583.134C583.794 165.854 584.483 166.184 585.202 166.404C585.92 166.609 586.771 166.712 587.754 166.712C588.663 166.712 589.323 166.565 589.734 166.272C590.159 165.979 590.372 165.627 590.372 165.216V164.468C590.372 164.219 590.328 164.013 590.24 163.852C590.166 163.676 590.005 163.515 589.756 163.368C589.506 163.207 589.11 163.053 588.568 162.906L586.478 162.268C585.759 162.048 585.165 161.799 584.696 161.52C584.226 161.227 583.86 160.919 583.596 160.596C583.346 160.273 583.163 159.929 583.046 159.562C582.943 159.181 582.892 158.785 582.892 158.374V157.318C582.892 156.717 583.016 156.167 583.266 155.668C583.53 155.155 583.904 154.715 584.388 154.348C584.872 153.967 585.451 153.681 586.126 153.49C586.815 153.285 587.578 153.182 588.414 153.182ZM601.478 153.16C602.578 153.16 603.568 153.395 604.448 153.864C605.343 154.319 606.047 155.001 606.56 155.91C607.088 156.819 607.352 157.956 607.352 159.32V163.522C607.352 164.783 607.095 165.854 606.582 166.734C606.069 167.614 605.372 168.289 604.492 168.758C603.612 169.213 602.607 169.44 601.478 169.44C600.378 169.44 599.381 169.213 598.486 168.758C597.606 168.289 596.902 167.614 596.374 166.734C595.861 165.854 595.604 164.783 595.604 163.522V159.32C595.604 157.956 595.875 156.819 596.418 155.91C596.961 155.001 597.679 154.319 598.574 153.864C599.483 153.395 600.451 153.16 601.478 153.16ZM598.574 163.324C598.574 164.16 598.677 164.783 598.882 165.194C599.087 165.605 599.3 165.905 599.52 166.096C599.74 166.272 600.019 166.419 600.356 166.536C600.708 166.653 601.111 166.712 601.566 166.712C602.123 166.712 602.607 166.587 603.018 166.338C603.429 166.089 603.759 165.707 604.008 165.194C604.257 164.681 604.382 164.05 604.382 163.302V159.078C604.382 158.609 604.353 158.22 604.294 157.912C604.235 157.589 604.147 157.318 604.03 157.098C603.913 156.878 603.766 156.687 603.59 156.526C603.37 156.306 603.091 156.137 602.754 156.02C602.417 155.903 602.006 155.844 601.522 155.844C600.847 155.844 600.29 155.976 599.85 156.24C599.425 156.504 599.102 156.878 598.882 157.362C598.677 157.846 598.574 158.418 598.574 159.078V163.324ZM610.485 169C610.455 169 610.426 168.993 610.397 168.978C610.367 168.963 610.338 168.949 610.309 168.934C610.294 168.905 610.279 168.875 610.265 168.846C610.25 168.817 610.243 168.787 610.243 168.758C610.243 167.629 610.243 166.492 610.243 165.348C610.243 164.204 610.243 163.067 610.243 161.938C610.243 160.809 610.243 159.701 610.243 158.616C610.243 157.516 610.243 156.453 610.243 155.426C610.243 155.118 610.243 154.817 610.243 154.524C610.243 154.216 610.243 153.908 610.243 153.6C610.741 153.6 611.233 153.6 611.717 153.6C612.201 153.6 612.685 153.6 613.169 153.6C613.213 153.6 613.249 153.615 613.279 153.644C613.323 153.659 613.352 153.688 613.367 153.732C613.396 153.761 613.411 153.798 613.411 153.842C613.411 154.869 613.411 155.903 613.411 156.944C613.411 157.985 613.411 159.034 613.411 160.09C613.411 161.131 613.411 162.173 613.411 163.214C613.411 164.255 613.411 165.289 613.411 166.316H617.239C617.62 166.316 617.943 166.367 618.207 166.47C618.485 166.558 618.713 166.712 618.889 166.932C619.065 167.152 619.204 167.431 619.307 167.768C619.424 168.105 619.527 168.516 619.615 169H610.485ZM616.821 164.622C617.114 164.622 617.4 164.622 617.679 164.622C617.957 164.622 618.229 164.622 618.493 164.622C618.771 164.622 619.065 164.622 619.373 164.622C619.417 164.622 619.453 164.637 619.483 164.666C619.527 164.681 619.556 164.71 619.571 164.754C619.6 164.783 619.615 164.82 619.615 164.864C619.615 165.143 619.615 165.458 619.615 165.81C619.615 166.162 619.615 166.536 619.615 166.932C619.615 167.313 619.615 167.687 619.615 168.054C619.615 168.406 619.615 168.721 619.615 169C618.896 168.941 618.331 168.809 617.921 168.604C617.51 168.399 617.224 168.127 617.063 167.79C616.901 167.453 616.821 167.064 616.821 166.624C616.821 166.419 616.821 166.199 616.821 165.964C616.821 165.729 616.821 165.495 616.821 165.26C616.821 165.011 616.821 164.798 616.821 164.622ZM633.426 169C633.104 169 632.781 169 632.458 169C632.136 169 631.813 169 631.49 169C631.168 169 630.838 169 630.5 169C630.471 169 630.442 169 630.412 169C630.383 168.985 630.361 168.971 630.346 168.956C630.332 168.941 630.317 168.927 630.302 168.912C630.288 168.897 630.273 168.875 630.258 168.846C630.258 168.817 630.258 168.787 630.258 168.758C630.258 167.497 630.258 166.235 630.258 164.974C630.258 163.713 630.258 162.451 630.258 161.19C630.258 159.914 630.258 158.645 630.258 157.384C630.258 156.123 630.258 154.861 630.258 153.6C630.596 153.6 630.918 153.6 631.226 153.6C631.549 153.6 631.872 153.6 632.194 153.6C632.532 153.6 632.862 153.6 633.184 153.6C633.228 153.6 633.265 153.615 633.294 153.644C633.338 153.659 633.368 153.688 633.382 153.732C633.412 153.761 633.426 153.798 633.426 153.842C633.426 154.898 633.426 155.961 633.426 157.032C633.426 158.103 633.426 159.173 633.426 160.244C633.426 161.3 633.426 162.363 633.426 163.434C633.426 164.49 633.426 165.546 633.426 166.602C633.426 167.042 633.426 167.467 633.426 167.878C633.426 168.274 633.426 168.648 633.426 169ZM625.946 169.242C625.316 169.242 624.773 169.154 624.318 168.978C623.864 168.802 623.49 168.545 623.196 168.208C622.903 167.856 622.683 167.431 622.536 166.932C622.39 166.433 622.316 165.854 622.316 165.194C622.316 164.226 622.316 163.229 622.316 162.202C622.316 161.175 622.316 160.119 622.316 159.034C622.316 157.949 622.316 156.871 622.316 155.8C622.316 155.433 622.316 155.067 622.316 154.7C622.316 154.333 622.316 153.967 622.316 153.6C622.815 153.6 623.306 153.6 623.79 153.6C624.274 153.6 624.758 153.6 625.242 153.6C625.301 153.6 625.345 153.615 625.374 153.644C625.404 153.659 625.426 153.681 625.44 153.71C625.47 153.739 625.484 153.783 625.484 153.842C625.484 155.074 625.484 156.328 625.484 157.604C625.484 158.88 625.484 160.149 625.484 161.41C625.484 162.657 625.484 163.852 625.484 164.996C625.484 165.524 625.594 165.905 625.814 166.14C626.034 166.36 626.401 166.47 626.914 166.47C627.398 166.47 627.853 166.382 628.278 166.206C628.718 166.015 629.144 165.729 629.554 165.348C629.965 164.952 630.361 164.453 630.742 163.852V166.976H629.818C629.54 167.46 629.21 167.871 628.828 168.208C628.462 168.545 628.036 168.802 627.552 168.978C627.083 169.154 626.548 169.242 625.946 169.242ZM636.163 153.6H646.855C646.928 153.6 646.987 153.622 647.031 153.666C647.09 153.71 647.119 153.769 647.119 153.842C647.119 154.297 647.119 154.707 647.119 155.074C647.119 155.426 647.119 155.829 647.119 156.284H636.427C636.383 156.284 636.339 156.277 636.295 156.262C636.266 156.233 636.236 156.203 636.207 156.174C636.178 156.13 636.163 156.086 636.163 156.042C636.163 155.587 636.163 155.177 636.163 154.81C636.163 154.443 636.163 154.04 636.163 153.6ZM643.225 169C642.741 169 642.257 169 641.773 169C641.289 169 640.798 169 640.299 169C640.226 169 640.167 168.978 640.123 168.934C640.079 168.89 640.057 168.831 640.057 168.758C640.057 167.57 640.057 166.419 640.057 165.304C640.057 164.189 640.057 163.075 640.057 161.96C640.057 160.831 640.057 159.701 640.057 158.572C640.057 157.428 640.057 156.277 640.057 155.118H643.467L643.225 155.712C643.225 156.005 643.225 156.321 643.225 156.658C643.225 156.981 643.225 157.296 643.225 157.604C643.225 157.912 643.225 158.205 643.225 158.484C643.225 159.423 643.225 160.339 643.225 161.234C643.225 162.114 643.225 163.016 643.225 163.94C643.225 164.849 643.225 165.81 643.225 166.822C643.225 167.233 643.225 167.621 643.225 167.988C643.225 168.355 643.225 168.692 643.225 169ZM654.887 167.35H651.631L651.719 166.448C651.719 166.199 651.719 165.92 651.719 165.612C651.719 165.304 651.719 165.025 651.719 164.776C651.719 163.984 651.719 163.192 651.719 162.4C651.719 161.608 651.719 160.823 651.719 160.046C651.719 159.254 651.719 158.462 651.719 157.67C651.719 156.863 651.719 156.057 651.719 155.25H654.975L654.887 156.152C654.887 156.387 654.887 156.651 654.887 156.944C654.887 157.237 654.887 157.509 654.887 157.758C654.887 158.565 654.887 159.371 654.887 160.178C654.887 160.97 654.887 161.769 654.887 162.576C654.887 163.368 654.887 164.16 654.887 164.952C654.887 165.744 654.887 166.543 654.887 167.35ZM657.241 169H649.607C649.577 169 649.548 168.993 649.519 168.978C649.489 168.963 649.46 168.949 649.431 168.934C649.416 168.905 649.401 168.875 649.387 168.846C649.372 168.817 649.365 168.787 649.365 168.758C649.365 168.465 649.365 168.186 649.365 167.922C649.365 167.658 649.365 167.401 649.365 167.152C649.365 166.888 649.365 166.609 649.365 166.316H656.977C657.021 166.316 657.065 166.331 657.109 166.36C657.153 166.375 657.182 166.404 657.197 166.448C657.226 166.477 657.241 166.514 657.241 166.558C657.241 166.851 657.241 167.13 657.241 167.394C657.241 167.643 657.241 167.9 657.241 168.164C657.241 168.428 657.241 168.707 657.241 169ZM649.365 153.6H656.977C657.065 153.6 657.131 153.622 657.175 153.666C657.219 153.71 657.241 153.769 657.241 153.842C657.241 154.047 657.241 154.253 657.241 154.458C657.241 154.663 657.241 154.869 657.241 155.074C657.241 155.265 657.241 155.463 657.241 155.668C657.241 155.859 657.241 156.064 657.241 156.284H649.607C649.548 156.284 649.489 156.262 649.431 156.218C649.387 156.159 649.365 156.101 649.365 156.042C649.365 155.822 649.365 155.617 649.365 155.426C649.365 155.221 649.365 155.023 649.365 154.832C649.365 154.627 649.365 154.421 649.365 154.216C649.365 154.011 649.365 153.805 649.365 153.6ZM665.287 153.16C666.387 153.16 667.377 153.395 668.257 153.864C669.151 154.319 669.855 155.001 670.369 155.91C670.897 156.819 671.161 157.956 671.161 159.32V163.522C671.161 164.783 670.904 165.854 670.391 166.734C669.877 167.614 669.181 168.289 668.301 168.758C667.421 169.213 666.416 169.44 665.287 169.44C664.187 169.44 663.189 169.213 662.295 168.758C661.415 168.289 660.711 167.614 660.183 166.734C659.669 165.854 659.413 164.783 659.413 163.522V159.32C659.413 157.956 659.684 156.819 660.227 155.91C660.769 155.001 661.488 154.319 662.383 153.864C663.292 153.395 664.26 153.16 665.287 153.16ZM662.383 163.324C662.383 164.16 662.485 164.783 662.691 165.194C662.896 165.605 663.109 165.905 663.329 166.096C663.549 166.272 663.827 166.419 664.165 166.536C664.517 166.653 664.92 166.712 665.375 166.712C665.932 166.712 666.416 166.587 666.827 166.338C667.237 166.089 667.567 165.707 667.817 165.194C668.066 164.681 668.191 164.05 668.191 163.302V159.078C668.191 158.609 668.161 158.22 668.103 157.912C668.044 157.589 667.956 157.318 667.839 157.098C667.721 156.878 667.575 156.687 667.399 156.526C667.179 156.306 666.9 156.137 666.563 156.02C666.225 155.903 665.815 155.844 665.331 155.844C664.656 155.844 664.099 155.976 663.659 156.24C663.233 156.504 662.911 156.878 662.691 157.362C662.485 157.846 662.383 158.418 662.383 159.078V163.324ZM676.625 169C676.171 169 675.716 169 675.261 169C674.807 169 674.345 169 673.875 169C673.831 169 673.787 168.993 673.743 168.978C673.714 168.949 673.685 168.919 673.655 168.89C673.641 168.846 673.633 168.802 673.633 168.758C673.633 167.687 673.633 166.617 673.633 165.546C673.633 164.475 673.633 163.412 673.633 162.356C673.633 161.285 673.633 160.215 673.633 159.144C673.633 158.059 673.633 156.988 673.633 155.932C673.633 155.536 673.633 155.147 673.633 154.766C673.633 154.37 673.633 153.981 673.633 153.6C673.956 153.6 674.315 153.6 674.711 153.6C675.107 153.6 675.503 153.6 675.899 153.6C676.31 153.6 676.662 153.6 676.955 153.6C677.043 153.6 677.109 153.615 677.153 153.644C677.197 153.659 677.249 153.71 677.307 153.798C677.366 153.886 677.454 154.047 677.571 154.282C677.909 154.913 678.239 155.529 678.561 156.13C678.884 156.717 679.199 157.303 679.507 157.89C679.83 158.477 680.138 159.063 680.431 159.65C680.739 160.222 681.04 160.794 681.333 161.366C681.641 161.938 681.942 162.517 682.235 163.104C682.543 163.676 682.837 164.263 683.115 164.864L682.257 164.27H683.753L683.291 164.534C683.174 163.874 683.071 163.258 682.983 162.686C682.91 162.114 682.844 161.571 682.785 161.058C682.727 160.53 682.683 160.024 682.653 159.54C682.624 159.041 682.602 158.557 682.587 158.088C682.573 157.604 682.565 157.113 682.565 156.614C682.565 156.189 682.565 155.719 682.565 155.206C682.565 154.678 682.565 154.143 682.565 153.6C683.035 153.6 683.497 153.6 683.951 153.6C684.406 153.6 684.861 153.6 685.315 153.6C685.389 153.6 685.447 153.622 685.491 153.666C685.535 153.71 685.557 153.769 685.557 153.842C685.557 154.898 685.557 155.961 685.557 157.032C685.557 158.088 685.557 159.151 685.557 160.222C685.557 161.278 685.557 162.334 685.557 163.39C685.557 164.446 685.557 165.509 685.557 166.58C685.557 166.991 685.557 167.401 685.557 167.812C685.557 168.208 685.557 168.604 685.557 169C685.264 169 684.956 169 684.633 169C684.311 169 683.995 169 683.687 169C683.379 169 683.101 169 682.851 169C682.763 169 682.661 168.971 682.543 168.912C682.426 168.839 682.272 168.633 682.081 168.296C681.436 167.196 680.842 166.169 680.299 165.216C679.757 164.248 679.251 163.324 678.781 162.444C678.312 161.564 677.857 160.699 677.417 159.848C676.992 158.983 676.559 158.095 676.119 157.186L677.109 157.934H675.591L675.987 157.604C676.105 158.293 676.193 158.946 676.251 159.562C676.325 160.178 676.383 160.765 676.427 161.322C676.486 161.865 676.53 162.385 676.559 162.884C676.589 163.368 676.603 163.823 676.603 164.248C676.618 164.673 676.625 165.062 676.625 165.414C676.625 165.986 676.625 166.58 676.625 167.196C676.625 167.797 676.625 168.399 676.625 169ZM693.816 153.182C694.843 153.182 695.723 153.307 696.456 153.556C697.189 153.791 697.725 154.077 698.062 154.414C698.121 154.473 698.157 154.531 698.172 154.59C698.187 154.649 698.194 154.722 698.194 154.81C698.194 155.089 698.194 155.404 698.194 155.756C698.194 156.108 698.194 156.46 698.194 156.812C698.194 157.164 698.194 157.509 698.194 157.846C697.783 157.846 697.358 157.846 696.918 157.846C696.478 157.846 696.045 157.846 695.62 157.846C695.547 157.846 695.488 157.824 695.444 157.78C695.4 157.736 695.378 157.677 695.378 157.604C695.378 157.457 695.378 157.311 695.378 157.164C695.378 157.017 695.378 156.863 695.378 156.702C695.378 156.526 695.378 156.343 695.378 156.152C695.378 155.961 695.378 155.749 695.378 155.514L695.994 156.306C695.642 156.145 695.297 156.035 694.96 155.976C694.637 155.903 694.256 155.866 693.816 155.866C693.391 155.866 693.017 155.895 692.694 155.954C692.386 156.013 692.122 156.115 691.902 156.262C691.682 156.394 691.513 156.57 691.396 156.79C691.279 156.995 691.22 157.245 691.22 157.538V158C691.22 158.279 691.264 158.521 691.352 158.726C691.455 158.931 691.631 159.107 691.88 159.254C692.144 159.401 692.533 159.555 693.046 159.716L695.158 160.354C695.833 160.559 696.397 160.787 696.852 161.036C697.321 161.271 697.688 161.542 697.952 161.85C698.216 162.158 698.407 162.51 698.524 162.906C698.641 163.302 698.7 163.757 698.7 164.27V165.282C698.7 166.133 698.473 166.873 698.018 167.504C697.563 168.12 696.903 168.597 696.038 168.934C695.187 169.257 694.161 169.418 692.958 169.418C692.254 169.418 691.587 169.374 690.956 169.286C690.34 169.198 689.797 169.066 689.328 168.89C688.873 168.699 688.514 168.487 688.25 168.252C688.206 168.208 688.169 168.164 688.14 168.12C688.125 168.061 688.118 167.966 688.118 167.834C688.118 167.57 688.118 167.313 688.118 167.064C688.118 166.815 688.118 166.551 688.118 166.272C688.118 165.993 688.118 165.707 688.118 165.414H688.536C689.196 165.854 689.885 166.184 690.604 166.404C691.323 166.609 692.173 166.712 693.156 166.712C694.065 166.712 694.725 166.565 695.136 166.272C695.561 165.979 695.774 165.627 695.774 165.216V164.468C695.774 164.219 695.73 164.013 695.642 163.852C695.569 163.676 695.407 163.515 695.158 163.368C694.909 163.207 694.513 163.053 693.97 162.906L691.88 162.268C691.161 162.048 690.567 161.799 690.098 161.52C689.629 161.227 689.262 160.919 688.998 160.596C688.749 160.273 688.565 159.929 688.448 159.562C688.345 159.181 688.294 158.785 688.294 158.374V157.318C688.294 156.717 688.419 156.167 688.668 155.668C688.932 155.155 689.306 154.715 689.79 154.348C690.274 153.967 690.853 153.681 691.528 153.49C692.217 153.285 692.98 153.182 693.816 153.182Z" fill="#F83670"/>
<path d="M251.956 91.052C254.084 91.052 255.932 91.192 257.5 91.472C259.068 91.752 260.356 92.088 261.364 92.48C262.372 92.816 263.016 93.18 263.296 93.572C263.464 93.684 263.548 93.796 263.548 93.908C263.604 94.02 263.632 94.16 263.632 94.328C263.632 95.728 263.632 97.156 263.632 98.612C263.632 100.012 263.632 101.412 263.632 102.812H262.12C260.72 102.14 259.18 101.608 257.5 101.216C255.82 100.824 253.972 100.628 251.956 100.628C249.828 100.628 247.98 101.02 246.412 101.804C244.844 102.588 243.64 103.792 242.8 105.416C241.96 107.04 241.54 109.14 241.54 111.716V117.512C241.54 119.416 241.792 121.068 242.296 122.468C242.8 123.868 243.528 125.016 244.48 125.912C245.376 126.752 246.44 127.368 247.672 127.76C248.904 128.152 250.332 128.348 251.956 128.348C253.356 128.348 254.644 128.264 255.82 128.096C256.996 127.928 258.088 127.704 259.096 127.424C260.16 127.088 261.168 126.724 262.12 126.332H263.632C263.632 127.732 263.632 129.16 263.632 130.616C263.632 132.016 263.632 133.416 263.632 134.816C263.632 134.928 263.604 135.04 263.548 135.152C263.548 135.264 263.492 135.376 263.38 135.488C263.044 135.824 262.372 136.188 261.364 136.58C260.412 136.972 259.152 137.28 257.584 137.504C256.016 137.784 254.14 137.924 251.956 137.924C248.708 137.924 245.796 137.504 243.22 136.664C240.644 135.768 238.432 134.48 236.584 132.8C234.792 131.064 233.42 128.964 232.468 126.5C231.572 123.98 231.124 121.152 231.124 118.016V111.464C231.124 107.32 231.992 103.736 233.728 100.712C235.52 97.632 237.984 95.252 241.12 93.572C244.256 91.892 247.868 91.052 251.956 91.052ZM293.2 91.052C296.168 91.052 298.856 91.528 301.264 92.48C303.728 93.376 305.828 94.664 307.564 96.344C309.356 98.024 310.728 100.012 311.68 102.308C312.688 104.604 313.192 107.152 313.192 109.952V118.772C313.192 122.58 312.324 125.94 310.588 128.852C308.908 131.708 306.556 133.948 303.532 135.572C300.564 137.14 297.12 137.924 293.2 137.924C290.232 137.924 287.516 137.476 285.052 136.58C282.588 135.628 280.488 134.312 278.752 132.632C277.016 130.952 275.644 128.964 274.636 126.668C273.684 124.372 273.208 121.824 273.208 119.024V110.204C273.208 106.396 274.048 103.064 275.728 100.208C277.464 97.352 279.844 95.112 282.868 93.488C285.892 91.864 289.336 91.052 293.2 91.052ZM293.452 100.208C291.268 100.208 289.42 100.656 287.908 101.552C286.452 102.392 285.332 103.596 284.548 105.164C283.764 106.676 283.372 108.496 283.372 110.624V118.436C283.372 120.06 283.596 121.544 284.044 122.888C284.548 124.176 285.248 125.268 286.144 126.164C286.928 127.004 287.908 127.648 289.084 128.096C290.26 128.544 291.548 128.768 292.948 128.768C295.132 128.768 296.952 128.348 298.408 127.508C299.92 126.612 301.068 125.38 301.852 123.812C302.636 122.244 303.028 120.424 303.028 118.352V110.54C303.028 108.748 302.804 107.208 302.356 105.92C301.908 104.632 301.264 103.54 300.424 102.644C299.584 101.86 298.576 101.272 297.4 100.88C296.28 100.432 294.964 100.208 293.452 100.208ZM362.635 137C361.011 137 359.471 137 358.015 137C356.615 137 355.075 137 353.395 137C353.227 137 353.059 136.972 352.891 136.916C352.779 136.804 352.667 136.692 352.555 136.58C352.499 136.468 352.471 136.3 352.471 136.076C352.471 132.716 352.471 129.384 352.471 126.08C352.471 122.72 352.471 119.36 352.471 116C352.471 112.64 352.471 109.308 352.471 106.004C352.471 104.212 352.051 102.896 351.211 102.056C350.427 101.216 349.195 100.796 347.515 100.796C346.507 100.796 345.415 100.964 344.239 101.3C343.119 101.58 341.943 102.056 340.711 102.728C339.535 103.4 338.387 104.212 337.267 105.164C336.147 106.116 335.083 107.264 334.075 108.608V99.368H336.847C338.023 97.688 339.311 96.232 340.711 95C342.167 93.768 343.735 92.816 345.415 92.144C347.095 91.416 348.887 91.052 350.791 91.052C352.639 91.052 354.291 91.36 355.747 91.976C357.203 92.536 358.435 93.404 359.443 94.58C360.451 95.7 361.235 97.044 361.795 98.612C362.355 100.18 362.635 101.944 362.635 103.904C362.635 106.592 362.635 109.308 362.635 112.052C362.635 114.796 362.635 117.54 362.635 120.284C362.635 123.028 362.635 125.772 362.635 128.516C362.635 129.972 362.635 131.4 362.635 132.8C362.635 134.2 362.635 135.6 362.635 137ZM335.335 137C334.271 137 333.235 137 332.227 137C331.275 137 330.295 137 329.287 137C328.279 137 327.243 137 326.179 137C326.011 137 325.871 137 325.759 137C325.647 136.944 325.535 136.888 325.423 136.832C325.367 136.72 325.311 136.608 325.255 136.496C325.255 136.384 325.255 136.244 325.255 136.076C325.255 133.052 325.255 130.056 325.255 127.088C325.255 124.12 325.255 121.152 325.255 118.184C325.255 115.216 325.255 112.248 325.255 109.28C325.255 106.256 325.255 103.26 325.255 100.292C325.255 98.612 325.255 97.072 325.255 95.672C325.255 94.216 325.255 92.984 325.255 91.976C326.487 91.976 327.607 91.976 328.615 91.976C329.623 91.976 330.603 91.976 331.555 91.976C332.507 91.976 333.459 91.976 334.411 91.976C334.635 91.976 334.803 92.032 334.915 92.144C335.027 92.2 335.111 92.284 335.167 92.396C335.279 92.508 335.335 92.676 335.335 92.9C335.335 97.772 335.335 102.672 335.335 107.6C335.335 112.472 335.335 117.372 335.335 122.3C335.335 127.172 335.335 132.072 335.335 137ZM380.45 91.976C380.674 91.976 380.87 92.032 381.038 92.144C381.206 92.2 381.346 92.312 381.458 92.48C381.57 92.648 381.654 92.872 381.71 93.152C382.774 96.736 383.838 100.376 384.902 104.072C386.022 107.768 387.142 111.716 388.262 115.916C389.382 120.06 390.502 124.652 391.622 129.692H393.134C393.862 126.668 394.562 123.812 395.234 121.124C395.906 118.38 396.578 115.748 397.25 113.228C397.978 110.652 398.65 108.188 399.266 105.836C399.938 103.484 400.61 101.16 401.282 98.864C401.954 96.568 402.626 94.272 403.298 91.976C404.866 91.976 406.434 91.976 408.002 91.976C409.57 91.976 411.11 91.976 412.622 91.976C412.902 91.976 413.126 92.06 413.294 92.228C413.462 92.34 413.574 92.508 413.63 92.732C413.742 92.9 413.742 93.124 413.63 93.404C412.454 96.988 411.278 100.6 410.102 104.24C408.926 107.88 407.778 111.548 406.658 115.244C405.538 118.884 404.39 122.524 403.214 126.164C402.038 129.748 400.862 133.36 399.686 137C397.446 137 395.206 137 392.966 137C390.782 137 388.766 137 386.918 137C386.414 137 385.966 136.944 385.574 136.832C385.238 136.664 384.958 136.384 384.734 135.992C384.51 135.544 384.258 134.9 383.978 134.06C383.138 131.484 382.27 128.852 381.374 126.164C380.534 123.476 379.666 120.732 378.77 117.932C377.93 115.132 377.034 112.304 376.082 109.448C375.186 106.536 374.262 103.624 373.31 100.712C372.414 97.8 371.518 94.888 370.622 91.976C372.246 91.976 373.87 91.976 375.494 91.976C377.174 91.976 378.826 91.976 380.45 91.976ZM441.841 91.052C444.809 91.052 447.497 91.528 449.905 92.48C452.369 93.376 454.469 94.664 456.205 96.344C457.997 98.024 459.369 100.012 460.321 102.308C461.329 104.604 461.833 107.152 461.833 109.952V118.772C461.833 122.58 460.965 125.94 459.229 128.852C457.549 131.708 455.197 133.948 452.173 135.572C449.205 137.14 445.761 137.924 441.841 137.924C438.873 137.924 436.157 137.476 433.693 136.58C431.229 135.628 429.129 134.312 427.393 132.632C425.657 130.952 424.285 128.964 423.277 126.668C422.325 124.372 421.849 121.824 421.849 119.024V110.204C421.849 106.396 422.689 103.064 424.369 100.208C426.105 97.352 428.485 95.112 431.509 93.488C434.533 91.864 437.977 91.052 441.841 91.052ZM442.093 100.208C439.909 100.208 438.061 100.656 436.549 101.552C435.093 102.392 433.973 103.596 433.189 105.164C432.405 106.676 432.013 108.496 432.013 110.624V118.436C432.013 120.06 432.237 121.544 432.685 122.888C433.189 124.176 433.889 125.268 434.785 126.164C435.569 127.004 436.549 127.648 437.725 128.096C438.901 128.544 440.189 128.768 441.589 128.768C443.773 128.768 445.593 128.348 447.049 127.508C448.561 126.612 449.709 125.38 450.493 123.812C451.277 122.244 451.669 120.424 451.669 118.352V110.54C451.669 108.748 451.445 107.208 450.997 105.92C450.549 104.632 449.905 103.54 449.065 102.644C448.225 101.86 447.217 101.272 446.041 100.88C444.921 100.432 443.605 100.208 442.093 100.208ZM474.736 84.668C474.736 82.652 474.736 80.804 474.736 79.124C474.736 77.388 474.736 75.68 474.736 74C476.08 74 477.032 74 477.592 74C478.208 74 478.656 74 478.936 74C479.216 74 479.468 74 479.692 74C479.972 74 480.42 74 481.036 74C481.652 74 482.632 74 483.976 74C484.144 74 484.284 74.056 484.396 74.168C484.564 74.224 484.676 74.308 484.732 74.42C484.844 74.532 484.9 74.7 484.9 74.924C484.9 78.228 484.9 81.504 484.9 84.752C484.9 88 484.9 91.248 484.9 94.496C484.9 97.688 484.9 100.908 484.9 104.156C484.9 107.404 484.9 110.652 484.9 113.9C484.9 117.148 484.9 120.396 484.9 123.644C484.9 124.316 484.928 124.904 484.984 125.408C485.096 125.856 485.32 126.22 485.656 126.5C485.992 126.836 486.384 127.088 486.832 127.256C487.336 127.368 487.952 127.424 488.68 127.424C488.904 127.424 489.184 127.424 489.52 127.424C489.856 127.424 490.164 127.424 490.444 127.424C490.78 127.424 491.088 127.424 491.368 127.424C491.704 127.424 491.928 127.424 492.04 127.424H492.88C492.88 128.768 492.88 130.224 492.88 131.792C492.88 133.304 492.88 134.732 492.88 136.076C492.88 136.356 492.796 136.58 492.628 136.748C492.46 136.916 492.236 137 491.956 137C491.732 137 491.508 137 491.284 137C491.116 137 490.836 137 490.444 137C490.108 137 489.604 137 488.932 137C488.26 137 487.308 137 486.076 137C484.172 137 482.52 136.748 481.12 136.244C479.72 135.74 478.544 134.984 477.592 133.976C476.64 132.912 475.912 131.596 475.408 130.028C474.96 128.46 474.736 126.612 474.736 124.484C474.736 121.18 474.736 117.876 474.736 114.572C474.736 111.212 474.736 107.88 474.736 104.576C474.736 101.272 474.736 97.968 474.736 94.664C474.736 91.304 474.736 87.972 474.736 84.668ZM507.188 91.976C507.412 91.976 507.608 92.032 507.776 92.144C507.944 92.2 508.084 92.312 508.196 92.48C508.308 92.648 508.392 92.872 508.448 93.152C509.512 96.736 510.576 100.376 511.64 104.072C512.76 107.768 513.88 111.716 515 115.916C516.12 120.06 517.24 124.652 518.36 129.692H519.872C520.6 126.668 521.3 123.812 521.972 121.124C522.644 118.38 523.316 115.748 523.988 113.228C524.716 110.652 525.388 108.188 526.004 105.836C526.676 103.484 527.348 101.16 528.02 98.864C528.692 96.568 529.364 94.272 530.036 91.976C531.604 91.976 533.172 91.976 534.74 91.976C536.308 91.976 537.848 91.976 539.36 91.976C539.64 91.976 539.864 92.06 540.032 92.228C540.2 92.34 540.312 92.508 540.368 92.732C540.48 92.9 540.48 93.124 540.368 93.404C539.192 96.988 538.016 100.6 536.84 104.24C535.664 107.88 534.516 111.548 533.396 115.244C532.276 118.884 531.128 122.524 529.952 126.164C528.776 129.748 527.6 133.36 526.424 137C524.184 137 521.944 137 519.704 137C517.52 137 515.504 137 513.656 137C513.152 137 512.704 136.944 512.312 136.832C511.976 136.664 511.696 136.384 511.472 135.992C511.248 135.544 510.996 134.9 510.716 134.06C509.876 131.484 509.008 128.852 508.112 126.164C507.272 123.476 506.404 120.732 505.508 117.932C504.668 115.132 503.772 112.304 502.82 109.448C501.924 106.536 501 103.624 500.048 100.712C499.152 97.8 498.256 94.888 497.36 91.976C498.984 91.976 500.608 91.976 502.232 91.976C503.912 91.976 505.564 91.976 507.188 91.976ZM567.927 91.052C571.623 91.052 574.871 91.808 577.671 93.32C580.471 94.776 582.655 96.904 584.223 99.704C585.791 102.448 586.575 105.808 586.575 109.784V116.504C586.575 116.672 586.547 116.84 586.491 117.008C586.435 117.12 586.323 117.204 586.155 117.26C586.043 117.316 585.903 117.344 585.735 117.344H565.575C564.679 117.344 563.727 117.344 562.719 117.344C561.767 117.344 560.815 117.344 559.863 117.344H556.755L556.167 110.876H576.747C576.747 110.596 576.747 110.372 576.747 110.204C576.747 109.98 576.747 109.728 576.747 109.448C576.747 107.656 576.551 106.116 576.159 104.828C575.767 103.54 575.179 102.504 574.395 101.72C573.667 100.992 572.771 100.46 571.707 100.124C570.643 99.788 569.383 99.62 567.927 99.62C564.903 99.62 562.607 100.404 561.039 101.972C559.471 103.484 558.687 106.032 558.687 109.616V119.276C558.687 120.844 558.883 122.216 559.275 123.392C559.667 124.512 560.227 125.464 560.955 126.248C561.963 127.256 563.251 127.984 564.819 128.432C566.387 128.88 568.235 129.104 570.363 129.104C572.435 129.104 574.227 128.992 575.739 128.768C577.307 128.544 578.763 128.236 580.107 127.844C581.507 127.452 582.851 127.004 584.139 126.5H585.651C585.651 127.732 585.651 128.992 585.651 130.28C585.651 131.568 585.651 132.828 585.651 134.06C585.651 134.172 585.623 134.284 585.567 134.396C585.511 134.508 585.427 134.62 585.315 134.732C584.811 135.236 583.803 135.74 582.291 136.244C580.779 136.748 578.959 137.14 576.831 137.42C574.703 137.756 572.491 137.924 570.195 137.924C566.667 137.924 563.531 137.532 560.787 136.748C558.099 135.908 555.859 134.676 554.067 133.052C552.275 131.428 550.903 129.468 549.951 127.172C548.999 124.82 548.523 122.188 548.523 119.276V109.952C548.523 106.928 548.971 104.268 549.867 101.972C550.819 99.62 552.163 97.632 553.899 96.008C555.691 94.384 557.763 93.152 560.115 92.312C562.523 91.472 565.127 91.052 567.927 91.052ZM610.246 137.756C608.79 137.756 607.362 137.756 605.962 137.756C604.618 137.756 603.246 137.756 601.846 137.756C600.502 137.756 599.074 137.756 597.562 137.756C597.394 137.756 597.226 137.7 597.058 137.588C596.946 137.532 596.834 137.42 596.722 137.252C596.666 137.14 596.638 137 596.638 136.832V123.98C598.15 123.98 599.578 123.98 600.922 123.98C602.322 123.98 603.694 123.98 605.038 123.98C606.438 123.98 607.866 123.98 609.322 123.98C609.546 123.98 609.714 124.036 609.826 124.148C609.938 124.204 610.022 124.288 610.078 124.4C610.19 124.512 610.246 124.68 610.246 124.904V137.756ZM658.973 108.104C658.973 109.504 658.973 110.932 658.973 112.388C658.973 113.788 658.973 115.216 658.973 116.672C658.973 118.072 658.973 119.5 658.973 120.956C658.973 122.412 658.973 123.812 658.973 125.156C658.973 125.716 659.001 126.192 659.057 126.584C659.169 126.976 659.365 127.284 659.645 127.508C659.813 127.732 660.065 127.9 660.401 128.012C660.737 128.124 661.157 128.18 661.661 128.18C661.773 128.18 661.885 128.18 661.997 128.18C662.165 128.18 662.333 128.18 662.501 128.18H664.013C664.013 129.468 664.013 130.784 664.013 132.128C664.013 133.416 664.013 134.732 664.013 136.076C664.013 136.356 663.929 136.58 663.761 136.748C663.593 136.916 663.369 137 663.089 137C662.809 137 662.193 137 661.241 137C660.345 137 659.533 137 658.805 137C657.293 137 655.949 136.776 654.773 136.328C653.597 135.88 652.533 135.208 651.581 134.312C650.685 133.416 649.985 132.352 649.481 131.12C649.033 129.832 648.809 128.404 648.809 126.836C648.809 125.044 648.809 123.196 648.809 121.292C648.809 119.388 648.809 117.54 648.809 115.748C648.809 114.796 648.809 113.872 648.809 112.976C648.809 112.08 648.809 111.184 648.809 110.288C648.809 109.392 648.809 108.496 648.809 107.6C648.809 105.808 648.501 104.408 647.885 103.4C647.269 102.336 646.289 101.608 644.945 101.216C643.657 100.768 641.865 100.544 639.569 100.544C637.945 100.544 636.377 100.628 634.865 100.796C633.409 100.908 631.981 101.132 630.581 101.468C629.181 101.748 627.725 102.14 626.213 102.644H624.785C624.785 101.356 624.785 100.04 624.785 98.696C624.785 97.296 624.785 95.98 624.785 94.748C624.785 94.524 624.813 94.356 624.869 94.244C624.925 94.076 624.981 93.964 625.037 93.908C625.317 93.628 626.213 93.264 627.725 92.816C629.237 92.368 631.057 91.976 633.185 91.64C635.313 91.304 637.441 91.136 639.569 91.136C642.985 91.136 645.897 91.472 648.305 92.144C650.769 92.76 652.785 93.74 654.353 95.084C655.921 96.428 657.069 98.192 657.797 100.376C658.581 102.504 658.973 105.08 658.973 108.104ZM631.673 124.568C631.673 125.912 632.065 126.976 632.849 127.76C633.633 128.488 634.837 128.852 636.461 128.852C638.085 128.852 639.653 128.656 641.165 128.264C642.733 127.816 644.273 127.144 645.785 126.248C647.297 125.352 648.809 124.12 650.321 122.552V129.776H647.885C647.045 131.512 645.953 132.996 644.609 134.228C643.321 135.404 641.781 136.3 639.989 136.916C638.197 137.532 636.237 137.84 634.109 137.84C631.533 137.84 629.293 137.336 627.389 136.328C625.541 135.32 624.085 133.92 623.021 132.128C622.013 130.336 621.509 128.236 621.509 125.828V122.972C621.509 121.124 621.817 119.472 622.433 118.016C623.049 116.504 623.917 115.244 625.037 114.236C626.213 113.172 627.613 112.36 629.237 111.8C630.861 111.184 632.681 110.876 634.697 110.876C636.657 110.876 638.561 110.876 640.409 110.876C642.257 110.876 644.049 110.876 645.785 110.876C647.521 110.876 649.229 110.876 650.909 110.876C651.357 110.876 651.693 111.296 651.917 112.136C652.197 112.92 652.365 113.816 652.421 114.824C652.477 115.832 652.505 116.7 652.505 117.428C650.601 117.428 648.781 117.428 647.045 117.428C645.365 117.428 643.657 117.428 641.921 117.428C640.185 117.428 638.365 117.428 636.461 117.428C635.621 117.428 634.893 117.54 634.277 117.764C633.717 117.932 633.213 118.24 632.765 118.688C632.429 119.024 632.149 119.472 631.925 120.032C631.757 120.536 631.673 121.096 631.673 121.712V124.568ZM677.02 136.076C677.02 134.34 677.02 132.324 677.02 130.028C677.02 127.676 677.02 125.184 677.02 122.552C677.02 119.92 677.02 117.288 677.02 114.656C677.02 112.024 677.02 109.532 677.02 107.18C677.02 104.828 677.02 102.812 677.02 101.132H676.264C675.872 101.132 675.452 101.132 675.004 101.132C674.556 101.132 674.08 101.132 673.576 101.132C673.072 101.132 672.568 101.132 672.064 101.132C671.56 101.132 671.084 101.132 670.636 101.132C670.356 101.132 670.132 101.048 669.964 100.88C669.796 100.656 669.712 100.432 669.712 100.208C669.712 98.864 669.712 97.492 669.712 96.092C669.712 94.692 669.712 93.32 669.712 91.976C670.608 91.976 671.644 91.976 672.82 91.976C673.996 91.976 675.2 91.976 676.432 91.976C677.72 91.976 678.952 91.976 680.128 91.976C681.36 91.976 682.508 91.976 683.572 91.976C684.636 91.976 685.532 91.976 686.26 91.976C686.484 91.976 686.652 92.032 686.764 92.144C686.876 92.2 686.96 92.284 687.016 92.396C687.128 92.508 687.184 92.676 687.184 92.9C687.184 95.588 687.184 98.472 687.184 101.552C687.184 104.632 687.184 107.768 687.184 110.96C687.184 114.096 687.184 117.204 687.184 120.284C687.184 123.308 687.184 126.22 687.184 129.02C687.184 129.86 687.184 130.728 687.184 131.624C687.184 132.52 687.184 133.416 687.184 134.312C687.184 135.208 687.184 136.104 687.184 137C685.56 137 684.02 137 682.564 137C681.164 137 679.624 137 677.944 137C677.664 137 677.44 136.916 677.272 136.748C677.104 136.58 677.02 136.356 677.02 136.076ZM675.172 70.892C676.18 70.892 677.188 70.892 678.196 70.892C679.204 70.892 680.24 70.892 681.304 70.892C682.424 70.892 683.488 70.892 684.496 70.892C685.504 70.892 686.512 70.892 687.52 70.892C687.8 70.892 688.024 70.976 688.192 71.144C688.36 71.312 688.444 71.536 688.444 71.816V81.728C687.436 81.728 686.428 81.728 685.42 81.728C684.412 81.728 683.348 81.728 682.228 81.728C681.164 81.728 680.128 81.728 679.12 81.728C678.112 81.728 677.104 81.728 676.096 81.728C675.816 81.728 675.592 81.644 675.424 81.476C675.256 81.308 675.172 81.084 675.172 80.804V70.892Z" fill="white"/>
<circle cx="29" cy="123" r="20" fill="#FFC514"/>
<circle cx="120" cy="181" r="20" fill="#FFC514"/>
<circle cx="75" cy="50" r="15" fill="#FFC514"/>
<circle cx="164" cy="50" r="15" fill="#FFC514"/>
<circle cx="194" cy="138" r="15" fill="#FFC514"/>
<circle cx="120" cy="113" r="30" fill="#FFC514"/>
<line x1="41.9439" y1="120.685" x2="95.1072" y2="110.406" stroke="#FFC514" stroke-width="5"/>
<line x1="119.5" y1="135" x2="119.5" y2="169" stroke="#FFC514" stroke-width="5"/>
<line x1="74.0013" y1="48.5017" x2="105.378" y2="90.4125" stroke="#FFC514" stroke-width="5"/>
<line x1="128.692" y1="92.2557" x2="158.513" y2="57.4891" stroke="#FFC514" stroke-width="5"/>
<line x1="141.301" y1="116.555" x2="188.501" y2="134.781" stroke="#FFC514" stroke-width="5"/>
</svg>
